<svg xmlns="http://www.w3.org/2000/svg" width="1792" height="1024" viewBox="0 0 1792 1024"><path fill="#fff" d="M0 0h1791.996v1023.997H0V0"/><path d="M0 493.419c16.292-.668 29.687-4.266 45.38-5.652 10.135-.895 26.492 7.994 37.155 7.582 18.67.875 35.883-4.674 54.78-4.18 13.286.348 25.693.52 38.96 1.723 12.103 1.099 26.834 3.581 38.672 3.012 37.176-1.79 71.855-13.27 109.454-11.873 20.026.744 30.162 6.46 48.65 11.064 14.759 3.674 38.259 4.933 53.481 4.921 18.499-.013 41.317.877 59.272-3.03 16.913-3.682 32.487-12.329 50.56-12.147 42.848.43 83.572 14.85 126.397 16.661 22.344.945 43.939-4.276 65.701-9.121 12.607-2.808 25.536-7.655 38.912-7.916 15.084-.295 29.761 8.648 44.983 9.722 13.44.948 27.994 2.827 41.378 2.868 12.314.04 24.767-.698 37.135-.838 9.886-.112 19.448.79 28.99.91l.904 1.224-.433.731c-31.14-.355-59.601 2.41-90.476 1.216-20.706-.627-40.506-8.425-61.26-7.345-7.7.4-14.77 3.132-22.288 4.21-29.683 4.258-58.497 16.902-88.583 16.675-12.754-.096-23.636-5.393-35.803-8.09-10.167-1.742-20.197-3.611-30.392-5.278-16.882-2.76-34.234-8.064-51.29-9.248-35.624-2.472-65.559 19.303-102.881 15.46-17.504-1.803-37.107.805-54.807-3.361-9.061-1.599-21.857-6.37-31.204-9.047-18.933-5.421-32.57-6.19-51.812-6.277-26.338-.118-49.725 8.277-74.792 10.21-17.968 1.383-39.65.744-58.077 1.32-22.126.688-43.222 1.911-65.299 3.488-10.993.786-23.698-.313-34.634.451-22.28 1.559-44.277 8.079-66.733 8.772z"/><path d="M980.954 500.576c6.09-1.08 18.382-4.35 23.303.555-1.065 7.002-18.76 2.446-23.286 1.124z"/><path fill="#6e6b6c" d="M919.86 497.124c19.998.539 40.964 2.485 61.094 3.452l.017 1.679c-11.955-2.588-48.175-.48-60.64-3.175l.433-.73z"/><path d="M1611.65 495.587c5.573-.514 11.826-1.436 16.72 1.361l-.054 1.37c-2.333 2.157-5.053 2.451-8.173 3.162-7.334-.208-13.694-1.227-20.947-2.268 4.213-1.46 8.16-2.483 12.453-3.625"/><path fill="#c2c1c2" d="M1120.945 495.519c7.558-1.81 55.239-.995 66.345-1.055l.095 1.85c-9.964-.12-57.537-1.026-65.601.771z"/><path d="M1734.889 493.776c3.373.033 7.427-.393 9.413 2.659-1.653 2.506-2.28 2.208-5.306 3.674-3.094-.116-10.254-.222-11.16-3.7 1.786-1.949 4.306-2.066 7.053-2.633"/><path d="M1121.784 497.085c-4.521 2.163-11.997 5.422-15.137.048l.928-1.809c4.814-2.797 7.958-1.192 13.37.195z"/><path d="M1404.89 497.945c2.56-.269 3.066-.14 5.613.374 2.333 2.037 1.973 1.11 2.24 3.592-2.227 2.62-1.64 1.87-5.28 3.065l-10.28-3.015z"/><path d="M1187.29 494.464c4.619-.619 7.98-1.316 12.619-.428l1.152.948c-3.41 2.221-9.644 1.52-13.676 1.33z"/></svg>