<svg xmlns="http://www.w3.org/2000/svg" width="450" height="62" viewBox="0 0 450 62"><path fill="#fff" d="M0 0h450v62H0z"/><path fill="#312f30" d="M60.187 26.731c4.384-.645 13.477-.014 18.234-.014q22.42-.048 44.836.337c5.948.15 12.48.946 18.26.928 8.143-.025 16.733-.411 24.898-.665q10.671-.3 21.345-.34c2.949-.027 11.508-.412 13.8-.003-1.434.127-2.471.156-3.904.158.69.382 4.164.255 5.112.24.556 1.232 1.523 2.452.395 3.4-1.313.302-2.191.272-3.517.279l1.667.256c-1.638.223-4.435.226-6.15.344-6.206.427-12.464.228-18.657.394-18.685.69-37.385.944-56.083.765-8.246-.118-16.583-1.306-24.873-.969-11.062.45-22.012.416-33.07-.17-2.106-.113-4.262-.102-6.348-.401l-.083.002c-1.574.033-8.5-.27-9.512-1.24.192-2.542 11.6-3.297 13.65-3.3"/><path fill="#010101" d="m56.132 31.27-.083.002c-1.574.033-8.5-.27-9.512-1.24.192-2.542 11.6-3.297 13.65-3.3l1.835.19c-2.008.64-9.527.088-11.087 1.84-.224 2.19 6.508 2.015 8.17 2.28z"/><path fill="#010101" d="M201.56 26.974c6.037-.085 12.006.623 18.041.818 8.247.266 16.539.223 24.776.804 4.798.338 9.672 1.332 14.509 1.54 7.215.31 14.447-.1 21.66-.138 5.823.006 11.643.265 17.444.776l.056.508c-1.709.989-10.875.118-13.619.5-6.328-.037-12.974.312-19.142.189-21.373-.43-42.579-.94-63.972-.664l-1.667-.256c1.326-.007 2.204.023 3.517-.28 1.128-.947.161-2.167-.395-3.399-.948.015-4.422.142-5.112-.24 1.433-.002 2.47-.03 3.904-.158"/><path fill="#827e82" d="M317.384 30.778c1.825-.037 4.544.102 6.23-.21 9.088-1.68 17.92-.967 27.078-1.101 5.412-.08 11.968-1.298 17.306.03-15.145 1.437-30.508-.314-45.605 2.2-2.684.448-8.618-.05-11.575-.02.648-.43 4.791-.32 6.566-.899"/><path fill="#312f30" d="M297.99 30.774c6.406-.01 13.013-.183 19.394.004-1.775.58-5.918.469-6.566.9-5.972.345-11.689.501-17.676.337-2.833-.078-5.91.075-8.715-.234 2.744-.38 11.91.49 13.619-.499z"/></svg>