<?xml version="1.0" encoding="utf-8" ?><svg xmlns="http://www.w3.org/2000/svg" xmlns:xlink="http://www.w3.org/1999/xlink" width="768" height="1344" viewBox="0 0 768 1344"><path fill="#242424" d="M317.379 46.6085C319.938 47.0544 325.05 48.2061 327.357 47.7859C326.105 47.1983 324.85 46.62 323.59 46.051C343.455 47.476 378.486 65.2078 396.795 74.2082C410.971 80.953 424.342 89.9142 438.088 97.4873L433.04 92.57L433.669 89.7605L435.728 89.2037C440.656 92.6231 446.622 96.6501 451.089 100.516C457.025 105.654 461.392 110.603 467.913 115.226C471.516 119.226 475.558 123.92 479.408 127.57C478.244 124.61 475.872 122.069 473.752 119.651L475.8 119.207C498.779 144.04 513.479 171.81 522.87 204.758C523.591 207.286 523.321 209.588 524.374 212.1L524.918 211.63L526.834 212.18L527.37 211.793C531.307 223.877 531.398 227.583 532.853 240.062L533.139 238.935C533.595 244.113 528.956 278.73 529.589 279.34L531.447 278.12C531.422 275.712 528.301 291.295 528.743 289.717C528.444 286.411 528.251 283.096 528.165 279.777C525.614 290.677 525.542 302.041 524.683 313.223C524.409 316.788 523.232 326.521 523.318 329.592L522.807 331.892C524.906 333.218 524.04 331.229 526.539 332.828C526.659 333.732 526.978 334.661 527.235 335.55C528.346 334.908 528.287 331.573 529.67 329.547C528.62 338.362 529.239 347.127 527.434 356.104C525.14 367.521 530.114 380.309 526.128 391.515C522.501 402.406 512.355 412.8 508.908 423.506C510.181 424.026 510.436 423.725 512.036 423.517L512.181 423.985C511.434 424.224 508.75 424.84 508.671 425.644C506.382 448.711 488.228 463.683 472.231 478.214C470.258 480.006 470.233 483.838 469.884 486.778C469.261 492.018 465.513 492.191 461.848 494.648C458.667 496.78 453.463 512.05 453.452 514.871C454.106 515.819 454.539 516.32 454.884 517.438C449.41 531.665 448.611 546.215 431.602 551.272C427.366 552.532 423.348 554.055 419.256 555.722C417.247 558.703 413.018 562.862 412.28 564.685C413.088 565.886 413.281 565.97 414.401 566.793C413.939 570.821 397.919 575.885 394.579 588.399L394.976 589.225L398.079 589.868C396.883 593.524 392.757 592.814 388.881 597.773C382.538 605.887 385.764 606.575 382.676 614.22C381.432 617.299 374.099 621.336 373.742 626.794C374.292 627.758 374.605 628.372 375.328 629.24C373.49 631.99 369.003 635.232 370.784 638.01C376.068 646.249 367.693 645.673 365.937 651.897L367.232 655.57C361.197 663.612 350.05 671.876 351.629 684.003C353.481 698.223 346.754 710.468 345.51 724.569C345.374 726.304 345.051 729.27 344.55 730.721C343.997 735.933 340.037 747.334 337.556 751.638C332.484 760.433 331.203 758.525 328.697 768.824L324.659 771.957C323.751 775.761 321.883 784.527 320.405 787.682L319.879 787.782L319.267 785.347C316.38 787.696 317.857 791.016 315.769 793.513C314.723 792.945 314.875 792.746 314.175 791.542C308.592 796.184 305.828 824.608 305.431 832.789C305.359 834.284 304.941 839.926 304.618 840.958L303.969 840.739L303.84 838.232C303.949 833.942 304.874 819.58 304.182 816.739C301.401 822.208 300.534 831.588 299.307 837.812L298.432 838.016C297.093 843.016 294.929 846.888 295.502 851.558C295.504 850.672 295.335 850.135 295.742 849.536C296.98 853.444 296.635 854.41 295.554 858.299C294.632 858.174 291.571 857.151 290.574 856.83C289.725 855.236 290.756 853.994 290.495 851.414L288.96 852.312C289.753 847.656 288.901 846.234 289.218 843.665C290.347 834.506 290.923 832.405 290.102 823.331C289.349 826.856 288.377 830.6 287.533 834.128C286.78 833.374 285.447 832.315 284.601 831.597C285.232 827.538 286.212 823.134 284.698 819.267L284.186 818.917C285.538 809.618 286.948 804.119 287.009 794.559C285.147 801.412 283.865 808.226 282.484 815.181C282.606 807.831 279.654 789.854 282.233 785.338C284.125 783.751 284.088 779.348 283.064 777.276C282.386 777.466 281.767 777.649 281.097 777.865C281.232 774.503 284.496 766.832 286.284 763.854C285.846 755.213 285.803 753.449 287.998 745.129C288.235 742.303 288.414 741.426 287.742 738.646C286.027 739.323 283.742 744.953 282.82 746.871C280.708 743.902 281.974 742.17 278.456 741.244C277.091 736.223 281.735 732.267 280.13 726.637C278.145 728.611 278.432 729.726 275.614 731.55L275.048 730.941C277.645 720.715 277.479 716.764 278.013 706.248C277.264 706.566 277.106 706.952 276.539 707.631C276.625 706.519 276.689 705.403 276.818 704.295C274.873 705.854 270.697 723.577 268.076 729.512C267.717 728.562 267.871 728.982 266.694 728.236C266.547 724.082 269.021 714.174 269.231 707.439C269.65 705.043 269.682 704.707 269.261 702.317C271.309 699.524 274.372 688.854 272.905 685.929L271.979 688.152L269.632 688.15C270.017 685.181 271.299 683.894 270.384 681.73L268.069 682.268C270.491 677.604 275.663 661.474 277.321 660.136L279.014 660.565C280.492 659.002 285.7 633.618 288.044 629.53C289.677 626.685 293.64 619.186 294.652 616.221L296.494 616.221C294.791 620.424 293.778 623.027 292.557 627.425C300.954 613.38 307.369 597.971 316.885 582.608L318.032 583.048C316.835 585.253 316.625 585.727 315.876 588.115C318.537 585.888 319.75 583.41 322.006 580.589C322.433 582.375 317.428 591.296 316.289 593.206C314.849 595.592 311.82 600.344 311.913 603.048C313.131 602.582 314.167 600.336 314.705 599.143C315.481 597.393 316.238 595.634 316.975 593.867C327.956 583.969 334.774 560.85 340.475 556.818C341.645 555.85 344.185 551.933 345.198 550.461C347.283 548.656 349.618 545.33 351.348 543.054C353.604 540.987 354.866 539.03 355.77 536.151C357.642 534.909 358.237 534.215 359.016 532.166L358.287 531.226L356.271 531.257C356.785 530.161 365.368 521.806 366.65 521.342C366.607 522.076 366.604 522.648 366.602 523.379C368.409 521.903 368.992 521.529 370.998 520.396L371.544 520.131C372.477 519.668 373.298 519.093 374.162 518.514L374.141 518.705L374.877 517.559L375.057 518.309L375.138 518.355L374.463 518.543L375.095 517.816L374.943 518.183C374.457 519.373 373.683 521.191 374.024 522.463C372.496 525.252 368.269 532.403 367.781 535.095C370.571 537.672 367.338 537.91 369.912 538.809L370.185 538.764C372.028 533.547 373.084 531.379 376.332 526.901C379.63 523.553 389.281 515.179 388.523 510.072C386.428 509.773 385.842 510.545 383.615 511.62C389.023 503.382 396.558 502.382 398.587 497.967C398.233 496.435 398.151 496.257 398.272 494.712C401.821 490.523 404.817 494.985 408.024 485.6C410.032 479.726 419.479 482.314 421.374 473.841C423.788 469.785 428.838 468.186 429.992 465.159L427.949 465.241L427.408 464.331C424.765 463.399 422.935 459.234 421.255 456.974C421.25 456.968 423.875 450.816 424.073 450.175C424.085 450.135 423.548 446.967 423.525 446.831C424.507 444.939 424.583 444.619 424.933 442.511L422.699 443.938L422.088 443.632C422.613 442.22 422.707 442.082 422.754 440.598L421.076 440.334L420.668 439.475C424.578 436.312 429.456 429.081 426.299 424.065L425.17 425.135L424.609 424.853C425.102 423.625 425.096 423.664 425.208 422.346C424.209 423.197 423.584 423.656 422.502 424.398C422.311 420.313 433.025 409.005 435.489 405.233C437.334 402.408 439.465 396.354 443.048 396.594C441.867 403.676 441.098 408.436 438.105 414.932C442.48 409.776 442.457 408.146 448.645 401.885C450.819 397.02 453.015 391.155 456.986 387.612L457.931 387.577C460.096 392.897 456.151 398.719 457.843 403.006L457.52 403.42L458.566 403.703L458.43 407.749L459.204 408.427L461.678 406.084L462.107 406.159C460.554 408.795 459.506 413.293 458.99 416.336L459.563 416.346L461.572 415.756C465.197 410.419 468.737 404.336 469.966 397.981C476.8 391.204 477.21 385.126 476.877 376.488L477.643 376.072L478.937 376.951L478.941 379.188L479.369 379.411C481.082 376.201 481.926 373.891 483.183 370.524L482.527 370.395C481.85 371.56 480.476 375.126 480.161 375.397L478.689 375.206C480.578 370.945 487.269 359.401 484.677 354.936C482.098 358.429 481.983 359.146 477.947 360.775L475.968 359.905L475.58 358.624C478.714 352.353 475.32 349.69 476.287 342.815C476.727 339.603 476.74 331.898 475.601 328.775L474.425 328.347L472.246 329.787C474.062 318.869 472.826 305.403 473.688 293.814L474.959 294.873L476.072 290.157L477.481 290.839C477.92 292.075 478.308 292.851 478.887 294.03L479.592 293.818C480.271 290.578 479.956 286.291 479.86 282.902C481.361 280.844 481.189 265.615 481.268 262.236C481.305 260.651 478.613 260.503 479.002 259.402C480.211 255.981 480.757 255.248 479.366 251.656C470.448 245.889 480.248 242.025 476.191 236.987C475.694 236.957 475.305 237.117 474.836 237.271C474.366 233.937 475.853 229.567 475.443 224.589C474.856 217.459 469.236 206.321 468.82 200.772L470.8 201.739L471.344 200.658C471.391 194.521 467.891 187.808 466.041 181.878C462.248 169.723 454.254 163.983 449.86 150.97C451.921 153.291 453.963 155.628 455.986 157.981L450.781 148.379L452.432 147.08C453.667 148.753 454.32 150.379 455.917 150.703C449.438 133.828 407.952 98.1324 392.084 88.3087L392.867 88.0193C398.783 90.2793 413.096 99.6937 418.629 103.399C412.991 96.233 389.813 81.9371 381.303 78.3724C364.085 71.1608 346.537 65.4841 329.371 57.69C332.167 57.3758 334.567 57.9699 336.577 56.528C330.577 52.34 321.733 50.6525 314.596 48.91L317.379 46.6085ZM285.57 788.864C286.675 785.724 287.883 778.76 288.397 775.435L287.883 774.994L287.111 776.848C285.874 781.791 285.185 783.661 285.57 788.864ZM413.275 93.2832C408.966 88.4189 381.345 71.8412 375.084 71.4694C379.389 74.2801 411.149 92.7925 413.275 93.2832ZM289.901 766.721C292.168 762.762 294.479 749.959 293.704 745.977C292.931 749.177 288.967 764.428 289.901 766.721ZM401.45 511.273C403.657 509.259 407.191 506.542 406.552 503.198C404.501 505.565 402.766 507.369 401.338 510.194L401.45 511.273Z"/><path fill="#A4A4A8" fill-opacity="0.17254902" d="M287.111 776.848L287.883 774.994L288.397 775.435C287.883 778.76 286.675 785.724 285.57 788.864C285.185 783.661 285.874 781.791 287.111 776.848Z"/><path fill="#4D4C4D" d="M344.55 730.721C343.997 735.933 340.037 747.334 337.556 751.638C332.484 760.433 331.203 758.525 328.697 768.824L324.659 771.957C323.751 775.761 321.883 784.527 320.405 787.682L319.879 787.782L319.267 785.347C316.38 787.696 317.857 791.016 315.769 793.513C314.723 792.945 314.875 792.746 314.175 791.542C308.592 796.184 305.828 824.608 305.431 832.789C305.359 834.284 304.941 839.926 304.618 840.958L303.969 840.739L303.84 838.232C303.949 833.942 304.874 819.58 304.182 816.739C303.73 814.713 303.126 812.932 303.5 810.933C310.524 806.663 303.641 804.995 306.243 797.774C306.749 799.207 306.911 799.383 307.791 800.645L308.934 800.425C307.127 793.741 316.878 787.717 320.31 782.75C320.921 781.865 322.402 773.634 323.067 771.918C323.805 770.013 327.533 768.035 328.021 766.714C329.141 763.682 328.629 761.169 330.192 757.868L331.836 757.62C338.548 752.463 340.107 737.528 343.697 731.246L343.43 730.915L344.55 730.721Z"/><path fill="#424242" d="M286.284 763.854C285.846 755.213 285.803 753.449 287.998 745.129C292.507 758.917 282.844 767.506 284.706 775.967C285.811 776.52 285.907 776.707 287.111 776.848C285.874 781.791 285.185 783.661 285.57 788.864C284.246 788.504 283.228 786.642 282.233 785.338C284.125 783.751 284.088 779.348 283.064 777.276C282.386 777.466 281.767 777.649 281.097 777.865C281.232 774.503 284.496 766.832 286.284 763.854Z"/><path fill="#4D4C4D" d="M448.645 401.885C450.819 397.02 453.015 391.155 456.986 387.612L457.931 387.577C460.096 392.897 456.151 398.719 457.843 403.006L457.52 403.42L458.566 403.703C457.572 404.918 458.179 404.59 456.807 404.904C453.605 400.477 453.37 399.614 448.645 401.885Z"/><path fill="#373737" d="M370.185 538.764C372.028 533.547 373.084 531.379 376.332 526.901C378.76 532.357 375.783 537.278 370.185 538.764Z"/><path fill="#373737" d="M468.428 457.907C470.59 454.848 471.801 454.43 475.195 452.689L476.359 452.822L476.654 453.715L475.377 455.087L475.865 455.744C471.74 456.582 468.911 460.869 468.11 464.862C470.234 464.445 470.506 462.826 472.278 461.448C473.409 464.452 467.611 467.746 465.14 469.737L463.639 470.002C463.45 471.895 463.029 472.293 463.882 473.343C466.264 473.306 466.269 472.886 467.78 474.158C467.162 476.017 467.642 475.444 466.114 476.441L463.426 476.44C464.204 479.053 463.842 485.409 461.508 487.451C459.781 487.706 460.229 487.885 458.816 487.293C458.691 485.705 459.098 485.287 459.881 483.807C458.44 484.126 457.32 485.602 456.234 486.717C455.952 488.36 455.925 488.568 456.045 490.221C454.499 490.777 455.276 490.751 453.638 490.18C452.877 488.609 454.306 487.093 453.701 483.882C451.912 485.974 451.324 486.337 448.823 487.421L448.377 488.488C449.75 488.054 450.009 487.89 451.265 487.162L452.282 487.904C450.644 489.477 449.404 489.6 447.894 490.368C447.173 490.735 448.406 492.949 446.017 493.46L444.522 492.279L444.236 493.591L441.187 495.273L441.454 496.013L444.105 497.196L444.168 498.63C442.733 499.966 443.181 499.539 440.616 499.608L440.654 500.467L441.682 500.804C441.67 502.362 441.757 502.373 441.082 503.723C442.079 505.435 442.295 505.424 444.187 506.293L445.477 506.252C447.88 502.867 445.073 500.945 447.054 497.66L453.23 498.407L454.129 497.294L453.891 495.137L455.105 494.984C456.676 496.743 455.797 498.227 454.588 500.043C452.473 500.216 451 500.159 448.912 500.088L448.012 501.16C448.428 504.764 448.882 504.647 447.423 507.393C443.053 509.927 442.35 505.949 440.638 511.089L441.617 511.478L444.012 509.857L444.335 510.788C442.878 512.37 439.636 514.666 439.658 516.23C439.696 518.938 440.845 520.657 439.625 523.31L438.758 524.195L437.287 523.296L437.585 521.707C436.08 519.96 436.776 520.276 434.81 519.768C433.029 521.298 432.253 525.095 431.517 527.545L430.507 528.382L428.301 527.622C426.026 530.376 428.307 530.564 426.372 530.98C425.748 529.004 425.767 529.847 426.386 527.783C427.87 526.439 428.508 526.544 430.55 526.409C431.75 523.916 429.112 522.991 430.004 520.651C433.132 519.714 436.08 519.345 438.084 516.983C439.018 514.492 438.914 513.832 438.865 511.204L438.875 511.207C436.634 512.36 437.398 514.868 434.389 516.197L432.212 516.07L430.473 519.877L429.601 520.108L428.984 517.802L428.159 517.964C427.75 521.171 423.674 522.246 422.459 524.848C426.854 524.298 425.101 520.587 428.397 521.373C429.039 523.5 427.989 524.579 426.183 525.69C423.378 525.707 423.881 525.269 422.072 526.729L421.995 528.443L423.472 529.751C423.801 530.597 424.048 530.733 423.833 531.384C422.479 535.478 426.761 541.725 423.589 545.527C420.605 544.261 420.27 543.644 417.716 544.438L416.659 545.76C418.524 552.091 410.979 552.473 406.35 555.087C406.316 559.384 401.736 564.125 398.965 567.787C397.359 568.395 397.115 568.463 395.401 568.52C396.153 574.691 392.165 573.303 391.91 576.954C394.496 576.739 393.811 576.4 395.492 577.612C395.892 579.353 396.131 579.083 395.542 580.368C394.506 579.558 394.532 579.119 394.216 577.84C390.38 577.043 390.94 578.823 389.066 576.776C389.012 575.02 389.016 573.624 389.091 571.869L387.226 572.322C385.748 575.087 386.956 576.452 388.542 578.894L387.994 579.234C383.074 582.313 385.771 583.762 382.689 588.425L382.652 592.911L382.077 593.405L381.176 592.553C381.13 590.622 381.155 589.432 381.321 587.508C378.254 589.819 378.164 590.103 377.485 593.344L378.177 594.399C380.695 594.852 380.279 594.361 381.493 595.9C378.368 598.052 379.043 595.664 376.27 599.025L376.557 600.181L380.812 599.939L381.089 600.558C378.237 604.163 373.889 601.658 370.328 605.47C371.635 605.989 374.272 605.251 375.807 604.96L374.928 604.934L374.792 606.335C373.034 607.549 373.045 607.117 372.512 608.731L374.605 609.306C373.781 609.991 373.131 609.933 372.056 610.047C371.225 611.26 371.156 611.521 370.642 612.916C369.02 611.649 369.531 612.089 368.641 609.989C368.381 608.012 369.14 606.5 369.815 604.573C369.663 604.102 368.591 601.04 368.524 601.135C373.858 593.543 379.212 585.901 384.783 578.479C384.82 578.43 384.437 575.085 384.961 574.307C386.761 571.636 389.066 570.489 390.151 567.414C389.862 567.087 388.492 565.513 388.832 565.053C393.486 558.758 400.113 553.738 403.898 546.702C403.871 546.751 402.593 545.181 402.99 544.711C407.667 539.164 412.712 533.886 417.312 528.292C417.712 527.806 417.788 522.621 417.815 521.633C418.57 520.831 423.021 520.359 425.29 519.541C427.163 517.793 427.671 512.499 428.791 509.359C430.401 509.096 430.583 509.147 431.808 508.16L431.199 505.697C432.554 504.925 432.997 504.604 434.22 503.631C432.749 503.231 433.143 503.653 432.51 502.722L434.487 502.478C439.214 498.011 436.102 498.126 436.693 495.906C437.926 496.07 438.54 496.139 439.782 496.144C439.418 494.141 439.274 493.761 440.134 491.95C441.245 492.31 441.409 492.439 442.6 492.419C442.991 490.335 442.658 490.607 441.492 488.42C442.601 486.455 447.762 483.307 449.161 481.36C450.977 478.831 452.622 472.309 454.485 470.072L455.702 471.085C457.151 469.467 457.447 469.018 459.395 468.109C460.277 468.427 460.644 468.645 461.58 468.628C461.958 466.644 461.628 466.916 460.415 464.82C462.942 462.4 467.471 461.824 469.604 458.539L468.428 457.907Z"/><path fill="#4D4C4D" d="M423.472 529.751C423.801 530.597 424.048 530.733 423.833 531.384C422.479 535.478 426.761 541.725 423.589 545.527C420.605 544.261 420.27 543.644 417.716 544.438L416.659 545.76C418.524 552.091 410.979 552.473 406.35 555.087C407.478 551.95 407.8 553.429 410.196 550.481C409.308 548.745 408.642 548.226 407.292 546.862C412.914 544.062 415.058 543.737 415.452 537.59C416.164 536.459 416.781 535.362 417.247 534.108C418.997 533.091 419.756 533.287 421.712 533.374C422.801 532.402 423.025 531.152 423.472 529.751Z"/><path fill="#424242" d="M453.701 483.882C455.981 481.46 454.882 474.346 459.75 475.565C460.43 477.256 460.47 477.363 461.629 478.748C462.372 477.709 462.129 477.018 462.212 475.483L463.426 476.44C464.204 479.053 463.842 485.409 461.508 487.451C459.781 487.706 460.229 487.885 458.816 487.293C458.691 485.705 459.098 485.287 459.881 483.807C458.44 484.126 457.32 485.602 456.234 486.717C455.952 488.36 455.925 488.568 456.045 490.221C454.499 490.777 455.276 490.751 453.638 490.18C452.877 488.609 454.306 487.093 453.701 483.882Z"/><path fill="#424242" d="M395.401 568.52C395.944 566.907 394.971 566.195 395.174 565.341C396.497 559.776 400.3 554.89 406.35 555.087C406.316 559.384 401.736 564.125 398.965 567.787C397.359 568.395 397.115 568.463 395.401 568.52Z"/><path fill="#424242" d="M407.292 546.862C407.552 541.461 408.783 540.085 414.107 539.342L414.496 537.95L415.452 537.59C415.058 543.737 412.914 544.062 407.292 546.862Z"/><path fill="#2D2C2D" d="M318.66 725.158L317.986 726.131C319.103 727.848 319.813 728.593 319.658 730.673L317.433 730.693L317.233 731.604C318.684 731.557 318.965 731.456 320.269 732.163C320.437 733.799 320.516 733.921 319.816 735.341L317.886 735.825C318.582 736.876 318.3 736.312 318.295 737.841C316.693 738.607 317.511 738.542 315.758 737.943C315.57 724.415 312.601 727.334 319.797 714.907C318.75 713.743 318.824 713.467 318.577 711.841C319.854 708.506 321.399 708.013 324.544 705.918L324.726 704.733L322.654 703.788L322.47 702.93C329.822 695.605 326.828 694.566 329.008 685.038C329.181 684.284 330.411 684.101 331.198 683.815L331.638 681.239C331.126 679.957 331.076 679.888 330.181 678.804L329.964 678.545C330.396 673.033 332.875 676.101 335.213 672.695C334.876 671.372 334.613 670.18 334.34 668.842C335.252 666.905 335.877 666.496 337.471 665.11C338.543 668.031 337.395 670.33 336.545 673.452L335.751 675.68L336.405 676.462L337.248 676.124C337.936 673.789 337.421 674.471 339.012 673.085L340 673.317C340.388 674.854 339.448 675.607 338.412 677.389L336.815 678.269L337.579 680.377C339.029 679.467 339.673 678.06 340.602 676.566C341.257 677.721 341.032 678.215 340.826 679.537L339.088 681.619C339.553 682.643 340.065 682.848 340.997 683.475L340.493 684.658C338.884 684.075 338.79 683.219 337.698 681.495C335.707 683.438 336.201 688.007 334.857 688.399C333.606 682.698 337.014 683.523 334.884 679.742L334.036 679.594C332.875 682.743 332.936 686.696 332.062 687.768L330.449 688.325C329.262 692.663 332.457 692.324 330.841 694.884C330.039 694.536 329.363 694.23 328.581 693.839C327.798 695.902 325.476 704.553 325.739 706.435C327.129 705.554 327.209 705.393 328.27 704.101C327.802 708.872 323.008 708.681 323.526 717.355L322.962 717.658L321.185 715.506C321.176 717.213 321.214 717.411 322.107 718.864L325.347 719.137L326.121 720.114C325.105 722.263 322.361 723.838 320.318 725.283L318.66 725.158Z"/><path fill="#424242" d="M322.107 718.864L325.347 719.137L326.121 720.114C325.105 722.263 322.361 723.838 320.318 725.283L318.66 725.158C318.976 721.859 319.897 721.19 322.107 718.864Z"/><path fill="#2D2C2D" d="M350.49 636.661L349.677 634.906C352.69 624.94 353.375 628.091 358.586 621.698L356.775 619.772L357.175 618.559C362.549 615.464 359.967 615.401 362.094 610.24C362.239 609.887 368.882 604.987 369.815 604.573C369.14 606.5 368.381 608.012 368.641 609.989C367.519 612.386 363.291 619.72 363.423 621.189L365.4 623.581L365.225 624.534L360.755 623.858C359.453 627.949 361.508 627.441 356.998 630.064C356.627 631.094 352.92 641.923 353.688 641.587C344.269 645.703 349.927 651.71 347.293 656.103C345.783 656.589 345.81 656.531 344.195 656.442C344.075 658.229 344.267 658.455 344.922 660.181C344.337 661.854 344.846 661.205 343.303 662.158C340.243 662.995 340.149 664.198 338.205 664.855C337.938 657.12 345.015 649.125 347.543 642.458C348.911 638.851 348.043 640.202 350.49 636.661Z"/><path fill="#F3F0F0" fill-opacity="0.047058824" d="M375.084 71.4694C381.345 71.8412 408.966 88.4189 413.275 93.2832C411.149 92.7925 379.389 74.2801 375.084 71.4694Z"/><path fill="#2D2C2D" d="M460.415 464.82C460.36 463.115 460.169 462.377 460.899 460.905L462.632 460.805C463.821 459.439 463.343 455.853 463.342 453.578C466.276 451.256 465.931 454.306 470.871 451.398L471.368 452.156C471.048 453.471 467.979 455.801 466.526 457.272L468.428 457.907L469.604 458.539C467.471 461.824 462.942 462.4 460.415 464.82Z"/><path fill="#373737" d="M338.205 664.855C340.149 664.198 340.243 662.995 343.303 662.158C344.385 663.746 344.466 664.192 344.994 666.053C343.661 667.908 341.536 666.871 338.874 669.32C339.271 669.917 339.441 670.287 339.544 670.998C338.52 671.708 337.237 672.468 336.545 673.452C337.395 670.33 338.543 668.031 337.471 665.11L338.205 664.855Z"/><path fill="#F3F0F0" fill-opacity="0.019607844" d="M293.704 745.977C294.479 749.959 292.168 762.762 289.901 766.721C288.967 764.428 292.931 749.177 293.704 745.977Z"/><path fill="#424242" d="M403.091 562.617C405.496 563.453 406.696 564.194 407.876 566.157L407.081 568.302C405.099 568.074 403.681 568.12 402.04 567.037C401.677 564.763 401.996 565.067 403.091 562.617Z"/><path fill="#D0D0D1" fill-opacity="0.06666667" d="M406.552 503.198C407.191 506.542 403.657 509.259 401.45 511.273L401.338 510.194C402.766 507.369 404.501 505.565 406.552 503.198Z"/><path fill="#2D2C2D" d="M291.801 877.192C292.05 876.817 292.771 873.702 292.943 873.042C294.311 871.458 295.484 871.336 297.471 870.795L297.66 871.468C298.469 874.412 298.958 880.414 299.815 882.088C300.131 881.065 300.257 880.94 300.284 879.863L303.828 880.758C304.266 880.832 304.952 880.749 305.431 880.721L306.08 878.69L306.987 878.325C308.417 887.177 308.789 887.424 313.134 895.225C320.953 909.264 316.573 923.174 312.894 938.591C309.086 940.95 311.196 946.206 311.099 951.011C311.591 957.929 311.77 959.955 310.459 966.705L310.218 963.63C309.312 967.405 309.277 968.364 309.299 972.279C310.203 973.68 309.606 973.301 310.882 973.79L310.849 974.638C310.218 975.801 309.946 976.504 310.494 978.064C312.02 982.411 312.698 991.163 312.421 995.75C311.705 992.047 309.582 978.306 308.688 975.784C307.532 966.134 304.587 962.622 303.882 949.554L302.605 947.101L301.932 946.942L301.052 950.392C295.895 950.537 298.353 949.063 295.456 946.93L294.412 947.189C294.535 949.222 294.405 950.552 294.243 952.548L293.517 952.889C292.338 949.555 293.79 948.411 292.598 945.86L290.849 946.373L288.758 944.866C288.733 943.072 288.903 942.033 287.991 940.498C286.413 942.122 285.08 946.067 285.293 948.318C283.947 947.188 284.292 945.907 284.054 943.642C284.379 940.215 282.649 936.895 281.159 933.738L281.218 933.353L280.775 932.836L277.315 933.473C277.464 926.24 270.421 903.887 270.884 901.479L272.254 901.046C272.132 897.8 268.605 883.855 274.762 884.216C276.396 886.681 275.912 887.222 276.184 890.595L276.843 891.364C278.195 891.06 279.595 891.648 280.97 892.053C282.11 893.386 282.666 900.82 283.044 903.446C283.474 901.256 282.697 898.673 282.781 896.277C282.899 892.932 284.092 889.257 285.016 886.016C287.601 886.375 287.25 887.482 289.502 887.466L290.368 885.291L291.801 877.192Z"/><path fill="#4D4C4D" d="M303.882 949.554C305.75 950.074 306.577 950.272 308.292 951.157L308.618 952.13L307.889 952.455L306.05 950.967C304.659 953.195 304.558 958.33 306.918 960.411C309.444 960.38 308.614 960.709 310.412 959.469C311.472 954.92 308.109 955.382 311.099 951.011C311.591 957.929 311.77 959.955 310.459 966.705L310.218 963.63C309.312 967.405 309.277 968.364 309.299 972.279C310.203 973.68 309.606 973.301 310.882 973.79L310.849 974.638C310.218 975.801 309.946 976.504 310.494 978.064C312.02 982.411 312.698 991.163 312.421 995.75C311.705 992.047 309.582 978.306 308.688 975.784C307.532 966.134 304.587 962.622 303.882 949.554Z"/><path fill="#424242" d="M272.254 901.046C272.132 897.8 268.605 883.855 274.762 884.216C276.396 886.681 275.912 887.222 276.184 890.595L274.865 891.049C273.12 895.187 272.324 896.532 272.254 901.046Z"/><path fill="#2D2C2D" d="M380.125 1176.03C384.797 1183.33 395.05 1204.65 398.799 1208.98C397.621 1205.81 396.144 1202.4 395.852 1199.06C398.96 1206.25 400.251 1209.65 402.238 1217.18C402.025 1220.25 400.9 1222.95 401.55 1224.94C403.248 1230.47 405.099 1237.16 407.567 1242.28C405.531 1239.16 403.402 1235.75 401.213 1232.77C403.883 1243.66 407.767 1252.42 413.077 1262.31C409.779 1258.24 405.633 1252.84 402.024 1249.23C403.382 1253.84 403.768 1254.83 405.657 1259.03C407.509 1263.14 415.596 1273.79 416.053 1276.38C414.52 1275.32 413.678 1273.72 412.629 1272.13C411.599 1270.35 408.806 1265.5 407.159 1264.93L407.306 1266.52C407.294 1269.43 406.819 1270.04 408.071 1272.21L409.652 1273L409.837 1274.25L408.788 1274.63L406.249 1271.64L404.86 1271.78C398.906 1264.68 381.462 1240.68 378.448 1232.75L379.473 1232.47L382.577 1234.53C376.909 1221.63 371.28 1210.4 365.215 1197.75L365.67 1198.16C368.98 1201.19 367.38 1201.08 369.186 1203.48C369.673 1202.34 370.13 1201.2 370.556 1200.04L371.785 1199.64L374.032 1203.6C376.328 1207.62 377.998 1210.54 380.719 1214.3C380.838 1212.16 376.574 1205.3 375.236 1203.13L369.559 1190.87L370.545 1188.55C372.446 1190.8 374.3 1193.09 376.106 1195.41C376.207 1193.91 374.87 1191.9 374.104 1190.46L375.956 1188.52C376.773 1184.9 377.121 1185.43 380.455 1184.74L382.565 1188C383.491 1189.96 384.526 1192.87 386.216 1193.86C386.066 1191.59 384.783 1189.96 383.573 1187.94C382.611 1184.81 380.191 1179.69 378.813 1176.54L380.125 1176.03Z"/><path fill="#F3F0F0" fill-opacity="0.019607844" d="M299.29 1006.11L300.109 1008.53C303.363 1002.72 298.61 986.711 296.387 980.407C295.676 978.391 294.292 976.329 293.536 974.162C298.109 968.196 291.479 961.311 296.041 958.138L297.329 958.685L298.354 961.38L299.493 960.928C303.152 962.966 299.166 971.536 299.995 973.905L302.467 972.136L303.173 972.292C303.282 974.543 302.401 976.592 301.694 978.78C303.269 983.888 305.661 992.755 307.348 997.255L307.795 996.416C307.717 992.54 307.878 987.884 306.756 984.252C310.196 981.245 307.438 979.376 308.688 975.784C309.582 978.306 311.705 992.047 312.421 995.75L312.642 997.079C311.677 998.423 311.593 998.462 310.206 999.403C308.201 1004.74 309.659 1006.88 311.909 1011.9C312.223 1016.01 315.247 1029.03 316.154 1034.29L316.257 1034.82C317.35 1040.52 317.401 1054 318.271 1056.83C319.433 1055.6 319.213 1054.34 319.481 1052.33C319.732 1054.77 319.885 1056.88 320.504 1059.26L321.175 1059.73L321.677 1056.07C322.827 1057.01 322.97 1057.78 323.555 1059.2C322.842 1064.31 320.819 1060.97 320.996 1065.96L321.979 1067.13L323.951 1066.87C325.857 1069.7 324.288 1069.75 325.144 1070.6L325.264 1069.09L325.547 1068.96C325.569 1069.49 327.357 1074.41 327.577 1074.76C326.795 1078.66 328.68 1081.09 327.919 1083.07C326.502 1083.92 326.081 1083.9 324.417 1084.21C317.902 1067.5 310.079 1040.27 306.61 1022.76L305.207 1023.29C304.441 1022.75 303.786 1022.17 303.073 1021.56L302.246 1022.17C302.647 1024.24 302.836 1025.01 302.793 1027.15L301.785 1027.56L301.271 1028.96C297.96 1025.64 298.351 1016.67 298.537 1012.1C294.748 1007.41 297.259 1010.34 299.29 1006.11Z"/><path fill="#4D4C4D" fill-opacity="0.98823529" d="M323.484 1023.44L324.524 1022.84C326.743 1029.31 325.688 1032.68 326.436 1038.67C323.611 1036.45 325.875 1035.46 323.784 1034.47C323.306 1050.09 323.813 1049.18 328.441 1064.14C328.017 1058.78 326.386 1053.77 325.438 1048.71C325.362 1048.31 328.064 1044.74 327.109 1039.04C327.553 1039.46 328.095 1039.97 328.734 1040.57C332.305 1055.55 334.506 1076.88 335.598 1091.54C334.274 1093.1 333.509 1092.96 331.329 1093.71L330.522 1092.93C330.545 1089.2 332.423 1089.61 331.085 1085.53C329.924 1081.99 328.624 1078.32 327.577 1074.76C327.357 1074.41 325.569 1069.49 325.547 1068.96L325.264 1069.09L325.144 1070.6C324.288 1069.75 325.857 1069.7 323.951 1066.87L321.979 1067.13L320.996 1065.96C320.819 1060.97 322.842 1064.31 323.555 1059.2C322.97 1057.78 322.827 1057.01 321.677 1056.07L321.175 1059.73L320.504 1059.26C319.885 1056.88 319.732 1054.77 319.481 1052.33C319.213 1054.34 319.433 1055.6 318.271 1056.83C317.401 1054 317.35 1040.52 316.257 1034.82L316.154 1034.29L317.205 1034.21C317.589 1035.05 318.067 1035.69 318.572 1036.46L319.348 1036.41C319.311 1035.17 319.036 1033.89 319.624 1033.05C320.299 1034.17 320.704 1035.02 321.268 1036.2C322.149 1035.02 322.231 1034.64 322.765 1033.25L321.984 1032.72C321.94 1031.67 323.256 1025.84 323.484 1023.44Z"/><path fill="#4D4C4D" d="M290.849 946.373L292.598 945.86C293.79 948.411 292.338 949.555 293.517 952.889L294.243 952.548C294.405 950.552 294.535 949.222 294.412 947.189L295.456 946.93C298.353 949.063 295.895 950.537 301.052 950.392C303.272 953.57 305.7 978.27 306.756 984.252C307.878 987.884 307.717 992.54 307.795 996.416L307.348 997.255C305.661 992.755 303.269 983.888 301.694 978.78C302.401 976.592 303.282 974.543 303.173 972.292L302.467 972.136L299.995 973.905C299.166 971.536 303.152 962.966 299.493 960.928L298.354 961.38L297.329 958.685L296.041 958.138C291.479 961.311 298.109 968.196 293.536 974.162C294.292 976.329 295.676 978.391 296.387 980.407C298.61 986.711 303.363 1002.72 300.109 1008.53L299.29 1006.11C299.194 1003.56 295.939 984.3 295.282 981.978C290.592 978.421 292.472 976.915 293.523 971.155L291.888 970.925C291.053 967.332 289.97 964.048 288.856 960.545L289.341 963.616C288.93 962.439 288.538 961.254 288.168 960.062C285.469 951.275 287.47 952.884 290.678 946.711L290.849 946.373Z"/><path fill="#4D4C4D" d="M287.959 852.499L288.96 852.312C288.573 857.229 287.122 862.296 285.71 867.023C289.86 863.193 291.458 862.759 290.574 856.83C291.571 857.151 294.632 858.174 295.554 858.299L297.07 863.101C297.207 865.651 297.374 868.248 297.471 870.795C295.484 871.336 294.311 871.458 292.943 873.042C292.771 873.702 292.05 876.817 291.801 877.192C291.578 875.022 291.739 872.635 290.497 871.27L289.871 871.821L290.08 871.114L290.691 872.031L289.718 872.142C288.971 878.1 289.181 879.398 290.368 885.291L289.502 887.466C287.25 887.482 287.601 886.375 285.016 886.016C283.958 883.797 284.514 886.035 282.255 884.628C283.64 881.677 286.081 880.992 286.406 877.835C285.861 876.18 286.217 876.351 285.071 875.65L283.541 879.816L282.765 878.236C282.03 878.398 281.297 878.566 280.565 878.741C280.975 877.617 282.94 874.636 282.994 874.066C283.634 867.315 284.781 861.319 286.479 854.769C286.796 853.55 287.24 853.366 287.959 852.499Z"/><path fill="#4D4C4D" d="M423.525 446.831C423.548 446.967 424.085 450.135 424.073 450.175C423.875 450.816 421.25 456.968 421.255 456.974C422.935 459.234 424.765 463.399 427.408 464.331L427.949 465.241L427.054 464.906C425.088 465.608 422.64 465.856 420.656 465.138C422.036 463.681 422.286 463.054 423.205 461.254L422.558 460.749C419.874 462.663 403.004 482.368 402.445 484.923L401.63 488.523C400.902 486.922 401.324 487.211 400.045 486.561L396.788 489.069L396.562 488.597L400.519 482.184C398.341 484.646 395.663 486.685 393.827 489.432C394.123 486.113 398.17 481.372 399.861 478.644C401.061 476.707 400.642 473.766 402.484 472.448C403.969 473.249 404.033 473.34 405.648 473.168C410.309 469.325 410.141 465.91 412.552 463.309C414.052 462.059 415.924 460.217 417.399 458.852C419.678 456.726 420.26 451.914 423.525 446.831Z"/><path fill="#424242" d="M262.2 848.308C263.704 853.499 264.397 879.414 263.566 885.932C263.328 887.797 262.184 891.184 261.492 893.055C262.434 897.481 262.889 900.242 261.847 904.643L260.898 905.113C261.68 895.191 257.105 879.493 258.036 868.935C258.6 862.543 260.76 854.649 262.2 848.308Z"/><path fill="#2D2C2D" fill-opacity="0.98823529" d="M257.999 901.019C259.333 904.855 261.125 918.848 263.648 919.83C266.004 915.134 262.311 907.8 263.511 905.576L265.726 907.997C267.253 907.355 266.803 905.9 268.374 903.87L269.996 905.448C269.811 907.265 268.532 907.848 266.88 909.43C265.431 913.162 267.812 919.145 267.974 924.273C266.969 926.6 268.195 930.48 268.763 933.146L269.478 933.986C271.471 930.502 269.696 929.064 272.306 926.206L273.162 926.047C273.039 927.179 272.167 938.005 272.143 938.058L270.901 935.527L270.073 935.535C269.957 941.19 273.093 937.108 270.069 946.61C270.521 943.72 268.831 936.804 267.381 934.121C266.661 931.74 265.481 925.97 264.614 924.495C264.714 928.661 265.155 931.806 266.428 935.816L265.573 937.202C261.322 926.04 257.488 912.974 257.999 901.019Z"/><path fill="#4D4C4D" fill-opacity="0.98431373" d="M278.456 741.244C281.974 742.17 280.708 743.902 282.82 746.871C281.183 750.155 280.658 751.301 279.68 754.808L280.314 755.361C281.479 754.788 282.446 754.281 283.577 753.642L283.573 755.373C282.706 755.967 282.085 756.422 281.26 757.072C280.387 765.439 279.883 773.734 277.845 781.916C277.395 783.722 276.84 785.807 276.519 787.619L274.866 786.79C274.342 781.327 274.91 781.201 275.829 776.022C277.321 770.423 276.986 767.748 276.575 762.096C277.144 761.018 278.234 759.181 278.447 758.058L277.218 756.8L277.538 756.72L275.575 755.586C275.491 753.706 277.641 743.516 278.456 741.244Z"/><path fill="#4D4C4D" fill-opacity="0.98823529" d="M372.083 1230.28C380.881 1243 389.488 1255.79 399.047 1267.94C402.871 1272.81 406.582 1277.86 410.307 1282.8C412.381 1285.55 415.8 1288.75 417.348 1291.62L416.828 1291.9L416.047 1291.38C412.531 1286.56 406.867 1281.53 402.908 1276.93C397.327 1270.45 390.219 1261.76 385.699 1254.6C380.796 1246.98 375.635 1239.24 371.29 1231.32L372.083 1230.28Z"/><path fill="#4D4C4D" fill-opacity="0.96862745" d="M305.207 1023.29L306.61 1022.76C310.079 1040.27 317.902 1067.5 324.417 1084.21C326.427 1091.97 330.915 1102.91 333.891 1110.56C327.997 1104.57 303.105 1029.52 305.207 1023.29Z"/><path fill="#424242" d="M254.978 872.63L255.842 873.79C255.773 876.731 255.558 890.837 255.138 892.971C254.42 889.467 253.784 886.402 252.82 882.937C251.202 886.514 253.671 911.267 254.241 916.944C254.65 919.528 254.869 921.531 255.078 924.14C252.413 919.852 246.476 886.354 248.571 882.313C255.34 880.572 254.812 879.294 254.978 872.63Z"/><path fill="#4D4C4D" d="M370.998 520.396C371.263 518.81 371.432 519.24 370.83 518.03L368.199 520.362L367.965 519.741C374.341 511.491 382.835 502.448 390.44 495.324C387.676 499.765 384.27 504.41 381.232 508.723L381.766 509.019L384.274 507.328L384.631 507.932C384.092 509.265 383.807 510.193 383.615 511.62C381.683 514.225 376.589 520.701 374.024 522.463C373.683 521.191 374.457 519.373 374.943 518.183L375.095 517.816L374.463 518.543L375.138 518.355L375.057 518.309L374.877 517.559L374.141 518.705L374.162 518.514C373.298 519.093 372.477 519.668 371.544 520.131L370.998 520.396Z"/><path fill="#4D4C4D" fill-opacity="0.98823529" d="M374.104 1190.46C372.559 1185.31 368.629 1175.69 366.484 1170.45C366.272 1169.93 363.067 1166.94 361.738 1164.77L362.255 1164.34L364.003 1166.5C367.933 1167.1 367.316 1169.8 369.645 1173.44L370.089 1173.01C369.842 1169.77 367.713 1165.49 366.004 1162.76L365.627 1162.17C365.971 1159.73 364.699 1160.15 364.392 1157.35C365.624 1158.06 374.827 1174.16 375.855 1176.59C371.06 1180.16 375.798 1183.54 375.956 1188.52L374.104 1190.46Z"/><path fill="#69686A" d="M396.392 1275.16C389.163 1268.63 379.542 1256.67 374.759 1248.19L375.077 1247.47L376.407 1248.62C376.015 1247.19 375.594 1245.78 375.144 1244.37L384.508 1255.56L397.344 1274.78L396.392 1275.16Z"/><path fill="#F3F0F0" fill-opacity="0.011764706" d="M385.699 1254.6C390.219 1261.76 397.327 1270.45 402.908 1276.93C406.867 1281.53 412.531 1286.56 416.047 1291.38L414.749 1291.91C411.437 1289.78 408.593 1287.4 405.54 1284.93L405.518 1283.79L404.779 1284.28C402.831 1279.95 401.1 1277.74 397.344 1274.78L384.508 1255.56L385.699 1254.6Z"/><path fill="#F3F0F0" fill-opacity="0.031372551" d="M290.102 823.331C290.923 832.405 290.347 834.506 289.218 843.665C288.901 846.234 289.753 847.656 288.96 852.312L287.959 852.499L285.608 850.418C282.963 850.649 282.393 850.556 279.824 850.169L279.982 849.601C281.178 849.58 281.608 849.688 282.588 848.993C282.67 845.799 281.542 849.381 280.441 844.579C282.56 842.266 279.704 843.615 284.09 840.597C284.437 842.242 283.675 843.184 284.249 845.274C285.721 844.686 286.253 843.625 287.215 842.312C287.87 838.869 287.125 836.044 287.533 834.128C288.377 830.6 289.349 826.856 290.102 823.331Z"/><path fill="#F3F0F0" fill-opacity="0.019607844" d="M397.4 72.498C402.961 75.8078 409.583 79.4811 415.695 81.5539L416.244 81.201L417.509 79.8763C418.718 81.4165 431.142 91.3287 433.04 92.57L438.088 97.4873C424.342 89.9142 410.971 80.953 396.795 74.2082L397.4 72.498Z"/><path fill="#4D4C4D" fill-opacity="0.97647059" d="M472.275 342.175L473.487 343.161C474.356 350.746 470.563 360.508 469.373 368.377C469.234 369.295 466.188 374.081 465.482 375.191C464.354 376.225 463.409 376.99 462.208 377.939C462.088 375.917 465.213 371.644 465.783 368.854C467.57 360.11 470.473 350.728 472.275 342.175Z"/><path fill="#373737" d="M276.519 787.619L278.086 788.566C279.886 786.764 278.428 785.969 279.311 783.074C282.288 787.164 278.07 798.699 274.856 801.778L273.395 801.323C273.141 799.395 273.242 797.154 272.895 795.425C271.272 796.68 270.795 799.386 269.472 801.907L268.89 801.918C269.02 799.009 270.445 795.352 272.682 793.424C272.533 792.417 272.646 792.424 273.084 791.477L274.866 786.79L276.519 787.619Z"/><path fill="#4D4C4D" fill-opacity="0.96862745" d="M280.441 844.579L279.784 843.418C280.727 840.198 283.537 823.013 282.079 820.792L281.501 820.811L281.28 824.375L281.294 824.337L280.808 825.322C278.192 823.139 279.067 820.142 281.067 817.79C283.927 816.639 281.071 817.628 284.186 818.917L284.698 819.267C282.883 822.108 282.522 839.99 282.775 844.103C284.009 840.071 285.898 835.609 284.601 831.597C285.447 832.315 286.78 833.374 287.533 834.128C287.125 836.044 287.87 838.869 287.215 842.312C286.253 843.625 285.721 844.686 284.249 845.274C283.675 843.184 284.437 842.242 284.09 840.597C279.704 843.615 282.56 842.266 280.441 844.579Z"/><path fill="#4D4C4D" d="M407.306 1266.52L411.261 1272.75C415.883 1279.06 420.282 1286.47 425.208 1293.25L425.052 1293.9C416.463 1285.08 412.283 1281.89 404.86 1271.78L406.249 1271.64L408.788 1274.63L409.837 1274.25L409.652 1273L408.071 1272.21C406.819 1270.04 407.294 1269.43 407.306 1266.52Z"/><path fill="#F3F0F0" fill-opacity="0.0078431377" d="M301.052 950.392L301.932 946.942L302.605 947.101L303.882 949.554C304.587 962.622 307.532 966.134 308.688 975.784C307.438 979.376 310.196 981.245 306.756 984.252C305.7 978.27 303.272 953.57 301.052 950.392Z"/><path fill="#69686A" fill-opacity="0.98823529" d="M277.315 933.473L280.775 932.836L281.218 933.353L281.159 933.738C280.871 937.562 280.59 939.861 281.304 943.701C282.037 949.534 283.618 964.699 285.183 969.714L284.222 971.091C281.725 957.872 279.185 946.877 277.315 933.473Z"/><path fill="#F3F0F0" fill-opacity="0.027450981" d="M300.681 1039.11C300.512 1036.58 300.032 1033.58 300.995 1031.34C303.785 1032.27 306.467 1044.46 306.015 1047.8C305.772 1049.69 305.269 1051.53 306.047 1053.16C305.572 1054.42 305.382 1055.41 304.464 1056.32C303.424 1049.65 302.713 1045.52 300.681 1039.11Z"/><path fill="#373737" d="M250.919 846.978C251.192 847.571 252.11 854.431 252.647 856.577L252.832 856.185C254.895 862.74 253.87 869.667 251.437 875.952C251.141 875.495 250.917 875.177 250.601 874.742L251.143 873.342C252.305 869.964 252.239 869.56 250.883 866.771L250.061 867.104C249.23 868.897 249.27 870.406 249.106 872.385C249.208 863.941 250.576 855.96 250.919 846.978Z"/><path fill="#F3F0F0" fill-opacity="0.011764706" d="M472.246 329.787L474.425 328.347L475.601 328.775C476.74 331.898 476.727 339.603 476.287 342.815L475.596 340.176C474.364 340.623 472.46 340.675 471.104 340.785L470.193 339.845C469.98 335.534 471.02 334.012 472.246 329.787Z"/><path fill="#4D4C4D" fill-opacity="0.97254902" d="M270.594 855.722L269.999 854.72C272.422 851.235 270.627 826.545 272.725 818.286C274.326 819.73 272.044 825.3 273.666 829.129L277.086 830.076L277.567 831.095C276.084 832.185 276.468 832.288 275.146 832.097L274.886 830.546L274.321 830.742C272.05 839.747 273.127 845.885 272.184 855.371L270.594 855.722Z"/><path fill="#D0D0D1" fill-opacity="0.050980393" d="M458.43 407.749C459.829 404.446 463.586 401.229 466.274 398.986C467.938 398.911 468.012 398.851 469.576 398.158L469.966 397.981C468.737 404.336 465.197 410.419 461.572 415.756C462.825 409.672 466.415 403.182 470.102 398.278C459.282 407.462 465.082 406.147 459.563 416.346L458.99 416.336C459.506 413.293 460.554 408.795 462.107 406.159L461.678 406.084L459.204 408.427L458.43 407.749Z"/><path fill="#F3F0F0" fill-opacity="0.023529412" d="M298.432 838.016C298.647 843.597 297.908 847.132 298.644 852.872L299.405 853.546C299.529 856.163 300.027 862.293 299.504 864.547L298.847 864.714L297.349 861.208C297.255 861.732 297.059 862.607 297.07 863.101L295.554 858.299C296.635 854.41 296.98 853.444 295.742 849.536C295.335 850.135 295.504 850.672 295.502 851.558C294.929 846.888 297.093 843.016 298.432 838.016Z"/><path fill="#D0D0D1" fill-opacity="0.086274512" d="M327.109 1039.04C328.064 1044.74 325.362 1048.31 325.438 1048.71C326.386 1053.77 328.017 1058.78 328.441 1064.14C323.813 1049.18 323.306 1050.09 323.784 1034.47C325.875 1035.46 323.611 1036.45 326.436 1038.67L327.109 1039.04Z"/><path fill="#4D4C4D" d="M457.843 403.006C463.757 397.808 461.094 395.556 467.748 391.272C468.35 392.565 465.826 393.766 465.587 396.955C466.961 396.875 469.603 394.488 471.625 393.466C470.894 395.132 470.512 396.243 469.966 397.981L469.576 398.158C468.012 398.851 467.938 398.911 466.274 398.986C463.586 401.229 459.829 404.446 458.43 407.749L458.566 403.703L457.52 403.42L457.843 403.006Z"/><path fill="#F3F0F0" fill-opacity="0.011764706" d="M360.92 1140.93C365.308 1145.42 369.39 1148.89 367.528 1156.18L366.804 1156.26C364.795 1153.53 362.918 1150.1 361.407 1147.05C359.772 1143.75 359.834 1144.12 360.92 1140.93Z"/><path fill="#373737" fill-opacity="0.96862745" d="M523.318 329.592C526.003 324.154 527.703 307.796 528.007 301.523C529.752 310.748 527.652 315.859 527.192 325.204C527.129 327.601 527.199 330.597 526.539 332.828C524.04 331.229 524.906 333.218 522.807 331.892L523.318 329.592Z"/><path fill="#D0D0D1" fill-opacity="0.11764706" d="M317.302 1024.9C317.335 1025.5 318.918 1017.38 319.066 1016.39L319.537 1016.19L320.526 1019.67C320.811 1017.48 320.424 1012.99 321.333 1011.65C322.507 1014.54 322.887 1019.92 323.208 1023.19C322.206 1024.95 322.448 1025.25 320.982 1025.91L319.531 1025.11C318.92 1027.57 319.143 1028.34 319.509 1030.77C317.216 1028.72 317.258 1027.92 317.302 1024.9Z"/><path fill="#4D4C4D" fill-opacity="0.97254902" d="M389.986 1176.99C394.578 1180 402.538 1201.02 404.607 1206.5C403.822 1206.86 404.25 1206.78 403.278 1206.47C397.628 1195.77 395.013 1187.21 389.986 1176.99Z"/><path fill="#4D4C4D" fill-opacity="0.98431373" d="M365.215 1197.75C364.211 1195.94 364.439 1194.73 363.368 1192.09L363.68 1190.38C368.029 1189.56 370.306 1196.36 371.785 1199.64L370.556 1200.04C370.13 1201.2 369.673 1202.34 369.186 1203.48C367.38 1201.08 368.98 1201.19 365.67 1198.16L365.215 1197.75Z"/><path fill="#2D2C2D" d="M417.509 79.8763C424.132 81.6852 430.111 85.3334 435.728 89.2037L433.669 89.7605L433.04 92.57C431.142 91.3287 418.718 81.4165 417.509 79.8763Z"/><path fill="#F3F0F0" fill-opacity="0.054901961" d="M339.765 1086.27C342.825 1090.01 340.812 1098.07 337.882 1101.07L337.046 1100.71L337.07 1097.88L336.248 1097.44C335.768 1098.85 335.124 1100.32 334.555 1101.71L334.043 1101.64C333.965 1091.74 339.742 1095.95 339.765 1086.27Z"/><path fill="#4D4C4D" d="M271.437 778.769L272.752 779.818C273.073 783.086 273.525 788.314 273.084 791.477C272.646 792.424 272.533 792.417 272.682 793.424C270.999 793.759 270.473 793.941 268.785 793.82C266.287 788.979 271.913 786.988 271.478 779.41L271.437 778.769Z"/><path fill="#F3F0F0" fill-opacity="0.015686275" d="M323.208 1023.19L323.484 1023.44C323.256 1025.84 321.94 1031.67 321.984 1032.72L322.765 1033.25C322.231 1034.64 322.149 1035.02 321.268 1036.2C320.704 1035.02 320.299 1034.17 319.624 1033.05C319.036 1033.89 319.311 1035.17 319.348 1036.41L318.572 1036.46C318.067 1035.69 317.589 1035.05 317.205 1034.21C316.746 1030.46 315.752 1028.05 317.056 1024.75L317.302 1024.9C317.258 1027.92 317.216 1028.72 319.509 1030.77C319.143 1028.34 318.92 1027.57 319.531 1025.11L320.982 1025.91C322.448 1025.25 322.206 1024.95 323.208 1023.19Z"/><path fill="#F3F0F0" fill-opacity="0.015686275" d="M271.437 778.769C272.439 776.559 273.995 770.82 274.759 768.271L275.349 769.361L274.991 768.063C276.019 769.847 275.793 773.749 275.829 776.022C274.91 781.201 274.342 781.327 274.866 786.79L273.084 791.477C273.525 788.314 273.073 783.086 272.752 779.818L271.437 778.769Z"/><path fill="#424242" d="M300.284 879.863C300.285 877.806 302.881 861.526 303.43 859.022C304.067 860.204 303.955 865.48 303.983 867.178C303.972 871.07 303.801 876.421 303.989 880.195L303.828 880.758L300.284 879.863Z"/><path fill="#4D4C4D" fill-opacity="0.85882354" d="M311.909 1011.9C312.202 1009.66 312.243 1005.43 312.776 1003.85C313.354 1016.25 313.201 1013.54 317.056 1024.75C315.752 1028.05 316.746 1030.46 317.205 1034.21L316.154 1034.29C315.247 1029.03 312.223 1016.01 311.909 1011.9Z"/><path fill="#2D2C2D" fill-opacity="0.98823529" d="M285.477 1022.09L285.782 1022.24C287.5 1025.19 291.559 1042.07 291.916 1046.1C292.01 1047.16 291.503 1053.12 291.425 1054.92C290.321 1052.97 291.213 1050.98 290.592 1047.82C288.909 1039.24 287.189 1030.66 285.477 1022.09Z"/><path fill="#69686A" fill-opacity="0.94117647" d="M351.062 1134.69L352.468 1135.51L354.35 1134.68C355.727 1137.08 353.746 1139.57 354.718 1141.22C357.45 1145.84 360.532 1151.06 363.513 1155.51L363.822 1156.04L361.545 1155.88C361.143 1155.59 360.654 1155.23 360.076 1154.81C357.518 1147.75 353.827 1141.88 351.062 1134.69Z"/><path fill="#373737" fill-opacity="0.92941177" d="M304.464 1056.32C303.197 1055.32 295.839 1028.24 296.478 1026.09L296.098 1025.54C297.861 1029.1 299.351 1035.05 300.681 1039.11C302.713 1045.52 303.424 1049.65 304.464 1056.32Z"/><path fill="#4D4C4D" fill-opacity="0.91764706" d="M369.559 1190.87C366.645 1185.02 359.123 1170.52 357.444 1164.99L357.854 1164.67C358.321 1165.16 369.206 1186.02 370.545 1188.55L369.559 1190.87Z"/><defs><linearGradient id="gradient_0" gradientUnits="userSpaceOnUse" x1="266.90549" y1="924.97229" x2="272.36993" y2="928.34711"><stop offset="0" stop-color="#F6F3F4" stop-opacity="0"/><stop offset="1" stop-color="#E7E6E3" stop-opacity="0.027450981"/></linearGradient></defs><path fill="url(#gradient_0)" d="M267.974 924.273C269.155 922.374 268.95 921.973 270.743 921.263C272.133 922.659 271.714 922.018 272.108 924.153L272.306 926.206C269.696 929.064 271.471 930.502 269.478 933.986L268.763 933.146C268.195 930.48 266.969 926.6 267.974 924.273Z"/><path fill="#4D4C4D" fill-opacity="0.98431373" d="M273.395 801.323L274.856 801.778C274.839 803.162 275.739 803.591 276.952 804.874C277.236 806.401 274.014 813.23 273.638 816.75C272.46 814.526 273.2 804.209 273.395 801.323Z"/><path fill="#D0D0D1" fill-opacity="0.047058824" d="M282.775 844.103C282.522 839.99 282.883 822.108 284.698 819.267C286.212 823.134 285.232 827.538 284.601 831.597C285.898 835.609 284.009 840.071 282.775 844.103Z"/><path fill="#424242" d="M375.855 1176.59C377.29 1179.06 379.253 1182.23 380.455 1184.74C377.121 1185.43 376.773 1184.9 375.956 1188.52C375.798 1183.54 371.06 1180.16 375.855 1176.59Z"/><path fill="#4D4C4D" fill-opacity="0.86666667" d="M316.885 582.608C320.494 575.77 328.315 561.556 332.969 556.051L333.352 556.606C329.231 563.45 323.091 573.042 319.907 580.081L318.032 583.048L316.885 582.608Z"/><path fill="#424242" d="M402.238 1217.18C405.096 1224.05 406.252 1227.91 408.446 1234.87C406.171 1231.13 404.55 1228.17 401.55 1224.94C400.9 1222.95 402.025 1220.25 402.238 1217.18Z"/><path fill="#2D2C2D" d="M524.918 211.63C524.577 207.716 522.275 199.197 523.629 196.575C525.415 198.648 526.991 208.727 527.37 211.793L526.834 212.18L524.918 211.63Z"/><path fill="#2D2C2D" d="M339.263 555.645C338.512 556.143 338.305 556.123 337.411 556.413L336.783 555.889L338.121 553.19L337.709 552.652L334.948 554.611L334.499 554.113C336.658 549.684 338.523 549.922 342.231 548.3L343.491 549.397C342.419 550.84 339.762 554.17 339.263 555.645Z"/><path fill="#F3F0F0" fill-opacity="0.015686275" d="M288.96 852.312L290.495 851.414C290.756 853.994 289.725 855.236 290.574 856.83C291.458 862.759 289.86 863.193 285.71 867.023C287.122 862.296 288.573 857.229 288.96 852.312Z"/><path fill="#69686A" fill-opacity="0.98431373" d="M410.474 460.003C414.081 454.54 413.06 454.537 415.66 449.292C415.714 450.002 415.789 450.532 415.897 451.236L418.289 449.973C418.472 452.157 416.065 454.506 415.095 456.973C414.124 459.153 414.429 459.562 412.672 460.271L410.474 460.003Z"/><defs><linearGradient id="gradient_1" gradientUnits="userSpaceOnUse" x1="268.63586" y1="688.25031" x2="265.02567" y2="684.62109"><stop offset="0" stop-color="#FDFCFC" stop-opacity="0"/><stop offset="1" stop-color="#F5F1F6" stop-opacity="0.074509807"/></linearGradient></defs><path fill="url(#gradient_1)" d="M268.069 682.268L270.384 681.73C271.299 683.894 270.017 685.181 269.632 688.15L269.537 688.735C268.404 689.736 267.001 690.271 265.618 690.924L265.09 690.392L265.354 687.816C266.018 687.189 266.345 686.857 267.108 686.35L267.616 686.017C266.907 685.126 266.948 685.19 266.646 684.089L268.069 682.268Z"/><path fill="#2D2C2D" fill-opacity="0.98823529" d="M314.596 48.91C310.254 48.0965 306.087 47.3692 301.813 46.2201C303.74 44.8663 314.644 46.1804 317.379 46.6085L314.596 48.91Z"/><path fill="#A4A4A8" fill-opacity="0.67843139" d="M305.259 871.781C305.4 868.596 305.399 865.73 306.25 862.637C306.913 868.576 306.569 872.96 306.987 878.325L306.08 878.69L305.431 880.721C304.952 880.749 304.266 880.832 303.828 880.758L303.989 880.195C305.81 878.259 305.292 874.632 305.259 871.781Z"/><path fill="#242424" d="M263.213 717.526C263.86 710.872 263.791 706.354 267.431 700.649L268.121 701.2C267.979 702.663 267.775 706.16 267.257 707.341C266.152 708.735 264.012 715.385 263.213 717.526Z"/><path fill="#373737" fill-opacity="0.95686275" d="M329.371 57.69C323.849 55.8944 318.626 55.6547 313.393 53.2316C313.351 53.2538 332.772 56.6039 336.577 56.528C334.567 57.9699 332.167 57.3758 329.371 57.69Z"/><path fill="#A4A4A8" fill-opacity="0.49803922" d="M397.4 72.498L396.673 71.7423C398.632 72.0047 415.439 80.1882 416.244 81.201L415.695 81.5539C409.583 79.4811 402.961 75.8078 397.4 72.498Z"/><path fill="#4D4C4D" fill-opacity="0.78431374" d="M448.29 144.368C444.862 139.459 440.108 135.211 436.35 129.76C438.491 130.081 446.823 140.427 448.925 142.667L448.29 144.368Z"/><path fill="#69686A" fill-opacity="0.86274511" d="M459.563 416.346C465.082 406.147 459.282 407.462 470.102 398.278C466.415 403.182 462.825 409.672 461.572 415.756L459.563 416.346Z"/><path fill="#F3F0F0" fill-opacity="0.086274512" d="M468.953 113.958L473.752 119.651C475.872 122.069 478.244 124.61 479.408 127.57C475.558 123.92 471.516 119.226 467.913 115.226L468.953 113.958Z"/><path fill="#F3F0F0" fill-opacity="0.019607844" d="M290.368 885.291C289.181 879.398 288.971 878.1 289.718 872.142L290.691 872.031L290.08 871.114L289.871 871.821L290.497 871.27C291.739 872.635 291.578 875.022 291.801 877.192L290.368 885.291Z"/><path fill="#2D2C2D" fill-opacity="0.98823529" d="M468.953 113.958C467.902 112.394 466.178 110.308 466.048 108.579C469.224 111.287 472.974 115.93 475.8 119.207L473.752 119.651L468.953 113.958Z"/><path fill="#69686A" fill-opacity="0.6901961" d="M254.722 927.663C255.235 928.587 257.802 948.888 257.445 949.939C255.789 946.073 253.513 932.219 254.722 927.663Z"/><path fill="#2D2C2D" fill-opacity="0.97254902" d="M269.632 688.15L271.979 688.152C270.943 691.136 270.032 694.479 268.057 696.896L267.213 696.856C266.971 693.961 268.514 691.962 269.537 688.735L269.632 688.15Z"/><path fill="#4D4C4D" fill-opacity="0.93333334" d="M378.813 1176.54C376.371 1171.85 372.599 1164.74 371.486 1159.61C374.367 1164.07 377.616 1171.12 380.125 1176.03L378.813 1176.54Z"/><path fill="#F3F0F0" fill-opacity="0.015686275" d="M527.192 325.204C528.186 325.645 529.173 326.104 530.151 326.581L529.67 329.547C528.287 331.573 528.346 334.908 527.235 335.55C526.978 334.661 526.659 333.732 526.539 332.828C527.199 330.597 527.129 327.601 527.192 325.204Z"/><path fill="#69686A" fill-opacity="0.81960785" d="M362.999 1214.79C366.052 1219.85 369.335 1225.09 372.083 1230.28L371.29 1231.32C368.229 1226.04 365.24 1220.66 362.239 1215.34L362.999 1214.79Z"/><path fill="#2D2C2D" fill-opacity="0.98823529" d="M266.694 728.236C267.871 728.982 267.717 728.562 268.076 729.512C266.572 734.208 265.631 740.712 263.629 746.936C264.127 741.597 265.653 733.588 266.694 728.236Z"/><path fill="#D0D0D1" fill-opacity="0.062745102" d="M281.159 933.738C282.649 936.895 284.379 940.215 284.054 943.642L281.304 943.701C280.59 939.861 280.871 937.562 281.159 933.738Z"/><path fill="#D0D0D1" fill-opacity="0.05882353" d="M285.293 948.318C285.08 946.067 286.413 942.122 287.991 940.498C288.903 942.033 288.733 943.072 288.758 944.866L288.292 947.744C285.574 948.716 287.244 947.175 285.293 948.318Z"/><path fill="#2D2C2D" fill-opacity="0.9254902" d="M335.25 64.4189C340.37 64.4395 347.01 67.8371 351.49 70.26C348.202 69.856 337.828 66.4538 335.25 64.4189Z"/><path fill="#242424" fill-opacity="0.97647059" d="M262.733 701.951L263.465 702.746C263.668 705.96 261.338 712.983 260.405 716.855C259.133 713.766 261.692 705.08 262.733 701.951Z"/><path fill="#242424" fill-opacity="0.97647059" d="M293.573 1048.55C295.643 1051.03 295.77 1056.99 296.237 1060.58L295.773 1060.54C293.731 1057.44 292.128 1052.14 293.573 1048.55Z"/><path fill="#D0D0D1" fill-opacity="0.43529412" d="M298.432 838.016L299.307 837.812C299.524 840.504 299.865 851.298 299.405 853.546L298.644 852.872C297.908 847.132 298.647 843.597 298.432 838.016Z"/><path fill="#2D2C2D" fill-opacity="0.98431373" d="M360.67 52.7234C356.707 50.8739 353.815 49.4475 349.99 47.2646C355.661 48.7832 359.262 49.7344 364.641 51.9823L360.67 52.7234Z"/><path fill="#F3F0F0" fill-opacity="0.019607844" d="M477.481 290.839C477.954 288.222 478.259 284.909 479.86 282.902C479.956 286.291 480.271 290.578 479.592 293.818L478.887 294.03C478.308 292.851 477.92 292.075 477.481 290.839Z"/><path fill="#373737" fill-opacity="0.85882354" d="M364.641 51.9823C368.839 52.9275 372.045 54.1935 375.431 56.942C369.59 55.8105 368.623 53.8457 360.67 52.7234L364.641 51.9823Z"/><path fill="#4D4C4D" d="M414.26 477.68C415.803 475.775 417.89 472.796 420.502 472.684L421.374 473.841C419.565 475.654 417.269 478.505 414.959 478.777L414.26 477.68Z"/><path fill="#69686A" fill-opacity="0.89411765" d="M271.028 866.2L272.409 866.579C272.712 871.307 272.773 875.567 271.692 880.195C271.217 879.486 271.094 868.028 271.028 866.2Z"/><path fill="#F3F0F0" fill-opacity="0.078431375" d="M310.882 973.79L311.623 972.083C312.812 971.731 313.128 971.409 314.136 971.68C314.189 974.422 314.23 974.859 313.125 977.44L312.19 977.883C310.771 976.395 311.206 976.999 310.849 974.638L310.882 973.79Z"/><path fill="#242424" fill-opacity="0.97254902" d="M476.072 290.157C476.664 287.01 476.488 284.666 477.593 281.507L478.422 281.245L479.86 282.902C478.259 284.909 477.954 288.222 477.481 290.839L476.072 290.157Z"/><path fill="#F3F0F0" fill-opacity="0.023529412" d="M343.491 549.397L345.198 550.461C344.185 551.933 341.645 555.85 340.475 556.818L339.263 555.645C339.762 554.17 342.419 550.84 343.491 549.397Z"/><path fill="#F3F0F0" fill-opacity="0.027450981" d="M415.095 456.973L415.094 457.656L415.548 456.765L415.505 456.837L416.144 456.429C417.376 457.639 417.004 457.067 417.399 458.852C415.924 460.217 414.052 462.059 412.552 463.309C411.816 462.478 411.054 461.017 410.474 460.003L412.672 460.271C414.429 459.562 414.124 459.153 415.095 456.973Z"/><path fill="#D0D0D1" fill-opacity="0.082352944" d="M375.236 1203.13C376.574 1205.3 380.838 1212.16 380.719 1214.3C377.998 1210.54 376.328 1207.62 374.032 1203.6L375.236 1203.13Z"/><path fill="#4D4C4D" fill-opacity="0.98823529" d="M354.963 536.046C353.498 538.331 352.069 540.696 350.33 542.771C346.033 539.824 352.552 537.097 354.963 536.046Z"/><path fill="#D0D0D1" fill-opacity="0.4509804" d="M306.015 1047.8C307.831 1050.45 308.526 1057.14 306.296 1059.74C306.214 1057.6 306.2 1055.27 306.047 1053.16C305.269 1051.53 305.772 1049.69 306.015 1047.8Z"/><path fill="#F3F0F0" fill-opacity="0.011764706" d="M292.48 998.267L293.585 998.456L293.839 1001.42C292.98 1002.12 292.786 1002.17 291.828 1002.68C291.438 1002.51 290.387 1001.7 289.98 1001.4L290.085 1000.33C291.274 999.717 291.652 999.312 292.48 998.267Z"/><path fill="#D0D0D1" fill-opacity="0.054901961" d="M316.289 593.206L316.975 593.867C316.238 595.634 315.481 597.393 314.705 599.143C314.167 600.336 313.131 602.582 311.913 603.048C311.82 600.344 314.849 595.592 316.289 593.206Z"/><path fill="#808184" fill-opacity="0.71764708" d="M270.594 855.722L272.184 855.371C272.387 859.361 272.476 862.552 272.409 866.579L271.028 866.2C271.153 862.156 271.338 859.758 270.594 855.722Z"/><path fill="#A4A4A8" fill-opacity="0.57254905" d="M285.183 969.714C285.91 974.353 286.909 979.321 286.692 983.977C286.237 981.628 284.93 972.856 284.222 971.091L285.183 969.714Z"/><path fill="#F3F0F0" fill-opacity="0.023529412" d="M319.907 580.081L322.006 580.589C319.75 583.41 318.537 585.888 315.876 588.115C316.625 585.727 316.835 585.253 318.032 583.048L319.907 580.081Z"/><path fill="#424242" fill-opacity="0.77254903" d="M303.969 840.739L304.618 840.958C304.639 845.316 304.943 850.153 303.771 854.293L303.088 854.565C302.876 852.534 302.495 851.072 303.258 849.224C304.211 845.565 304.12 844.566 303.969 840.739Z"/><path fill="#D0D0D1" fill-opacity="0.46666667" d="M397.344 1274.78C401.1 1277.74 402.831 1279.95 404.779 1284.28C403.395 1283.22 398.116 1277.06 396.392 1275.16L397.344 1274.78Z"/><path fill="#2D2C2D" d="M294.652 616.221C295.367 613.743 295.62 612.188 297.335 610.26L298.307 610.079C298.669 612.249 297.463 614.104 296.494 616.221L294.652 616.221Z"/><path fill="#F3F0F0" fill-opacity="0.21960784" d="M424.488 1300.64C426.626 1301.11 430.703 1306.33 432.146 1308.17C429.683 1307.3 424.98 1303.21 424.488 1300.64Z"/><path fill="#F3F0F0" fill-opacity="0.06666667" d="M303.983 867.178L305.259 871.781C305.292 874.632 305.81 878.259 303.989 880.195C303.801 876.421 303.972 871.07 303.983 867.178Z"/><path fill="#A4A4A8" fill-opacity="0.67058825" d="M362.239 1215.34C359.67 1211.18 357.78 1208.49 356.253 1203.81C357.452 1204.69 361.926 1212.92 362.999 1214.79L362.239 1215.34Z"/><path fill="#D0D0D1" fill-opacity="0.062745102" d="M266.428 935.816C265.155 931.806 264.714 928.661 264.614 924.495C265.481 925.97 266.661 931.74 267.381 934.121L266.428 935.816Z"/><path fill="#F3F0F0" fill-opacity="0.094117649" d="M407.306 1266.52L407.159 1264.93C408.806 1265.5 411.599 1270.35 412.629 1272.13L411.261 1272.75L407.306 1266.52Z"/><path fill="#242424" fill-opacity="0.94901961" d="M258.682 721.595C260.09 724.356 257.878 729.22 256.905 732.097C255.47 729.136 257.557 724.975 258.682 721.595Z"/><path fill="#424242" fill-opacity="0.94901961" d="M322.972 785.711L324.341 786.233C324.713 787.457 322.756 791.026 322.042 792.958L321.717 793.017L321.283 792.541C321.442 789.939 321.213 787.496 322.972 785.711Z"/><path fill="#D0D0D1" fill-opacity="0.41568628" d="M347.243 1188.79C349.704 1190.26 352.737 1197.02 354.225 1199.87C351.808 1198.6 348.623 1191.49 347.243 1188.79Z"/><path fill="#D0D0D1" fill-opacity="0.090196081" d="M354.963 536.046L355.77 536.151C354.866 539.03 353.604 540.987 351.348 543.054L350.33 542.771C352.069 540.696 353.498 538.331 354.963 536.046Z"/><path fill="#2D2C2D" fill-opacity="0.98039216" d="M448.925 142.667L452.432 147.08L450.781 148.379L448.29 144.368L448.925 142.667Z"/><path fill="#D0D0D1" fill-opacity="0.098039217" d="M268.121 701.2L269.261 702.317C269.682 704.707 269.65 705.043 269.231 707.439L267.257 707.341C267.775 706.16 267.979 702.663 268.121 701.2Z"/><path fill="#D0D0D1" fill-opacity="0.10980392" d="M383.573 1187.94C384.783 1189.96 386.066 1191.59 386.216 1193.86C384.526 1192.87 383.491 1189.96 382.565 1188L383.573 1187.94Z"/><path fill="#D0D0D1" fill-opacity="0.32156864" d="M319.557 1094.21C320 1094.54 321.334 1095.94 321.802 1096.41L320.97 1099.64L321.025 1100.36L320.759 1100.4C320.431 1097.85 320.263 1096.69 319.557 1094.21Z"/><path fill="#A4A4A8" fill-opacity="0.72156864" d="M272.108 924.153C272.34 922.317 272.15 921.103 273.215 919.956C273.97 922.429 273.602 923.502 273.162 926.047L272.306 926.206L272.108 924.153Z"/><path fill="#808184" fill-opacity="0.41960785" d="M303.84 838.232L303.969 840.739C304.12 844.566 304.211 845.565 303.258 849.224C303.25 846.42 302.961 840.617 303.84 838.232Z"/></svg>