<svg xmlns="http://www.w3.org/2000/svg" width="768" height="1344" viewBox="0 0 768 1344"><path d="M387.557 1212.47c2.391 5.84 4.245 18.55 1.78 24.38-6.607-2.65-2.766-18.43-1.78-24.38"/><path d="M384.269 1017.22c-1.063-3.63-4.904-13.68-.285-15.91l1.38 1.08c1.978 3.71 1.376 5.84.54 9.98-.376 1.47-.787 3.7-1.635 4.85"/><path d="M390.192 1295.26c3.302 5.05 2.993 10.39.732 15.72-4.959-4.82-2.493-10.01-.732-15.72"/><path fill="#a7a9ab" fill-opacity=".573" d="m385.374 1035.59 1.208 1.25-.083 34.57-.54.17c-.045-2.3-.329-4.55-.574-6.84-.661-5.48-.08-23.07-.011-29.15"/><path d="m385.142 1079.54.558.12.869 2.8c.09 2.94.682 10.61-1 12.71-1.755-4.09-1.133-11.26-.427-15.63"/><path fill="#67696e" fill-opacity=".729" d="M384.269 1017.22c.848-1.15 1.259-3.38 1.635-4.85-.292 8.77.886 16.74.678 24.47l-1.208-1.25c-.191-5.88-.741-12.44-1.105-18.37"/><path fill="#67696e" fill-opacity=".922" d="M385.385 1064.74c.245 2.29.529 4.54.574 6.84-.032 2.27.021 5.96-.259 8.08l-.558-.12c.264-4.45.179-10.25.243-14.8"/><path fill="#a7a9ab" fill-opacity=".384" d="m385.959 1071.58.54-.17c.052 3.65.157 7.41.07 11.05l-.869-2.8c.28-2.12.227-5.81.259-8.08"/><path d="M372.65 0h15.291c.379 6.117.63 10.804 1.682 16.845.745 4.28 3.6 13.601 3.642 16.975.133 10.895-5.567 22.881-5.95 33.825-.504 14.41 4.467 26.86 4.118 41.68-.25 10.569.118 20.771-.773 31.435-.776 9.298-2.936 19.69-2.437 28.792 1.539 28.015 10.014 55.934 9.294 84.101-.154 6.034-1.271 20.686-3.248 25.98-8.919 23.887-9.652 46.206-9.091 71.401.253 11.335-.045 24.554 2.436 35.939 4.148 16.515 10.99 28.708 10.264 46.778-2.136 53.222-25.153 91.539-12.243 145.995l-6.634 2.918c-4.101-17.239-9.407-40.752-6.075-58.496 1.216-7.076 5.864-15.565 6.786-22.484 3.175-23.834 11.809-48.092 13.526-71.746 1.148-15.822-5.395-30.256-9.546-44.984-2.792-9.907-3.571-23.943-4.283-34.359 1.078-13.205.253-39.175 4.311-51.221 11.095-32.93 13.627-59.337 7.391-93.725-1.463-8.067-4.188-20.367-4.628-28.753-1.383-26.339-.145-53.209-3.846-79.448.26-7.718-2.414-19.543-1.774-26.898 2.147-24.665-5.367-46.298-8.213-70.55"/><path d="M381.067 596.453c2.218-.206 4.223-.521 6.419-.201 2.928 8.044 6.589 26.632 6.584 35.226-.656 10.505-5.103 20.629-7.165 30.954-2.68 13.413-2.42 26.724-3.478 40.156-1.843 23.406 2.66 45.257 4.247 68.421 1.125 16.433-1.282 34.007-2.479 50.539-1.573-2.355-1.029-8.846-1.271-12.56-.158-11.812 2.319-24.408.842-36.229-4.667-37.347-8.199-72.664-1.402-110.119 3.092-17.038 6.262-31.608.597-48.86-1.366-4.16-2.404-12.725-2.894-17.327"/><path d="m381.43 887.139 1.173 5.553c1.129 4.936 3.067 16.433-.451 20.539l-1.279.06c-5.07-5-.882-19.725.557-26.152"/><path fill="#1f1e20" d="m379.001 582.664 6.634-2.918c1.091 6.722 1.139 10.273 1.851 16.506-2.196-.32-4.201-.005-6.419.201-.27-4.883-1.156-8.995-2.066-13.789"/><path fill="#1f1e20" fill-opacity=".929" d="M383.924 808.988c.242 3.714-.302 10.205 1.271 12.56l-1.345 34.224c-.212 5.62-.229 14.146-.776 19.474-.097-1.156-.599-2.687-.917-3.847-.369-9.232.752-22.917.941-32.44.156-7.803-.173-22.84.826-29.971"/><path fill="#454046" fill-opacity=".722" d="m381.778 876.32.842 4.793q.17 5.79-.017 11.579l-1.173-5.553c-.111-3.988.073-6.884.348-10.819"/><path fill="#3d3c3e" fill-opacity=".976" d="M382.157 871.399c.318 1.16.82 2.691.917 3.847l-.454 5.867-.842-4.793z"/></svg>