<svg xmlns="http://www.w3.org/2000/svg" width="768" height="932" viewBox="0 0 768 932"><clipPath id="a"><path d="M0 0h768v932H0z"/></clipPath><g clip-path="url(#a)"><path fill="#434243" d="M34.727 157.547c7.395-.456 20.31-2.547 21.764 8.077.404 2.953.7 12.287-.907 14.672-17.92.449-26.854-2.193-20.857-22.749"/><path fill="#434243" d="M730.507 183.928c9.521-.82 20.271.048 19.452 13.656-.175 2.899-.48 5.18-1.803 7.893-5.918-.042-9.415.377-14.957-2.31-6.88-3.337-6.108-13.501-2.692-19.239"/><path fill="#959493" d="m418.818 719.05 3.138.897c1 1.941-3.724 5.485-4.617 8.122-.707 2.089-.809 3.936-1.008 6.081-1.956-2.036-4.094-4.592-5.989-6.741 4.561-3.001 5.381-3.782 8.476-8.359"/><path fill="#adabab" fill-opacity=".973" d="m424.525 739.312.541-.151.431.449a182 182 0 0 0-10.619 3.315 601 601 0 0 1-.424 7.091l-.663.544-1.56-2.849-7.895-.694c6.24-2.138 7.631-2.896 12.406-7.439z"/><path fill="#959493" d="M309.684 414.419c16.714 1.356 47.552 20.623 66.561 19.682.904-.044 1.92-2.851 2.685-4.178 1.477.935.45 2.264 1.608 5.095 4.631 1.234 23.828.573 29.436.474-.417 2.519.047 2.1-1.433 3.605-13.394 3.926-45.939-1.512-59.483-5.577-12.671-3.802-32.19-6.955-39.374-19.101"/><path fill="#bcbbba" d="M281.478 389.068c7.698 3.042 11.181 6.68 17.191 12.201-.848 1.373-2.044 3.451-3.003 4.668-7.084-6.894-9.118-8.14-14.188-16.869"/><path fill="#dededd" d="M298.669 401.269c2.004 2.038 4.837 4.438 5.502 7.088l-.423 1.249c-2.923.578-5.851-1.984-8.082-3.669.959-1.217 2.155-3.295 3.003-4.668"/><path fill="#7c7a7b" d="M601.146 356.419c.353 7.087-3.959 6.727-9.89 9.209.485-2.431 7.627-7.518 9.89-9.209"/><path fill="#959493" d="M609.656 491.77c1.072.445 7.781 6.256 9.279 7.501-2.848.064-6.014.423-8.158-1.399-1.333-1.972-1.113-3.739-1.121-6.102"/><path fill="#bcbbba" d="M381.19 487.827c15.16-1.072 28.774 1.681 43.546 4.815 3.222 3.772 13.655 5.886 18.071 1.913 5.035 5.177 12.978 10.611 19.625 13.465 4.058 7.06 14.985 23.194 17.35 29.194-3.462.365-8.48.754-11.805 1.286 3.482 3.755 5.725 5.864 7.585 10.737-1.222 4.532-2.742 9.276-2.797 13.963 1.734 3.922 3.825 7.741 5.446 11.434 1.119 2.588.981 3.509.985 6.312.289 8.931 1.042 15.282 2.196 24.117l-5.277-.683c-3.556 6.287-11.849 22.296-14.198 29.113-3.379-12.734-10.254-18.99-20.211-26.372 1.395-2.39 4.201-5.123 3.756-7.937-3.758-1.999-26.852 6.706-32.43 8.178a61 61 0 0 1-11.603 1.842 122.9 122.9 0 0 1-88.619-30.303l2.643-1.533c1.521-4.351-3.232-5.882.961-9.694 7.077.303 8.555 14.678 16.758 17.439l1.576-.142.907-1.398c.333-1.993.268-2.855 1.655-4.294 4.978-4.551 6.826-7.987 7.604-14.794.617-5.396-3.434-5.983-3.748-8.683l.758-.559c6.379-.371 8.748 1.735 13.584 5.799 1.797-1.694 2.189-3.451 3.006-5.787-2.966-5.685-6.445-11.944-8.597-17.917 3.888-20.372 13.606-20.305-4.545-40.62 5.699-.92 15.935-5.164 24.423-6.639 3.259-.839 6.37-1.294 9.681-1.825z"/><path fill="#434243" d="M381.19 487.827c15.16-1.072 28.774 1.681 43.546 4.815 3.222 3.772 13.655 5.886 18.071 1.913 5.035 5.177 12.978 10.611 19.625 13.465 4.058 7.06 14.985 23.194 17.35 29.194-3.462.365-8.48.754-11.805 1.286-7.106.428-10.138-.653-13.802 6.35l-5.244.584c-9.94 16.106-56.856-3.474-72.402 3.909-3.654 1.736-16.044 2.383-17.891 6.453l-.124-.541c-2.966-5.685-6.445-11.944-8.597-17.917 3.888-20.372 13.606-20.305-4.545-40.62 5.699-.92 15.935-5.164 24.423-6.639 3.259-.839 6.37-1.294 9.681-1.825z"/><path fill="#101011" d="M381.19 487.827c15.16-1.072 28.774 1.681 43.546 4.815 3.222 3.772 13.655 5.886 18.071 1.913 5.035 5.177 12.978 10.611 19.625 13.465 4.058 7.06 14.985 23.194 17.35 29.194-3.462.365-8.48.754-11.805 1.286-7.106.428-10.138-.653-13.802 6.35l-5.244.584c-1.511-.5-5.348-3.849-6.838-5.068-6.191.769-11.705 2.374-17.714 4.002-1.564-9.99-2.073-14.522-1.574-24.57q.402-.009.804-.028c3.174-.152 11.079-.19 13.074-2.377-.532-2.897-6.254-5.881-6.824-9.216l.942-1.585-.816-.61c-14.306-.28-28.362-13.179-42.085-5.014q-.976-.103-1.947-.255c-7.811-1.242-11.75-4.488-16.158-10.634 3.259-.839 6.37-1.294 9.681-1.825z"/><path fill="#7c7a7b" d="M387.9 500.968c13.723-8.165 27.779 4.734 42.085 5.014l.816.61-.942 1.585c-7.369.715-17.871 9.764-27.425 7.954-4.022-.762-13.473-1.886-16.116-5.116 3.315-3.123 13.892.467 18.399-2.268-1.033-3.383-9.684-2.972-16.817-7.779"/><path fill="#202225" d="m448.931 545.434 5.244-.584c-.118 5.404.438 12.409-3.79 16.423-16.552 11.195-38.227 23.504-58.758 24.942-5.295.371-11.583-.694-16.882-1.537-.005 2.53.18 8.615-.421 10.758-8.102-2.017-33.78-11.277-38.669-11.863.333-1.993.268-2.855 1.655-4.294 4.978-4.551 6.826-7.987 7.604-14.794.617-5.396-3.434-5.983-3.748-8.683l.758-.559c6.379-.371 8.748 1.735 13.584 5.799 1.797-1.694 2.189-3.451 3.006-5.787l.124.541c1.847-4.07 14.237-4.717 17.891-6.453 15.546-7.383 62.462 12.197 72.402-3.909"/><path fill="#434243" d="M337.31 579.279c4.978-4.551 6.826-7.987 7.604-14.794.617-5.396-3.434-5.983-3.748-8.683l.758-.559c6.379-.371 8.748 1.735 13.584 5.799l1.518 1.411c3.47-.32 9.319-6.394 15.971-.782 3.306 2.79 4.769 7.096 6.417 11.072 18.037-3.597 35.723-15.176 55.03-8.367l.856 1.07c-2.24 4.26-17.492 6.855-22.362 7.818-5.288 6.24-6.445 6.806-14.431 8.19-9.394 1.628-33.902-7.033-39.923-5.537-.441.788-.971 2.172-1.598 2.314-4.513 1.023-15.338 1.609-19.676 1.048"/><path fill="#434243" d="M454.175 544.85c3.664-7.003 6.696-5.922 13.802-6.35 3.482 3.755 5.725 5.864 7.585 10.737-1.222 4.532-2.742 9.276-2.797 13.963 1.734 3.922 3.825 7.741 5.446 11.434-3.514-.462-8.947-4.175-14.182-5.465-12.848 3.233-17.006 7.371-27.807 14.16-18.093 11.371-37.441 12.762-58.05 12.522l-3.848-.415c.601-2.143.416-8.228.421-10.758 5.299.843 11.587 1.908 16.882 1.537 20.531-1.438 42.206-13.747 58.758-24.942 4.228-4.014 3.672-11.019 3.79-16.423"/><path fill="#dededd" d="M454.175 544.85c3.664-7.003 6.696-5.922 13.802-6.35 3.482 3.755 5.725 5.864 7.585 10.737-1.222 4.532-2.742 9.276-2.797 13.963-.902.548-4.424 1.29-5.877 1.724-7.127 2.134-13.911 5.808-16.503-3.651 4.228-4.014 3.672-11.019 3.79-16.423"/><path fill="#dededd" d="M315.453 577.368c1.521-4.351-3.232-5.882.961-9.694 7.077.303 8.555 14.678 16.758 17.439l1.576-.142.907-1.398c4.889.586 30.567 9.846 38.669 11.863l3.848.415a41 41 0 0 1-.355 1.543c-.425 1.683-.965 3.323-2.839 4.163-5.003 2.244-12.09.501-17.811-1.654-13.68-5.153-28.227-13.355-40.907-20.817z"/><path fill="#434243" d="M476.115 604.38c-3.861-5.393-7.109-22.325 3.081-23.434.289 8.931 1.042 15.282 2.196 24.117z"/><path fill="#959493" d="M400.49 240.415c5.001 1.273 10.109 2.587 15.276 2.104 2.101 1.635 4.895 3.287 7.196 4.732 3.481-1.549 6.998-3.315 10.884-2.994-2.303 1.496-5.155 2.814-5.535 5.755.306 3.997.56 8.178.971 12.15l2.749 4.758c22.724 2.746 49.313 1.456 72.327.785l3.746-.133c4.465.133 8.989.037 13.272 1.239.472-3.413.713-10.007 3.973-11.722 3.812 2.058 3.752 15.137 3.982 19.202 1.55 2.596 2.05 3.648 4.319 5.612 1.879-1.42 3.915-2.638 5.914-3.89 1.372.125 3.107.337 4.448.384 1.127 19.493 1.667 38.544 1.968 58.056.141 9.15 2.256 21.392 2.197 29.521-1.479.291-3.954.862-5.364.998-3.865 4.619-5.408 8.765-7.586 14.258l-1.245-1.535c-.516-2.524.504-5.205 1.211-7.754-3.299-4.765-5.926-6.363-10.616-9.565 3.032-4.242 4.146-6.575 6.239-11.215-1.562-3.611-2.917-7.535-4.274-11.245-.296 2.156-.286 2.557-1.748 4.13-4.982.61-7.609-6.605-12.357-8.46l-.834.345c-1.495 4.52 2.359 7.71 5.121 11.136-9.048 3.139-9.64 5.333-9.283 14.502-2.632 1.065-6.385 1.343-8.346 3.102-2.002 5.689 6.362 10.889-2.339 14.326-.733.289-.633.284-1.476.284-2.104 2.741-3.694 4.786-5.479 7.785l-4.741-4.967c2.262-1.565 2.647-1.567 5.325-1.661l.561.417.595-.257c.182-1.621.386-2.606-.689-4.097-7.756-10.752-15.802-20.234-21.422-32.41l19.289 5.236c-2.602-3.268-4.445-5.493-6.561-9.152l.19-7.97c-2.173-2.365-4.787-4.4-7.27-6.451 1.112-2.512 4.289-7.895 1.757-9.771-2.399.247-4.158 1.922-6.197 3.408-.418-2.853-.693-6.975-2.727-8.922-8.613-2.407-74.58.251-86.986.81-.24 3.315-.219 7.921-.299 11.349-.694-2.551-1.114-5.877-1.529-8.555l-5.093-4.055c-.603-1.562-.606-1.782-.791-3.486l-.047-.461c-4.384-1.571-34.653.318-40.866.827-31.276 2.559-59.545 3.361-90.853 1.516l-.516-.257c-.134-2.476 1.254-16.146 1.414-20.49 2.259 5.675 5.396 12.05 9.056 16.94 11.338 2.485 88.596 2.103 93.446-1.895.164-1.406.251-2.097.21-3.506-4.98.174-12.195-.918-15.036-5.543-.655-3.465-.697-5.464-.805-9.018.288-3.242 1.47-8.383 2.13-11.71l.981-5.202c3.817-.212 5.833-.588 9.595-1.322.678-2.621 1.095-6.614 1.471-9.396 3.515-4.371 2.307-8.717 5.23-10.923 8.604 3.28 20.593 7.129 29.857 7.306 1.494 1.856 1.049 1.927 1.346 4.726.274-1.358.434-2.453.613-3.827l1.419-.577c6.847-.022 9.631-.219 15.038-4.283 1.18-2.534 2.538-6.335 3.594-9.022m23.042 58.497-.438.185c-.91.696-10.375 5.229-12.613 6.478 8.671.835 62.209 3.433 65.104-3.48-3.417-5.147-27.929-5.912-37.171-8.574l-3.185-5.069c-3.297 5.572-5.727 8.071-11.697 10.46"/><path fill="#101011" d="M348.623 246.092c8.604 3.28 20.593 7.129 29.857 7.306 1.494 1.856 1.049 1.927 1.346 4.726-.877 6.714-4.071 31.626-6.245 36.958-5.054-1.623-13.817-1.739-19.129-1.833-1.821 2.769-2.423 3.783-4.831 6.003l-4.564-.046c-4.98.174-12.195-.918-15.036-5.543-.655-3.465-.697-5.464-.805-9.018.288-3.242 1.47-8.383 2.13-11.71l.981-5.202c3.817-.212 5.833-.588 9.595-1.322.678-2.621 1.095-6.614 1.471-9.396 3.515-4.371 2.307-8.717 5.23-10.923"/><path fill="#dededd" d="M333.098 284.802c6.399-5.25 10.582 2.72 14.442 7.754l6.912.693c-1.821 2.769-2.423 3.783-4.831 6.003l-4.564-.046c-4.98.174-12.195-.918-15.036-5.543-.655-3.465-.697-5.464-.805-9.018z"/><path fill="#202225" d="m329.216 284.645 3.882.157c-.743 2.521-1.799 6.729-3.077 8.861-.655-3.465-.697-5.464-.805-9.018"/><path fill="#202225" d="M348.465 273.146c6.803-.492 12.182.089 18.927.791 3.606 3.74 4.625 4.746 5.317 9.811-.655.01-.858-.019-1.356-.473-3.995-3.643-11.549-1.548-16.591-3.424-3.571-1.328-4.742-3.434-6.297-6.705"/><path fill="#101011" d="M539.564 278.013c1.372.125 3.107.337 4.448.384 1.127 19.493 1.667 38.544 1.968 58.056.141 9.15 2.256 21.392 2.197 29.521-1.479.291-3.954.862-5.364.998-3.865 4.619-5.408 8.765-7.586 14.258l-1.245-1.535c-.516-2.524.504-5.205 1.211-7.754-3.299-4.765-5.926-6.363-10.616-9.565 3.032-4.242 4.146-6.575 6.239-11.215-1.562-3.611-2.917-7.535-4.274-11.245-.232-2.964.363-2.796 2.766-3.939 2-4.23.949-18.356.589-23.456-.098-5.888-.59-12.269-.937-18.187-.15-7.186-.573-7.345 4.69-12.431 1.879-1.42 3.915-2.638 5.914-3.89"/><path fill="#bcbbba" d="M521.376 268.811c.472-3.413.713-10.007 3.973-11.722 3.812 2.058 3.752 15.137 3.982 19.202 1.55 2.596 2.05 3.648 4.319 5.612-5.263 5.086-4.84 5.245-4.69 12.431.347 5.918.839 12.299.937 18.187-16.505-14.856-17.999-14.685-37.76-21.83-.563-1.709.029-2.224.731-4.24l-.397-.781c-5.55-2.559-16.755-5.275-23.176-7.189a99 99 0 0 1 4.663-2.31c6.789-3.064 10.547-1.881 17 .594 4.761-2.613 9.571-5.143 13.4-9.06l3.746-.133c4.465.133 8.989.037 13.272 1.239"/><path fill="#7c7a7b" d="M521.376 268.811c.472-3.413.713-10.007 3.973-11.722 3.812 2.058 3.752 15.137 3.982 19.202 1.55 2.596 2.05 3.648 4.319 5.612-5.263 5.086-4.84 5.245-4.69 12.431-2.702-22.644-16.468-15.507-20.856-26.762 4.465.133 8.989.037 13.272 1.239"/><path fill="#adabab" d="M521.376 268.811c.472-3.413.713-10.007 3.973-11.722 3.812 2.058 3.752 15.137 3.982 19.202-2.949-.408-6.889-4.71-7.955-7.48"/><defs><linearGradient id="b" x1="427.693" x2="410.008" y1="453.894" y2="475.836" gradientUnits="userSpaceOnUse"><stop offset="0" stop-color="#100e0e"/><stop offset="1" stop-color="#252b2e"/></linearGradient></defs><path fill="url(#b)" d="M410.71 458.272c6.401-3.985 10.941-5.17 18.572-5.11l2.749 4.758c-.222 2.842-.05 11.838-3.786 12.149-3.218 2.843-6.62 8.713-9.291 12.507-12.303-5.361-15.435-12.009-8.244-24.304" transform="translate(0 -191)"/><path fill="#dededd" d="M428.245 279.069c13.49 4.05-.73 15.634-4.713 19.843l-.438.185c-11.097 2.736-29.9 4.791-40.651 1.12l-.065-.899c5.985-4.419 27.9-6.092 36.576-7.742 2.671-3.794 6.073-9.664 9.291-12.507"/><path fill="#202225" d="M410.71 267.272c-1.456-6.737-1.667-10.875 3.541-16.228 3.7-3.801 10.016-5.116 14.06-1.032.306 3.997.56 8.178.971 12.15-7.631-.06-12.171 1.125-18.572 5.11"/><path fill="#bcbbba" d="M354.452 293.249c5.312.094 14.075.21 19.129 1.833 2.185.437 3.208.491 4.992 1.91l.302 1.255c-3.915 4.771-23.641 2.214-29.254 1.005 2.408-2.22 3.01-3.234 4.831-6.003"/><path fill="#adabab" d="M390.636 283.732c3.098-.156 6.609.541 7.491 3.896-1.383 1.388-1.66.982-4.019 1.18-4.373.075-5.715.44-9.149-2.314l-.015-1.195c2.391-1.729 2.332-1.217 5.692-1.567"/><path fill="#434243" d="m586.824 627.539 1.663-.299a1813 1813 0 0 1 17.251 63.059c1.59 6.138 7.847 34.652 11.307 39.692 2.201 3.206 17.218-1.984 22.424-4.117l2.845-.272c2.012.093 4.192.319 6.141-.052l.697 1.085c5.024 10.21 5.716 14.119 3.369 25.606 2.662 1.644 3.623 4.493 4.807 7.38 7.988-2.275 17.117-6.27 22.925 2.323 1.256 1.859 2.618 4.084 4.334 5.508-5.366 5.167-4.819 13.361-7.394 17.797 3.35 13.637 10.993 10.968 18.209 2.294l.287 9.213c3.568 4.617 7.147 5.687 10.105 9.216 4.33 5.168 5.039 7.748 10.375 12.628l.651.59c-11.851-5.7-20.965-16.027-33.336-16.354.339 1.638.446 2.76 1.325 4.205-.858 1.168-2.877 3.739-3.375 4.939-1.55 1.32-2.982 2.58-4.65 3.76-6.365 7.41-2.555 12.71 3.011 18.95-3.983 14.21 3.962 8.67 2.973 21-.542 6.77 4.346 17.45 8.224 22.63 3.556.92 11.364 1.73 10.538 6.52-5.395 3.57-11.876-.58-15.145-5.35-6.935-10.12-6.52-30.27-14.722-38.76l-1.061-.09c-8.082 11.22 17.813 39.72-1.545 55.75-6.402.23-9.31.99-14.503-3.24-10.372-8.43-4.688-47.44-16.386-51.61-10.246 3.69.682 57.07-22.165 46.73-17.042-7.72-6.503-37.45-6.888-49.98-1.981-4.32-2.093-5.1-6.307-6.97q-1.007-.255-1.993-.57c-16.159-5.31-8.801-23.468-4.925-34.921a515 515 0 0 1 19.679-49.969 499 499 0 0 1 7.069-4.449l-7.544-3.43c-5.267-9.861-14.878-51.093-17.561-63.067-3.152-14.067-7.863-33.222-10.709-47.375m67.809 237.101c-1.448 4.05-2.182 6.76-3.204 10.88 2.557 9.31 5.7 12.53 12.008 19.5 11.298-10.42 13.108-19.43 3.419-32.25.229-6.81.423-11.14-.904-17.84-3.224-4.63-4.97-4.94-10.109-6.99 6.169-6.22 5.608-8.33.688-15.26 7.123-.86 13.143-2.48 18.971-6.98-4.077-4.72-5.25-4.63-11.204-6.43-5.053-1.504-21.586-10.083-20.711-16.038l1.499-.543c1.071-.599 2.119-1.969 2.962-2.928-3.685-3.737-7.466-7.891-12-10.549-8.755 5.791-16.663 14.247-18.929 24.719-1.565 7.229.671 12.789 7.738 15.379 1.294.25 2.404.33 3.473 1.07 6.71 2.36 12.508 2.54 19.547 3.06-6.64 11.5-.808 7.3.973 14.33-5.918 6.41-.201 21.28 5.783 26.87m-34.785-28.16c-3.482.15-4.481-.2-6.694 2.64-1.085 8.77-1.082 10.1 2.72 17.87-8.011 5.03-6.433 10.48-6.076 19 4.079 6.69 7.643 8.2 14.52 11.15 3.63-11.94 6.015-17.67-2.171-28.02a91 91 0 0 0 2.994-2.31c6.163-5.05 6.075-10.48 6.859-17.94-2.347-.59-4.88-1.12-7.256-1.66-1.106-.04-3.684-.54-4.896-.73"/><path fill="#434243" d="m675.502 815.7 1.282.04c-6.365 7.41-2.555 12.71 3.011 18.95-3.983 14.21 3.962 8.67 2.973 21-.542 6.77 4.346 17.45 8.224 22.63 3.556.92 11.364 1.73 10.538 6.52-5.395 3.57-11.876-.58-15.145-5.35-6.935-10.12-6.52-30.27-14.722-38.76l-1.061-.09c-8.082 11.22 17.813 39.72-1.545 55.75-6.402.23-9.31.99-14.503-3.24-10.372-8.43-4.688-47.44-16.386-51.61-10.246 3.69.682 57.07-22.165 46.73-17.042-7.72-6.503-37.45-6.888-49.98 1.149-.34 2.214-.14 3.426-.05l.613.88c-1.085 8.77-1.082 10.1 2.72 17.87-8.011 5.03-6.433 10.48-6.076 19 4.079 6.69 7.643 8.2 14.52 11.15 3.63-11.94 6.015-17.67-2.171-28.02a91 91 0 0 0 2.994-2.31c6.163-5.05 6.075-10.48 6.859-17.94-2.347-.59-4.88-1.12-7.256-1.66-1.106-.04-3.684-.54-4.896-.73-.376-.49-.746-.98-1.109-1.48-3.001-4.11-3.488-6.33-2.699-11.29 3.454-2.49 4.927-2.95 8.817-4.4 1.294.25 2.404.33 3.473 1.07 6.71 2.36 12.508 2.54 19.547 3.06-6.64 11.5-.808 7.3.973 14.33-5.918 6.41-.201 21.28 5.783 26.87-1.448 4.05-2.182 6.76-3.204 10.88 2.557 9.31 5.7 12.53 12.008 19.5 11.298-10.42 13.108-19.43 3.419-32.25.229-6.81.423-11.14-.904-17.84-3.224-4.63-4.97-4.94-10.109-6.99 6.169-6.22 5.608-8.33.688-15.26 7.123-.86 13.143-2.48 18.971-6.98"/><path fill="#dededd" d="M624.857 819.31c1.294.25 2.404.33 3.473 1.07 4.619 8.02 5.216 11.98-3.586 16.83-1.106-.04-3.684-.54-4.896-.73-.376-.49-.746-.98-1.109-1.48-3.001-4.11-3.488-6.33-2.699-11.29 3.454-2.49 4.927-2.95 8.817-4.4"/><path fill="#dededd" d="M657.328 759.621c7.988-2.275 17.117-6.27 22.925 2.323 1.256 1.859 2.618 4.084 4.334 5.508-5.366 5.167-4.819 13.361-7.394 17.797-1.594 1.424-3.557 4.672-4.823 6.586-.715-.399-6.594-3.741-7.159-3.832-5.711-.921-9.51-.029-14.693-4.348-5.181-4.317-13.639-14.28-15.358-21.136-.249-.995.408-3.099 1.276-3.981 3.214-3.265 11.37.664 15.179 1.216 1.4.203 4.327-.026 5.713-.133"/><path fill="#dededd" d="M595.89 795.829c-.041 2.796-.117 3.399.795 6.091 2.098-.908 2.998-2.065 4.56-3.685 1.919 4.75 3.23 8.091 8.638 9.539 1.404-.604 3.777-1.19 5.323-1.631.287 6.417.166 10.387-.259 16.817l1.093.75c-.789 4.96-.302 7.18 2.699 11.29.363.5.733.99 1.109 1.48-3.482.15-4.481-.2-6.694 2.64l-.613-.88c-1.212-.09-2.277-.29-3.426.05-1.981-4.32-2.093-5.1-6.307-6.97q-1.007-.255-1.993-.57c-16.159-5.31-8.801-23.468-4.925-34.921"/><defs><linearGradient id="c" x1="595.284" x2="601.59" y1="1018.587" y2="994.538" gradientUnits="userSpaceOnUse"><stop offset="0" stop-color="#424142"/><stop offset="1" stop-color="#615f5f"/></linearGradient></defs><path fill="url(#c)" d="M595.89 986.829c-.041 2.796-.117 3.399.795 6.091l-.298 1.492c-1.896 5.638-3.507 12.408-.94 18.058 2.291 5.04 7.247 2.94 10.427.39-.687 2.36-2.027 7.49-3.066 9.46q-1.007-.255-1.993-.57c-16.159-5.31-8.801-23.468-4.925-34.921" transform="translate(0 -191)"/><path fill="#605f5f" d="M596.685 801.92c2.098-.908 2.998-2.065 4.56-3.685 1.919 4.75 3.23 8.091 8.638 9.539-.742 4.856-2.178 8.426-3.86 13.006.503-4.18.413-8.72.443-12.956-3.902-2.833-5.32-3.869-10.079-4.412z"/><path fill="#605f5f" d="m614.947 822.96 1.093.75c-.789 4.96-.302 7.18 2.699 11.29.363.5.733.99 1.109 1.48-3.482.15-4.481-.2-6.694 2.64l-.613-.88c.902-2.62 1.962-12.01 2.406-15.28"/><path fill="#dededd" d="M648.048 789.761c4.975 1.115 31.976 10.666 35.436 13.075.339 1.638.446 2.76 1.325 4.205-.858 1.168-2.877 3.739-3.375 4.939-1.55 1.32-2.982 2.58-4.65 3.76l-1.282-.04c-4.077-4.72-5.25-4.63-11.204-6.43-5.053-1.504-21.586-10.083-20.711-16.038l1.499-.543c1.071-.599 2.119-1.969 2.962-2.928"/><path fill="#959493" d="M664.298 809.27c-5.053-1.504-21.586-10.083-20.711-16.038l1.499-.543c4.912 5.401 18.561 11.76 19.51 15.407z"/><path fill="#f9f9fa" d="M601.245 798.235c.138-20.543 17.319-14.343 13.961 7.908-1.546.441-3.919 1.027-5.323 1.631-5.408-1.448-6.719-4.789-8.638-9.539"/><path fill="#dededd" d="M649.152 726.635c5.024 10.21 5.716 14.119 3.369 25.606-10.144-.63-8.86-19.071-3.369-25.606"/><path fill="#dededd" d="M617.861 753.828c18.074 2.545 10.353 23.17 2.438 32.133-2.226-.579-5.033-1.233-6.97-2.442a10 10 0 0 1-4.569-6.496c-1.528-7.54 5.074-17.156 9.101-23.195"/><path fill="#dededd" d="M635.739 735.378c8.827.161 10.315 14.262 8.789 20.623l-1.028.607c-8.56-4.298-14.968-12.459-7.761-21.23"/><path fill="#7c7a7b" d="M504.863 702.387c5.502 1.561 11.349 3.35 16.328 6.233 18.488 8.852 30.176 20.682 25.781 42.486-3.653 18.128 15.899 11.558 21.818 19.74l-.048 1.431c-4.099 2.158-13.218-2.343-18.148-3.17-10.521 42.603 2.266 91.513-.462 134.303l-7.914 1.41c-1.084 19.66-1.294 49.51.395 69.12l-.555-.93c-10.742-9.24-32.24-17.41-46.376-18.44-6.295-.47-12.988-.1-19.335-.77l-.722-.08-4.422-.27c0-2.78.289-1.72-1.002-4.08-4.288-3.28-12.231-2.46-17.996-2.55 20.946-3.76 41.751-3.74 62.183 2.96 2.393.78 10.193 3.41 12.097 2.57l.005-1.47c-1.627-2.75-4.574-4.83-7.085-6.88.511-2 1.174-2.73 2.332-4.41l.731-1.15c-1.192-4.27-16.672-13.5-22.344-20.84 3.24-.36 8.653.66 10.58-1.77l-1.1-2.37.404-.42c4.807 1.91 10.59 5.6 16.376 8.08 3.984-.37 9.389-.07 11.042-4.24-.967-3.99-9.169-8.25-13.171-12.31 1.891-6.38-.108-7.28-4.658-11.26l1.079-2.63c2.088 1.02 5.652 2.08 7.972 2.85-4.407-8.58-15.172-17.38-22.464-24.06 3.37 1.22 9.424 3.93 12.7 2.9 1.258-.4 1.156-1 1.909-2.52-7.381-2.8-11.179-6.48-17.279-11.35l.481-.25-.844-1.96c1.606-.67 2.409-.8 3.342-2.16-.765-3.49-9.612-7.43-13.002-9.39-2.284 0-2.815.23-4.933.92l-1.143-.19c5.266-9 20.09 1.55 25.111-1.61-1.106-5.58-11.043-8.96-11.607-13.14 3.379-1.33 6.807.96 10.033-.25-.73-4.49-19.956-9.72-20.168-16.88 2.247-.57 13.782 4.96 16.734 6.26l-1.886-6.25c-1.565-2.19-1.734-1.74-1.879-4.08l1.014-1.102c2.877-1.917 2.799-1.811 3.019-5.058-1.415-1.627-2.316-2.387-2.683-4.552l.823-1.065c4.035-.679 7.099.923 10.752 2.539.75-.341.719-.442 1.354-1.022-.55-2.034-.921-1.895-2.574-3.492-.279-1.158-.248-1.35-.27-2.504 1.486.24 2.549.335 4.052.444l1.334 1.084.657-.143c-.364-2.641-6.38-14.202-7.887-17.36l5.808 4.643q1.173.404 2.366.744c2.236.622 2.385.923 4.01.028.19-2.396-.903-5.192-1.636-7.572-2.216-1.4-11.893-11.288-13.682-13.474l.215-.765 3.185-.249.533-.905c-.544-1.817-.783-2.239-.666-4.087l1.095-.178c2.121 1.758 4.837 3.935 7.426 1.555-.388-4.203-41.672-37.527-46.54-25.694-.175.425-1.365 12.152-1.526 13.732a1214 1214 0 0 1-1.78-14.848c-4.307.011-8.134.405-12.409.798 5.054-1.785 8.73-3.337 13.19-6.332-.732-5.406-1.437-8.443-3.467-13.451 7.163.007 16.05-.978 23.805-1.099 2.81-.118 6.13.559 8.024-.822 3.869-2.743 4.472-2.355 3.568-6.926"/><path fill="#202225" d="M504.767 808.418c13.979 7.522 25.716 14.372 35.326 27.622-3.825.04-9.568-.07-12.761 2.06-1.833 3.92 3.231 5.17 3.411 8.27-2.183.95-4.751 1.75-6.107 3.63-1.051 4.49 1.848 6.32 5.01 8.94-6.899 7.25 1.59 8.75-8.853 10.91-7.381-2.8-11.179-6.48-17.279-11.35l.481-.25-.844-1.96c1.606-.67 2.409-.8 3.342-2.16-.765-3.49-9.612-7.43-13.002-9.39-2.284 0-2.815.23-4.933.92l-1.143-.19c5.266-9 20.09 1.55 25.111-1.61-1.106-5.58-11.043-8.96-11.607-13.14 3.379-1.33 6.807.96 10.033-.25-.73-4.49-19.956-9.72-20.168-16.88 2.247-.57 13.782 4.96 16.734 6.26l-1.886-6.25c-1.565-2.19-1.734-1.74-1.879-4.08z"/><path fill="#dededd" d="M493.491 844.74c6.734-.73 23.851 5.88 25.069 12.91-2.544 4.4-10.492 1.55-14.565.6l-.844-1.96c1.606-.67 2.409-.8 3.342-2.16-.765-3.49-9.612-7.43-13.002-9.39"/><path fill="#bcbbba" d="M505.632 813.6c4.674 3.41 9.106 7.14 13.262 11.16-3.536-1.45-8.057-3.17-11.376-4.91z"/><path fill="#dededd" d="M504.863 702.387c5.502 1.561 11.349 3.35 16.328 6.233-2.614.563-3.936.254-6.529-.2l-.95.607.473 1.727c5.827 2.313 18.34 6.354 14.823 14.916-5.046 4.466-13.298-1.212-18.011-3.949-3.885.303-6.863 1.295-9.492 1.493l-1.242 2.63c-1.345.269-3.263.72-4.579.8-9.441-.911-12.066 1.318-22.751-1.959-.732-5.406-1.437-8.443-3.467-13.451 7.163.007 16.05-.978 23.805-1.099 2.81-.118 6.13.559 8.024-.822 3.869-2.743 4.472-2.355 3.568-6.926"/><path fill="#959493" d="M504.863 702.387c5.502 1.561 11.349 3.35 16.328 6.233-2.614.563-3.936.254-6.529-.2l-.95.607.473 1.727c-13.539-3.837-10.502 1.655-20.914-.619 2.81-.118 6.13.559 8.024-.822 3.869-2.743 4.472-2.355 3.568-6.926"/><path fill="#959493" d="M495.798 715.992c5.586 1.613 9.829 3.482 15.199 5.729-3.885.303-6.863 1.295-9.492 1.493l-1.242 2.63c-1.345.269-3.263.72-4.579.8z"/><path fill="#dededd" d="M540.093 836.04c4.036 4.8 6.444 24.12 1.861 28.09-3.484.78-5.691-.93-8.579-2.77-1.254-.79-2.497-1.6-3.729-2.42-3.162-2.62-6.061-4.45-5.01-8.94 1.356-1.88 3.924-2.68 6.107-3.63-.18-3.1-5.244-4.35-3.411-8.27 3.193-2.13 8.936-2.02 12.761-2.06"/><path fill="#f9f9fa" d="M523.892 775.132c2.53 1.443 4.321 3.245 6.468 5.202l1.92-1.371 2.486 3.23 2.431 2.391c2.15 2.207 4.892 5.703 7.601 6.233l-2.328 1.047c.628 2.404 1.505 4.467.767 6.718-.765.446-.873.604-1.709.833l-2.12.675a87 87 0 0 1-1.712-1.177c-2.136-1.51-4.718-3.346-5.177-6.022l-2.499-1.75c-1.011-.989-2.304-3.125-3.136-3.76-3.541-2.702-5.166-1.299-7.732-5.449q1.173.404 2.366.744c2.236.622 2.385.923 4.01.028.19-2.396-.903-5.192-1.636-7.572"/><path fill="#bcbbba" d="M532.519 792.891c1.936 1.451 7.152 5.546 9.009 6.524l-2.12.675a87 87 0 0 1-1.712-1.177c-2.136-1.51-4.718-3.346-5.177-6.022"/><path fill="#bcbbba" d="m535.706 784.705 1.491-.121c2.15 2.207 4.892 5.703 7.601 6.233l-2.328 1.047c-.635-.971-5.607-5.95-6.764-7.159"/><path fill="#7c7a7b" d="m530.36 780.334 1.92-1.371 2.486 3.23 2.431 2.391-1.491.121z"/><path fill="#101011" d="M507.786 803.36c-1.415-1.627-2.316-2.387-2.683-4.552l.823-1.065c4.035-.679 7.099.923 10.752 2.539l.406.408c4.573 4.541 17.482 12.49 17.711 17.92-6.198 1.5-21.441-11.984-27.009-15.25"/><path fill="#dededd" d="m530.02 791.141 2.499 1.75c.459 2.676 3.041 4.512 5.177 6.022q.85.599 1.712 1.177c1.525 1.995 3.022 3.443 2.284 6.021l-1.568.471c-5.32-.982-15.17-6.76-14.404-13.005 1.535-1.982 1.522-1.495 4.3-2.436"/><path fill="#101011" d="M501.505 723.214c4.942 1.214 16.455 3.862 17.315 9.749-3.967 4.572-15.212-4.12-18.557-7.119z"/><path fill="#f9f9fa" d="M539.386 773.978c4.07 5.583 5.542 9.914 5.412 16.839-2.709-.53-5.451-4.026-7.601-6.233l-2.431-2.391c.35-5.021.087-5.506 4.62-8.215"/><path fill="#bcbbba" d="M532.28 778.963c-.462-1.137-.755-2.516-1.054-3.727.636-2.343.081-1.599 2.006-2.85 2.506-.284 3.844.556 6.154 1.592-4.533 2.709-4.27 3.194-4.62 8.215z"/><path fill="#434243" d="M113.658 289.254c-2.978.465-7.001 1.773-8.64-1.11 1.326-3.643 6.983-6.089 10.416-7.962.781.133 5.485.974 5.97.952l.242.581c1.123 2.761 3.687 12.713 4.3 15.981 3.663 19.52 9.206 25.129 22.425 38.262-9.343 9.937 10.811 14.822 12.226 26.167-18.327-15.47-27.875-28.563-39.789-49.339-1.018 28.03-.702 55.94-1.7 83.713a5209 5209 0 0 0-2.498 73.51c-.271 8.329-2.485 49.726.194 53.401 13.721-4.194 27.618-3.24 41.621-1.868l2.354 1.846c7.953 1.688 20.066 2.887 28.332 3.855l.312.56c-3.78 10.226-4.894 32.834.146 42.55 3.724 4.029 7.046 1.95 11.523.182.664 10.539-1.462 18.725-4.185 28.875-.46 4.424-1.593 8.557-2.648 12.873l-.98 4.305-.697 1.183c-7.814.095-17.355-12.183-28.319-16.83-1.505-2.707-1.355-4.157-1.247-7.191 0-1.159-.017-.778-.589-1.939-5.091-1.737-11.462-2.592-16.838-3.376-11.92.299-21.044-2.775-32.142-6.834.238 29.682-1.724 61.275-2.833 91.077l-.98 27.766c-.1 3.497-.062 12.037-.498 15.075-.081 5.719-.2 10.971.186 16.678l-1.511.338c-1.74.301-2.939.564-4.726.565-2.277-23.658 2.426-64.393 3.251-89.758 1.149-35.305-2.876-78.942.56-113.063l-9.937-4.828c3.243-.847 6.625-1.937 9.846-2.914 2.826-26.342 3.308-51.843 4.217-78.293 1.419-43.542 2.3-87.1 2.641-130.664l-6.234-5.206c10.138-6.088 8.591-8.7 6.229-19.12m47.664 263.003c.336 5.938.983 10.327 2.135 16.203.416 1.805.46 2.788 1.695 4.17 9.788.867 16.458-29.294 11.491-36.98-5.225-8.086-11.974-11.599-14.326.484-.899 6.045-1.107 9.962-.995 16.123m-16.932-19.583c-2.871-.23-5.927-.532-8.785-.685-1.714 1.754-4.13 4.459-6.16 5.632-1.295 4.823.303 27.115 2.288 32.811.352 1.009.848.905 1.889 1.271 1.058-1.005 1.387-1.283 2.596-2.094 1.236.728 1.955 1.116 3.261 1.708l1.132-.565c4.666-6.449 3.812-29.654 3.779-38.078m3.564 51.11c5.938 5.056 19.336 7.009 21.37-3.614-6.749-.538-15.847-1.462-21.602 2.738z"/><path fill="#101011" d="M160.779 523.388c7.953 1.688 20.066 2.887 28.332 3.855l.312.56c-3.78 10.226-4.894 32.834.146 42.55 3.724 4.029 7.046 1.95 11.523.182.664 10.539-1.462 18.725-4.185 28.875-.46 4.424-1.593 8.557-2.648 12.873l-.98 4.305-.697 1.183c-7.814.095-17.355-12.183-28.319-16.83-1.505-2.707-1.355-4.157-1.247-7.191 0-1.159-.017-.778-.589-1.939-5.091-1.737-11.462-2.592-16.838-3.376l2.365-4.651c5.938 5.056 19.336 7.009 21.37-3.614-6.749-.538-15.847-1.462-21.602 2.738l-2.139-.533c-1.956-4.66 2.486-9.563 6.213-11.924 2.698-.198 2.017-.053 4.729 1.518l.964-.846.217-.886c1.471-1.508 3.523-1.462 5.751-1.777.416 1.805.46 2.788 1.695 4.17 9.788.867 16.458-29.294 11.491-36.98-5.225-8.086-11.974-11.599-14.326.484l-1.638-.576c.45-2.516.154-9.304.1-12.17"/><path fill="#605f5f" d="M169.324 580.17c9.825-.491 9.105 4.244 13.708 5.595 7.585 8.554 8.366 9.867 6.055 21.174 2.218 1.851 3.677 2.86 5.172 5.344l-.98 4.305-.697 1.183c-7.814.095-17.355-12.183-28.319-16.83-1.505-2.707-1.355-4.157-1.247-7.191 0-1.159-.017-.778-.589-1.939-5.091-1.737-11.462-2.592-16.838-3.376l2.365-4.651c5.938 5.056 19.336 7.009 21.37-3.614"/><path fill="#dededd" d="m163.016 593.75.723-1.533c1.448-.475 2.498-1.04 3.997.087 8.815 6.631 17.465 16.96 25.543 24.284l-.697 1.183c-7.814.095-17.355-12.183-28.319-16.83-1.505-2.707-1.355-4.157-1.247-7.191"/><path fill="#959493" d="M183.032 585.765c2.246-.341 6.011-.292 7.113-1.409.39-2.297.749-6.468 2.189-7.961 5.179 2.529 2.955 17.585 4.573 23.015-.46 4.424-1.593 8.557-2.648 12.873-1.495-2.484-2.954-3.493-5.172-5.344 2.311-11.307 1.53-12.62-6.055-21.174"/><path fill="#101011" d="M116.804 523.41c13.721-4.194 27.618-3.24 41.621-1.868-.604 2.911-1.434 6.408-1.906 9.287-3.172 1.271-8.585 1.532-12.129 1.845-2.871-.23-5.927-.532-8.785-.685-1.714 1.754-4.13 4.459-6.16 5.632-3.722-.56-5.052-.715-8.785-.583-3.369-1.653-4.589-3.585-6.767-6.552.4-2.829.703-5.249 2.911-7.076"/><path fill="#7c7a7b" d="m158.425 521.542 2.354 1.846c.054 2.866.35 9.654-.1 12.17l1.638.576c-.899 6.045-1.107 9.962-.995 16.123.336 5.938.983 10.327 2.135 16.203-2.228.315-4.28.269-5.751 1.777l-.217.886-.949-.753c-4.447-7.727-.566-12.415-3.502-17.878 1.052-3.854.83-8.319.625-12.276l1.959.106c.393-2.954.622-6.48.897-9.493.472-2.879 1.302-6.376 1.906-9.287"/><path fill="#202225" d="M159.571 546.491c1.155 2.159 1.29 3.415 1.751 5.766.336 5.938.983 10.327 2.135 16.203-2.228.315-4.28.269-5.751 1.777 1.031-3.18.653-17.629 1.865-23.746"/><path fill="#605f5f" d="M155.622 540.322c.11 7.595-.092 15.006-.179 22.589-.026 2.277.912 5.324 1.097 7.459-4.447-7.727-.566-12.415-3.502-17.878 1.052-3.854.83-8.319.625-12.276z"/><path fill="#605f5f" d="M159.571 546.491c-.252-2.864.631-7.944 1.108-10.933l1.638.576c-.899 6.045-1.107 9.962-.995 16.123-.461-2.351-.596-3.607-1.751-5.766"/><path fill="#dededd" d="M113.893 530.486c2.178 2.967 3.398 4.899 6.767 6.552.17 4.13-5.278 32.372-8.069 34.597-5.647-3.822-2.803-34.32 1.302-41.149"/><path fill="#dededd" d="M149.238 562.531c-1.427-5.896-4.199-19.721.519-24.119 2.268-.022 1.717.111 3.906 1.804.205 3.957.427 8.422-.625 12.276-1.302 3.285-2.547 6.722-3.8 10.039"/><path fill="#adabab" d="M107.811 732.535c-1.543-.105-1.504-.05-2.868-.724-1.684-4.338-.739-19.859 3.382-22.268 1.275 1.971.798 3.256.811 5.976-.081 5.719-.2 10.971.186 16.678z"/><path fill="#959493" d="M647.978 269.842c2.356-.111 1.475-.409 3.29 1.122.989 2.643 1.131 4.043 1.543 6.816-.534 12.897.566 17.069.917 28.263-2.264 1.602-1.693.796-2.701 3.027.351 1.729.989 3.167 2.979 3.66.958 9.262.021 21.985.654 32.2a366 366 0 0 0 2.09 23.342c.623 4.794 1.897 11.284 2.264 15.83 3.966 38.587 3.911 76.779 7.108 115.218 1.737 20.879 3.358 38.88 3.652 59.924l-1.305.021c-2.116-2.178-2.998-3.015-4.571-5.593l1.314-1.364a36.2 36.2 0 0 0 .13-21.197c-1.367-4.414-2.47-4.968-6.351-7.042-2.535-2.816-5.867-2.082-9.456-2.035-1.945-5.296-3.081-12.176-9.457-13.176 1.764-1.797.035-4.721-.623-6.857.827-2.005 1.979-1.914 4.54-2.993-.344-6.976-13.68-7.846-15.926-12.364l1.378-2.573-.266-.307c-6.164-.689-16.597-2.245-20.693-7.391-.985-1.237-.445-2.192-.161-3.649l-1.851-.778c-1.271.593-1.663.556-3.022.68l-.811-.831c.339-3.641 3.967-7.07 6.452-9.595-1.944-1.189-3.959-2.193-5.214-4.084-.909-2.344-.177-4.088.458-6.547-3.869-6.277-2.441-4.645-2.206-11.847.037-1.126-1.059-1.728-2.11-2.72.455-.923 3.262-4.109 4.101-5.099.95-3.012 1.014-4.65 1.294-7.812.004-4.627-.213-8.811-.47-13.421-.813-2.29-1.653-17.324-1.937-20.63 1.85 5.857 3.381 10.99 6.718 16.21 3.169.01 9.613.537 11.642-1.255l2.4-2.784c.037-2.364-4.918-2.859-7.578-6.085-1.46-5.464 3.362-1.888 5.353-5.873-.491-2.259-2.227-3.456-3.989-5.128 3.232-.047 4.937-.209 8.035.651 1.07-.824 1.048-.729 1.437-2.011-.942-2.026-4.989-4.854-7.009-6.631l4.938-4.252c-4.426-10.33-10.515-15.866-21.384-18.624 16.023-15.04 30.592-30.098 43.727-47.851.767-6.287 1.297-30.755.677-36.565m3.446 152.59c.422 7.737 1.472 9.713 5.501 16.503.814.408.667.289 1.607.423.147-.27.656-1.273.676-1.486 1.333-14.376 1.885-35.498-4.428-48.311-2.096 2.735-2.432 3.821-2.459 7.504.525 6.949-.746 17.838-.897 25.367"/><path fill="#605f5f" d="M647.978 269.842c2.356-.111 1.475-.409 3.29 1.122.989 2.643 1.131 4.043 1.543 6.816-.534 12.897.566 17.069.917 28.263-2.264 1.602-1.693.796-2.701 3.027.351 1.729.989 3.167 2.979 3.66.958 9.262.021 21.985.654 32.2a366 366 0 0 0 2.09 23.342c.623 4.794 1.897 11.284 2.264 15.83a465 465 0 0 1-4.234 5.459c-2.096 2.735-2.432 3.821-2.459 7.504-1.611-.084-1.657-.123-3.057-.988-.931-2.945.511-1.855.907-5.603-2.944-1.78-12.415.724-16.265 1.491-2.333-1.373-7.284-3.99-8.314-6.189 1.07-.824 1.048-.729 1.437-2.011-.942-2.026-4.989-4.854-7.009-6.631l4.938-4.252c-4.426-10.33-10.515-15.866-21.384-18.624 16.023-15.04 30.592-30.098 43.727-47.851.767-6.287 1.297-30.755.677-36.565"/><path fill="#bcbbba" d="M645.491 317.766c9.132 3.681 7.493 17.148 5.776 25.158-.595 2.773-1.853 4.5-4.416 5.846-2.739-.592-6.382-1.057-7.95-3.406.064-5.137 4.409-22.675 6.59-27.598"/><path fill="#101011" d="M617.557 385.125c3.232-.047 4.937-.209 8.035.651 1.03 2.199 5.981 4.816 8.314 6.189 3.85-.767 13.321-3.271 16.265-1.491-.396 3.748-1.838 2.658-.907 5.603 1.4.865 1.446.904 3.057.988.525 6.949-.746 17.838-.897 25.367.422 7.737 1.472 9.713 5.501 16.503-2.39-.776-5.139-1.802-6.511-3.971-2.987 4.242-9.844 1.492-12.517-1.834l-3.694-.254.325 1.543c2.405 1.212 4.811 2.332 7.022 3.867-7.938 1.058-12.796 1.026-20.826.617l-8.118-1.977c-2.333-.956-5.208-2.843-7.435-4.201l-1.047-.822c.95-3.012 1.014-4.65 1.294-7.812.004-4.627-.213-8.811-.47-13.421-.813-2.29-1.653-17.324-1.937-20.63 1.85 5.857 3.381 10.99 6.718 16.21 3.169.01 9.613.537 11.642-1.255l2.4-2.784c.037-2.364-4.918-2.859-7.578-6.085-1.46-5.464 3.362-1.888 5.353-5.873-.491-2.259-2.227-3.456-3.989-5.128"/><path fill="#dededd" d="M603.011 390.04c1.85 5.857 3.381 10.99 6.718 16.21 3.169.01 9.613.537 11.642-1.255 4.082 1.647 5.671 1.673 6.739 6.203 2.565 3.232 9.632 3.959 10.887 8.385-.569 2.333-.196 1.46-2.038 3.473-2.759 1.247-6.395.614-9.498.366 4.679 2.241 10.457 3.756 10.436 9.708l-3.694-.254.325 1.543c2.405 1.212 4.811 2.332 7.022 3.867-7.938 1.058-12.796 1.026-20.826.617l-8.118-1.977c-2.333-.956-5.208-2.843-7.435-4.201l-1.047-.822c.95-3.012 1.014-4.65 1.294-7.812.004-4.627-.213-8.811-.47-13.421-.813-2.29-1.653-17.324-1.937-20.63"/><path fill="#dededd" d="M605.418 424.091c1.887.697 2.038 1.553 3.444 3.392 2.047.38 4.819.985 6.817 1.244l.084-1.094c3.74.886 15.816 3.52 18.44 5.243l.325 1.543c2.405 1.212 4.811 2.332 7.022 3.867-7.938 1.058-12.796 1.026-20.826.617l-8.118-1.977c-2.333-.956-5.208-2.843-7.435-4.201l-1.047-.822c.95-3.012 1.014-4.65 1.294-7.812"/><path fill="#bcbbba" d="M615.763 427.633c3.74.886 15.816 3.52 18.44 5.243l.325 1.543c-5.206-2.291-13.203-4.23-18.849-5.692z"/><path fill="#bcbbba" d="M605.418 424.091c1.887.697 2.038 1.553 3.444 3.392l-3.691 5.242-1.047-.822c.95-3.012 1.014-4.65 1.294-7.812"/><path fill="#adabab" d="M603.011 390.04c1.85 5.857 3.381 10.99 6.718 16.21 3.169.01 9.613.537 11.642-1.255 4.082 1.647 5.671 1.673 6.739 6.203-6.968-5.47-15.147-5.618-22.725-1.312l-.437.784c-.813-2.29-1.653-17.324-1.937-20.63"/><path fill="#adabab" d="M604.948 410.67c1.94 1.994 5.592 5.35 6.6 7.729-1.947 2.107-2.789 2.242-2.784 4.535 1.226 2.149 4.73 3.853 6.999 4.699l-.084 1.094c-1.998-.259-4.77-.864-6.817-1.244-1.406-1.839-1.557-2.695-3.444-3.392.004-4.627-.213-8.811-.47-13.421"/><path fill="#959493" d="M617.557 385.125c3.232-.047 4.937-.209 8.035.651 1.03 2.199 5.981 4.816 8.314 6.189 3.85-.767 13.321-3.271 16.265-1.491-.396 3.748-1.838 2.658-.907 5.603 1.4.865 1.446.904 3.057.988.525 6.949-.746 17.838-.897 25.367-.434-.658-.543-1.851-.707-2.708l-.968 1.576c-.925-1.017-3.025-1.522-4.515-2.138 9.137-19.304-9.351-15.056-20.955-16.868l-.508-.083c.037-2.364-4.918-2.859-7.578-6.085-1.46-5.464 3.362-1.888 5.353-5.873-.491-2.259-2.227-3.456-3.989-5.128"/><path fill="#adabab" d="m649.749 421.3.968-1.576c.164.857.273 2.05.707 2.708.422 7.737 1.472 9.713 5.501 16.503-2.39-.776-5.139-1.802-6.511-3.971-1.967-1.769-4.765-3.879-6.88-5.576 3.524-3.159 4.313-3.725 6.215-8.088"/><path fill="#dededd" d="m604.124 431.903 1.047.822c2.227 1.358 5.102 3.245 7.435 4.201l8.118 1.977.135 1.701c7.997 3.877 13.264 7.399 20.561 12.523.881 2.396.611 3.882 1.342 6.127l7.82 5.14c1.034 2.116 3.551 6.312 2.566 8.508-2.459-.914-6.184-2.089-8.144-3.623-2.95.988-2.38.37-4.318 2.5-.227 1.161-.494 2.141-.425 3.322l.304 2.288c-1.19 1.245-.471.898-2.264.99-5.405.908-5.664 1.099-9.12 5.385-6.164-.689-16.597-2.245-20.693-7.391-.985-1.237-.445-2.192-.161-3.649l-1.851-.778c-1.271.593-1.663.556-3.022.68l-.811-.831c.339-3.641 3.967-7.07 6.452-9.595-1.944-1.189-3.959-2.193-5.214-4.084-.909-2.344-.177-4.088.458-6.547-3.869-6.277-2.441-4.645-2.206-11.847.037-1.126-1.059-1.728-2.11-2.72.455-.923 3.262-4.109 4.101-5.099"/><path fill="#434243" d="m604.339 451.569.193 2.582c10.47 3.723 20.599 8.9 30.947 12.534 2.968 1.042 8.877-2.413 9.525 2.594-2.95.988-2.38.37-4.318 2.5-.227 1.161-.494 2.141-.425 3.322l.304 2.288c-1.19 1.245-.471.898-2.264.99-5.405.908-5.664 1.099-9.12 5.385-6.164-.689-16.597-2.245-20.693-7.391-.985-1.237-.445-2.192-.161-3.649l-1.851-.778c-1.271.593-1.663.556-3.022.68l-.811-.831c.339-3.641 3.967-7.07 6.452-9.595-1.944-1.189-3.959-2.193-5.214-4.084-.909-2.344-.177-4.088.458-6.547"/><path fill="#dededd" d="M606.476 471.946c9.274-7.124 24.434-1.723 33.785 3.155l.304 2.288c-1.19 1.245-.471.898-2.264.99-5.405.908-5.664 1.099-9.12 5.385-6.164-.689-16.597-2.245-20.693-7.391-.985-1.237-.445-2.192-.161-3.649z"/><path fill="#7c7a7b" d="M608.327 472.724c8.988 2.148 21.966 3.24 29.974 5.655-5.405.908-5.664 1.099-9.12 5.385-6.164-.689-16.597-2.245-20.693-7.391-.985-1.237-.445-2.192-.161-3.649"/><path fill="#bcbbba" d="M642.762 459.254c-6.708-2.261-24.628-7.304-30.108-10.01 9.007 1.54 17.378 5.126 26.327 6.803 1.733-.816 1.291-.828 2.439-2.92.881 2.396.611 3.882 1.342 6.127"/><path fill="#959493" d="m604.124 431.903 1.047.822c2.227 1.358 5.102 3.245 7.435 4.201l-1.202 1.054c-4.795-.88-6.556-.934-11.381-.978.455-.923 3.262-4.109 4.101-5.099"/><path fill="#bcbbba" d="m612.606 436.926 8.118 1.977.135 1.701c-3.137-1.183-6.206-1.845-9.455-2.624z"/><path fill="#101011" d="M645.004 469.279c1.96 1.534 5.685 2.709 8.144 3.623a15.97 15.97 0 0 1 3.973 11.738c-.178 2.371-.735 3.383-2.631 4.736-1.237-.625-1.946-.954-3.243-1.44-9.226 7.085-12.498-.358-21.8-3.865l-.266-.307c3.456-4.286 3.715-4.477 9.12-5.385 1.793-.092 1.074.255 2.264-.99l-.304-2.288c-.069-1.181.198-2.161.425-3.322 1.938-2.13 1.368-1.512 4.318-2.5"/><path fill="#7c7a7b" d="m476.115 604.38 5.277.683c1.696 1.615 3.424 1.575 5.881 1.439 16.781-.928 25.818-1.81 38.875 10.507 8.954 8.446 13.757 20.537 14.009 32.907a49.42 49.42 0 0 1-14.147 35.365c-5.104 5.296-10.583 8.61-17.116 11.759-1.572.758-6.05 2.651-7.129 3.619 1.378 1.101 1.446 1.161 3.098 1.728.904 4.571.301 4.183-3.568 6.926-1.894 1.381-5.214.704-8.024.822-7.755.121-16.642 1.106-23.805 1.099-.952-1.396-1.06-1.425-2.495-2.375-2.617-.692-4.892.185-7.536.875a743 743 0 0 0-19.578 5.605c8.552-7.111 9.114-7.915 13.143-18.305 3.271-8.433-6.09-31.111-12.927-25.429l-.683-.981.381-2.629c-.677-2.034-2.424-3.041-4.186-4.441-2.008-1.282-3.6-3.147-5.252-4.882q-.241-.99-.466-1.984c-1.475-6.47-2.497-13.47 6.172-14.439l.661-.07c.612-2.348-2.936-6.25-2.19-11.159 1.322-8.697 5.565-15.448 7.196-23.899 9.957 7.382 16.832 13.638 20.211 26.372 2.349-6.817 10.642-22.826 14.198-29.113m42.427 60.134c-1.419-2.529-4.222-6.9-4.535-9.568 2.58-1.416 2.512.601 4.751-1.578.109-3.594-4.696-8.721-7.097-11.259a59 59 0 0 0-.651-.677l8.12 3.058c-1.137-5.072-2.26-10.497-3.565-15.497 4.599 6.06 13.304 23.378 18.917 24.248 1.588-1.773 1.336-3.23 1.288-5.68-.174-8.711-5.974-14.005-12.113-19.608-11.369-6.96-16.804-2.6-28.726-7.104-1.623 2.182-6.487 5.467-8.879 7.121-9.304 6.435-15.29 18.276-14.047 29.594a23.85 23.85 0 0 0 9.009 16.22c7.357 5.778 21.144 8.482 27.632.241 1.601-2.034 1.802-7.834 2.034-10.394z"/><path fill="#dededd" d="M441.706 607.121c9.957 7.382 16.832 13.638 20.211 26.372-3.125 6.816-13.608 26.809-21.16 30.255-1.128.515-3.887.125-5.172-.194-2.008-1.282-3.6-3.147-5.252-4.882q-.241-.99-.466-1.984c-1.475-6.47-2.497-13.47 6.172-14.439l.661-.07c.612-2.348-2.936-6.25-2.19-11.159 1.322-8.697 5.565-15.448 7.196-23.899"/><path fill="#202225" d="M459.435 709.734c-4.433-18.717 30.571-20.082 41.86-.421-1.894 1.381-5.214.704-8.024.822-7.755.121-16.642 1.106-23.805 1.099-.952-1.396-1.06-1.425-2.495-2.375-2.617-.692-4.892.185-7.536.875"/><path fill="#959493" d="M494.931 620.849c4.068-15.028 24.379-2.622 28.726 7.104-11.369-6.96-16.804-2.6-28.726-7.104"/><path fill="#434243" d="M516.724 347.067c-2.762-3.426-6.616-6.616-5.121-11.136l.834-.345c4.748 1.855 7.375 9.07 12.357 8.46 1.462-1.573 1.452-1.974 1.748-4.13 1.357 3.71 2.712 7.634 4.274 11.245-2.093 4.64-3.207 6.973-6.239 11.215 4.69 3.202 7.317 4.8 10.616 9.565-.707 2.549-1.727 5.23-1.211 7.754l1.245 1.535c-.577 5.625-1.265 10.576 2.113 15.231-1.384 6.223-5.928 17.795-8.277 24.315l-15.18 42.172c-2.972 8.308-5.923 16.492-8.531 24.956-1.345 4.368-3.52 20.028-6.136 21.77-1.454-.56-4.378-2.333-4.43-2.348-10.651-1.855-8.202-21.253-7.741-29.4-3.134-1.722-6.568-4.084-9.6-6.061-5.092-3.078-18.474-9.335-24.007-11.129a28 28 0 0 1-2.554-2.345c-3.092-3.213-11.107-12.251-11.025-16.49l1.075-.591c2.435.348 5.224 2.748 7.323 4.279.643-3.712-3.945-9.365-.615-11.93 2.959-.176 7.094 1.827 9.995 2.977-4.42-5.259-22.204-18.177-19.104-24.555 6.846-1.567 17.978 11.429 23.073 14.814l3.878-.141c.021-2.632-5.485-8.648-7.124-15.473 5.323 3.48 9.951 6.246 15.484 9.39-3.732-8.944-16.821-22.583-16.715-27.501l.994-.092c7.503 4.014 17.861 17.405 23.589 24.308-5.487-13.312-12.355-20.241-20.976-31.454-.633-.824-.387-1.542-.05-2.37 2.934.467 8.002 5.636 10.257 7.923 9.037 9.167 17.428 16.233 28.26 23.237l-8.859-11.651c-3.082-2.757-30.937-32.956-31.41-34.342-.182-.531.118-.797.348-1.28 6.256.229 25.035 21.026 31.713 25.503l.517.34c-.33-1.796-1.181-4.405-1.711-6.226 1.785-2.999 3.375-5.044 5.479-7.785.843 0 .743.005 1.476-.284 8.701-3.437.337-8.637 2.339-14.326 1.961-1.759 5.714-2.037 8.346-3.102-.357-9.169.235-11.363 9.283-14.502m-53.238 80.657-1.579.872c-1.43 7.653 11.288 14.159 12.689 18.197l2.403 1.193c2.042-.331 1.332.084 2.637-1.586 1.86-9.787-8.149-16.171-16.15-18.676m33.295 29.852c-.864-5.49-8.24-18.39-15.059-17.259l-.92 1.364c-.423 3.242 1.438 7.231 3.183 9.898 4.656 2.868 7.365 5.022 12.796 5.997m6.577-18.867c-1.827-10.801-8.74-23.088-19.489-27.047.368 16.002 5.956 19.923 19.489 27.047"/><path fill="#adabab" d="M457.637 436.636c-4.42-5.259-22.204-18.177-19.104-24.555 6.846-1.567 17.978 11.429 23.073 14.814l3.878-.141-1.998.97-1.579.872c-1.43 7.653 11.288 14.159 12.689 18.197.069 2.111 5.892 12.744 7.448 16.342-4.862-2.982-8.451-6.684-13.118-9.897-.511 10.705-16.652 7.114-18.49-1.026-.681-3.017-.083-4.09-2.179-6.623.643-3.712-3.945-9.365-.615-11.93 2.959-.176 7.094 1.827 9.995 2.977"/><path fill="#7c7a7b" d="M507.441 361.569c6.423 1.335 11.614 1.101 15.058 7.975 6.931 13.835-3.34 17.579-14.496 15.467 3.363 4.408 7.746 9.834 10.822 14.315-6.708-3.663-14.207-7.199-19.195-13.114-1.768-2.096-2.859-5.16-4.35-6.931.843 0 .743.005 1.476-.284 8.701-3.437.337-8.637 2.339-14.326 1.961-1.759 5.714-2.037 8.346-3.102"/><path fill="#7c7a7b" d="M490.344 403.071c-3.082-2.757-30.937-32.956-31.41-34.342-.182-.531.118-.797.348-1.28 6.256.229 25.035 21.026 31.713 25.503l.517.34c2.106 1.542 3.42 3.016 5.526 4.666 5.573 4.364 13.054 6.835 14.418 14.346l-.419 1.375c-6.385.979-12.733-10.401-20.693-10.608"/><path fill="#dededd" d="m496.781 457.576.887-.248 3.043 4.109.977.089c3.082-3.667 1.78-8.418 5.039-11.225 3.165.639 4.145 2.491 6.131 5.14-1.856 5.448-7.469 23.903-11.567 26.546-.553-.113-1.064-.123-1.434-.414-.621-9.798-5.168-13.644-11.435-20.804l.653-2.076-1.029-1.046c-1.701-2.118-2.66-3.754-4.061-6.068 4.656 2.868 7.365 5.022 12.796 5.997"/><path fill="#101011" d="M477.445 471.865c5.405-5.099 5.435-2.527 7.433-11.163l2.537-.14 1.007.207c6.267 7.16 10.814 11.006 11.435 20.804-5.042-.753-8.068-1.93-12.812-3.647-3.134-1.722-6.568-4.084-9.6-6.061"/><path fill="#bcbbba" d="M487.415 460.562c-2.193-.561-3.243-.441-4.152-2.535 2.048-1.126 2.011-.673 4.783-.38l1.029 1.046-.653 2.076z"/><path fill="#adabab" d="M515.429 419.125c15.023 1.042 3.384 22.972.075 30.764-.978.984-.4.677-1.825.886-9.001-6.938-.657-22.363 1.75-31.65"/><path fill="#7c7a7b" d="M499.494 392.126c9.915 1.807 15.822 11.035 19.416 19.738-6.759-1.761-17.192-13.152-19.416-19.738"/><path fill="#7c7a7b" d="M299.765 575.636c3.038.385 5.059.548 8.116.628-.047 4.749-.004 9.418-.44 14.142-.222 2.405-3.616 4.522-2.842 5.667 16.354 24.193 26.777 51.218 39.907 77.254-2.888-3.061-5.918-6.395-8.854-9.374-6.757 2.536-19.621 10.1-25.128 14.827-1.127 2.359-1.484 2.054-.898 4.153 4.865 4.98 11.798 6.784 17.059 10.249 7.027 4.63 15.383 13.746 20.509 20.284-5.761 4.07-8.772 5.467-15.751 7.089-12.787-9.411-17.924-11.579-34.068-12.792-1.822-.354-4.379-.39-6.285-.486-4.992-.663-12.126-1.416-16.861-2.509l-.046-3.989c1.774-5.322 3.498-15.225 4.586-20.853-6.185-3.943-12.823-5.243-18.705-10.738-17.427-16.28-18.412-44.306-2.035-61.727 11.335-12.058 24.531-12.087 39.769-12.418a647 647 0 0 0 1.967-19.407m-.781 75.952c6.683 1.045 12.346 3.222 15.079-4.761.319-2.842.755-7.004.949-9.65 2.21-30.035-11.382-17.612-22.342-30.519l-.373-.446c-12.352 5.277-24.818 10.35-30.354 23.758-4.261 10.317-1.576 22.812 9.746 26.845 10.037 3.575 18.681-.286 27.295-5.227"/><path fill="#101011" d="m317.325 655.799 2.149 2.69-3.532 2.901-1.665 2.172c-5.607 6.174-6.275 6.94-3.753 15.218-1.127 2.359-1.484 2.054-.898 4.153 4.865 4.98 11.798 6.784 17.059 10.249 7.027 4.63 15.383 13.746 20.509 20.284-5.761 4.07-8.772 5.467-15.751 7.089-12.787-9.411-17.924-11.579-34.068-12.792-1.822-.354-4.379-.39-6.285-.486-4.992-.663-12.126-1.416-16.861-2.509l-.046-3.989c1.774-5.322 3.498-15.225 4.586-20.853.255-1.539.342-1.59 1.288-2.878l4.403-.655c-.561-1.575-2.631-2.743-4.104-3.822.126-.869.247-.868.67-1.692 2.495-.93 9.726-.299 12.905-.174l1.984-.919c-1.359-1.3-1.871-1.585-2.507-3.287 1.41-4.749 6.442-5.64 10.756-4.722.897 1.317.975 1.643 2.361 2.279 2.628-.906 8.233-6.086 10.8-8.257"/><path fill="#7c7a7b" d="M295.915 669.786c1.844 1.449 1.725.879 2.081 2.661l-1.334.318c-1.025-.719-1.773-1.254-2.731-2.06z"/><path fill="#959493" d="M280.356 672.571c-.504.288-1.515.73-2.107.639-21.642-3.116-31.263-33.137-24.198-51.462 3.185-8.262 15.111-15.191 23.301-17.34 3.377-.885 7.227-2.97 10.678-2.678 2.711 1.338 2.306 1.652 4.267 4.482-12.352 5.277-24.818 10.35-30.354 23.758-4.261 10.317-1.576 22.812 9.746 26.845 10.037 3.575 18.681-.286 27.295-5.227 6.683 1.045 12.346 3.222 15.079-4.761 2.039 1.68 3.715 2.734 4.607 5.204.051 1.966-.143 2.185-1.345 3.768-2.567 2.171-8.172 7.351-10.8 8.257-1.386-.636-1.464-.962-2.361-2.279-4.314-.918-9.346-.027-10.756 4.722.636 1.702 1.148 1.987 2.507 3.287l-1.984.919c-3.179-.125-10.41-.756-12.905.174-.423.824-.544.823-.67 1.692"/><path fill="#adabab" d="M319.474 658.489c1.519-3.601 2.887-8.44 7.033-9.574 4.507 2.665.091 12.58-1.817 15.948-3.201-2.395-4.884-2.633-8.748-3.473z"/><path fill="#bcbbba" d="m314.277 663.562 1.665-2.172c3.864.84 5.547 1.078 8.748 3.473-2.289 3.26-4.868 8.378-9.261 6.095-1.547-2.106-1.169-4.695-1.152-7.396"/><defs><linearGradient id="d" x1="130.277" x2="93.643" y1="884.632" y2="1023.282" gradientUnits="userSpaceOnUse"><stop offset="0" stop-color="#050302"/><stop offset="1" stop-color="#24292d"/></linearGradient></defs><path fill="url(#d)" d="M164.885 900.385c2.45-2.838 2.677-5.477 5.37-6.675l2.32 1.189 2.529 2.019c-3.61 15.586-5.821 26.549-7.77 42.606-5.958 4.72-6.884 6.072-10.372 12.876-1.311 1.448-2.041 2.087-2.881 3.881-1.485.443-4.607 1.471-6.002 1.676-2.223 4.067-2.534 5.731-3.566 10.192-1.046 4.522-1.679 20.705 3.154 22.501-1.023 2.681-.381 3.309 1.605 5.544.503 3.976.654 6.886 3.036 10.256-2.77.35-3.445.37-5.744 2.1-3.889-6.09-9.622-10.986-15.001-15.749-4.524 2.391-7.339 4.679-12.256 5.43-3.407-1.116-10.779-1.217-14.763-1.869-7.489-1.226-15.405-2.561-22.72-.028-10.909 3.776-18.265 25.216-31.601 16.236-8.048-6.04 6.74-24.073 10.848-28.975 7.622-9.535 14.238-19.329 24.145-26.668 7.191-5.754 16.247-8.175 22.418-15.27 3.535-4.066-2.038-6.863-5.183-9.15l.634-8.407c1.787-.001 2.986-.264 4.726-.565l1.511-.338c3.819-.089 9.62-.287 13.253.283 15.316 2.403 18.016 6.208 33.763 2.853 1.808 2.032 2.516 2.9 4.707 4.55l1.176-.188.605-1.223c-.562-4.178-7.544-11.097-10.745-15.019 3.5.922 7.618 1.702 11.199 2.473-4.292-4.837-6.537-5.067-6.331-12.016 2.265-1.464 4.129-.081 6.795.15 1.356-1.931.946-1.985 1.141-4.675m-67.902 70.514c-1.399-2.325-2.398-6.747-2.78-9.46-1.38-1.095-2.732-2.54-4.665-2.191-11.461 2.068-18.134 17.804-7.885 25.572a80 80 0 0 0 4.034 2.821c5.65-4.15 9.868-7.372 11.064-14.909q.15-.912.232-1.833m35.832-13.893c2.331.015 5.13.102 7.414-.012 5.71-2.729 8.172-19.077 5.505-23.829-1.948-1.54-4.383-1.435-6.919-1.65-1.571.126-3.4-.08-4.143 1.05-3.359 5.108-2.742 18.889-1.857 24.441" transform="translate(0 -191)"/><path fill="#dededd" d="M94.203 770.439c2.204-4.2.696-10.768 8.453-9.028 5.279 1.184 8.205 3.875 13.502 1.535l.969-1.119c3.937 1.326 11.763 4.315 15.688 4.179 2.331.015 5.13.102 7.414-.012l5.509.54 2.341.423c-2.223 4.067-2.534 5.731-3.566 10.192-1.046 4.522-1.679 20.705 3.154 22.501-1.023 2.681-.381 3.309 1.605 5.544.503 3.976.654 6.886 3.036 10.256-2.77.35-3.445.37-5.744 2.1-3.889-6.09-9.622-10.986-15.001-15.749-4.524 2.391-7.339 4.679-12.256 5.43-7.462-9.139-4.166-18.219-.96-28.193l-.516-.887c-4.385.392-12.059 6.66-16.541 9.257-1.237-2.604-2.377-5.391-4.307-7.509-1.399-2.325-2.398-6.747-2.78-9.46"/><path fill="#7c7a7b" d="m116.158 762.946.969-1.119c3.937 1.326 11.763 4.315 15.688 4.179 2.331.015 5.13.102 7.414-.012l5.509.54 2.341.423c-2.223 4.067-2.534 5.731-3.566 10.192-1.046 4.522-1.679 20.705 3.154 22.501-1.023 2.681-.381 3.309 1.605 5.544.503 3.976.654 6.886 3.036 10.256-2.77.35-3.445.37-5.744 2.1-3.889-6.09-9.622-10.986-15.001-15.749 2.19-.472 7.56.065 8.568-1.689 3.524-6.131.941-20.08.028-26.424-4.706-3.922-5.301-4.869-11.252-4.989-5.488-1.028-8.017-2.896-12.749-5.753"/><path fill="#202225" d="m116.158 762.946.969-1.119c3.937 1.326 11.763 4.315 15.688 4.179 2.331.015 5.13.102 7.414-.012l5.509.54c-5.326.659-11.617 1.683-16.831 2.165-5.488-1.028-8.017-2.896-12.749-5.753"/><path fill="#605f5f" d="M126.82 739.422c4.731.753 7.195.95 11.995 1.093-1.571.126-3.4-.08-4.143 1.05-3.359 5.108-2.742 18.889-1.857 24.441-3.925.136-11.751-2.853-15.688-4.179.55-10.684 1.62-14.994 9.693-22.405"/><path fill="#202225" d="M436.61 63.04c12.447 9.145 21.334 16.808 30.88 29.2l.084-.545c.995-6.778-1.007-23.626 3.237-27.143 3.1 2.541 3.356 32.476 2.333 36.914.346 2.53.328 4.319 2.043 6.183 2.008 1.421 4.457 1.276 6.951 1.315 2.65 1.693 4.556 3.26 5.08 6.597 1.81 11.519-.994 21.141.848 33.252.285 7.285-.905 21.234-1.215 29.151.142 4.948 1.635 21.153-4.913 22.724-2.888.246-5.436.212-7.161 2.681-6.783 9.706-9.088 25.26-15.723 35.115-.771-3.546-1.666-7.067-1.813-10.69l.503-3.613c9.107-9.586 10.082-12.203 12.679-25.115-5.094.14-5.311.128-8.598 3.986-1.844 2.203-3.254 3.769-4.692 6.272-2.612-2.338-12.68-10.535-13.755-12.327l3.735-.978c2.271-3.099-1.292-9.625-2.722-12.626 2.301 1.536 3.497 2.742 6.193 1.801l.717-1.836c-.487-8.33-12.753-26.711-18.521-32.189-.382-1.812.148-2.454.967-4.199 1.83-1.704 1.264-1.698 1.173-4.192a78 78 0 0 1-2.568-2.564c-2.281-2.412-6.184-6.538-3.012-9.514 3.633-.385 6.364 2.227 9.269 4.382l8.689 7.258c-2.313-3.935-4.018-6.621-6.683-10.325-.991-1.972-1.052-2.239-1.169-4.444 3.139-3.864 2.565-4.608 1.022-9.268-2.268-3.934-5.058-7.576-7.739-11.247-2.075-2.33-5.1-5.139-2.948-8.05l1.884-.121c2.812 1.193 3.359 1.806 5.657 3.848l3.534.412c2.543.059 6.941 1.099 9.586 1.634-1.419-4.386-5.407-12.087-5.833-15.559 1.829-1.652 1.968.915 4.797.29-.633-5.544-10.091-16.659-14.615-20.556.24-2.781.14-3.675 1.819-5.914m34.982 60.935c.638 5.526 1.315 21.618 3.283 25.346l1.884 1.046c4.067-2.912 6.003-24.097 4.389-28.835-1.455-4.272-4.702-9.443-9.763-8.053-.034 3.145-.22 7.477.207 10.496"/><path fill="#dededd" d="M432.729 107.056c-2.075-2.33-5.1-5.139-2.948-8.05l1.884-.121c2.812 1.193 3.359 1.806 5.657 3.848l3.534.412c7.468 3.313 21.532 20.067 17.595 28.938-4.531-.549-6.985 1.735-10.715 4.228-2.725-3.026-5.426-7.915-8.29-8.74 3.139-3.864 2.565-4.608 1.022-9.268-2.268-3.934-5.058-7.576-7.739-11.247"/><path fill="#7c7a7b" d="M443.713 115.296c2.969 3.437 11.953 14.571 14.738 16.787-4.531-.549-6.985 1.735-10.715 4.228-2.725-3.026-5.426-7.915-8.29-8.74 3.139-3.864 2.565-4.608 1.022-9.268 1.729-.993 1.99-1.434 3.245-3.007"/><path fill="#605f5f" d="M432.729 107.056c-2.075-2.33-5.1-5.139-2.948-8.05l1.884-.121c2.812 1.193 3.359 1.806 5.657 3.848 1.147 2.655 1.433 2.561.701 5.756l5.69 6.807c-1.255 1.573-1.516 2.014-3.245 3.007-2.268-3.934-5.058-7.576-7.739-11.247"/><path fill="#605f5f" d="M432.729 107.056c-2.075-2.33-5.1-5.139-2.948-8.05l1.884-.121c2.812 1.193 3.359 1.806 5.657 3.848 1.147 2.655 1.433 2.561.701 5.756-1.119-2.413-1.146-2.815-3.12-4.119-1.795.92-1.194.449-2.174 2.686"/><path fill="#7c7a7b" d="M461.825 203.052c-5.298-2.558-8.056-12.18-3.614-15.017l2.716 1.268c1.662-5.605-13.184-35.096-3.383-37.22 6.707 3.305 2.033 12.919 5.264 17.416-.058 6.591-1.089 9.956 4.589 14.397 1.331 3.769 3.889 11.331 3.026 15.17-5.094.14-5.311.128-8.598 3.986"/><path fill="#959493" d="M472.215 108.764c-1.361-3.912-2.288-4.503.929-7.298.346 2.53.328 4.319 2.043 6.183 2.008 1.421 4.457 1.276 6.951 1.315 2.65 1.693 4.556 3.26 5.08 6.597 1.81 11.519-.994 21.141.848 33.252-5.485.118-8.2 3.496-11.33 2.846l-1.033-1.111 1.056-.181c4.067-2.912 6.003-24.097 4.389-28.835-1.455-4.272-4.702-9.443-9.763-8.053l-.755-2.697z"/><path fill="#605f5f" d="M472.215 108.764c-1.361-3.912-2.288-4.503.929-7.298.346 2.53.328 4.319 2.043 6.183 2.008 1.421 4.457 1.276 6.951 1.315-4.22 2.432-6.124 3.109-9.923-.2"/><path fill="#bcbbba" d="m467.49 92.24.084-.545c.995-6.778-1.007-23.626 3.237-27.143 3.1 2.541 3.356 32.476 2.333 36.914-3.217 2.795-2.29 3.386-.929 7.298l-1.585 2.018c-4.745-3.751-16.62-16.054-13.759-22.356 3.373-.748 6.337 4.198 10.316 6.577l.582-.496z"/><path fill="#7c7a7b" d="M481.938 200.688c-4.337-6.75-14.418-25.213-9.903-32.769 5.734-.163 6.006 11.076 14.816 10.045.142 4.948 1.635 21.153-4.913 22.724"/><path fill="#dededd" d="M471.592 123.975c.638 5.526 1.315 21.618 3.283 25.346l1.884 1.046-1.056.181-2.233-.115c-10.885 6.03-17.582-21.342-8.068-25.121 2.175.031 3.604 1.469 5.325 2.815z"/><path fill="#434243" d="M471.592 123.975c.638 5.526 1.315 21.618 3.283 25.346l1.884 1.046-1.056.181-2.233-.115c-3.1-6.56-4.547-15.2-2.743-22.306z"/><path fill="#adabab" d="M462.808 169.499c8.848.831 8.058 8.455 4.589 14.397-5.678-4.441-4.647-7.806-4.589-14.397"/><path fill="#bcbbba" d="M434.92 142.778c4.815 3.849 7.688 6.814 10.899 12.068-3.188-2.418-7.939-6.635-11.374-7.664l-.698-.212c1.83-1.704 1.264-1.698 1.173-4.192"/><path fill="#adabab" d="M466.183 156.359c4.271 2.479 2.902 6.103.995 9.615-1.656-1.254-2.037-1.456-2.897-3.321-.363-2.249.894-4.212 1.902-6.294"/><path fill="#202225" d="M154.081 765.281c.84-1.794 1.57-2.433 2.881-3.881 4.3 1.747 9.075 3.091 10.723 7.902 4.851 14.156 5.206 30.513 5.082 45.358-.061 7.28 1.252 23.94-6.958 26.88-2.495.89-7.839 1.32-9.563 3.94-4.818 12.02 4.085 54.33-17.924 52.17-2.619-1.2-3.46-6.64-3.93-8.5-3.481-13.79 3.387-31.77-3.475-43.97-.564-1.01-3.281-.35-4.191-.06l-4.521-1.86c-4.067.02-7.125-.3-11.131-.71-2.122-.54-4.981-.59-7.243-.72-1.586-.34-2.056-.31-3.691-.31-9.416 4.79-12.613 30.11-17.452 39.4-1.803 3.75-4.12 8.29-8.32 9.79-4.963 1.78-10.597-2.58-11.414-7.44-4.175-24.86 10.59-51.99 22.258-72.89 9.675 2.72 20.604 7.91 30.344 10.41 10.647 2.74 20.573 3.87 31.31 7.13-.515 3.72-4.703 2.78-3.14 7.77l1.459.94c5.371-1.17 4.228-5.75 3.41-10.13l-2.031-8.95c2.299-1.73 2.974-1.75 5.744-2.1-.118 5.67-1.398 8.18.402 14.52 1.665 5.86 11.688 14.34 15.533 5.85 2.104-4.65-2.715-13.12-4.971-17.46 1.896-3.73 5.303-9.968 4.977-14.015-.92-11.434-14.807-5.073-18.977.849-1.986-2.235-2.628-2.863-1.605-5.544 2.722-.363 6.368-.98 8.889-2.027 13.429-5.574 10.164-28.13-2.475-32.342m-6.359 123.109c3.918-10.07 3.174-16.04.405-26.28 4.641-6.12 5.375-6.49 6.217-14.27-4.621-7.48-6.188-8.82-15.011-7.73-3.092 7.75-5.686 46.04 1.227 52.4 3.679 1.08 5.276-1.11 7.162-4.12m-60.881-29.83c5.212-12.24 10.222-24.51-8.081-27.37-5.574 7.4-10.242 17.76-1.025 24.53 2.6 1.91 5.998 2.21 9.106 2.84m5.783-24.01c11.652-2.9 6.611-17.13-4.254-19.57-9.816 8.32-9.447 16.63 4.254 19.57m27.791 5.95a7.9 7.9 0 1 0-6.061-14.59c-3.93 1.73-5.753 6.29-4.106 10.26a7.91 7.91 0 0 0 10.167 4.33"/><path fill="#101011" d="M640.078 508.858c6.376 1 7.512 7.88 9.457 13.176 3.589-.047 6.921-.781 9.456 2.035-2.358 2.656-1.243 2.078-4.94 2.674-4.974.803-7.869 6.449-6.938 11.146 1.573 7.939 5.765 12.13 11.669 17.106l.205 2.208c2.858 13.856-8.066 9.664-11.369 17.003-4.069 1.841-16.903 6.015-20.952 4.761 1.326-1.999 1.048-1.041.775-3.78l-3.335-.826c-1.171 3.223-5.806 3.709-8.989 4.514-2.386.67-6.233 1.631-8.322 2.658-7.165 1.222-18.563 1.06-25.786.019l-.29-.968c-2.785-1.506-4.849-2.738-4.76-6.123 1.896-1.924 1.16-1.363 4.067-1.945-3.204-.683-2.298-.032-4.326-2.293l-2.615-.292c-1.012-8.111-.508-10.687 3.067-17.862q1.307-.224 2.609-.47c3.701-.702 5.571-.769 7.738-3.957-.657-8.041 1.935-12.15-7.141-15.246-.725-1.915-.572-2.86-.496-4.857 7.494-.878 25.177-3.819 32.321-1.723 7.826 2.297 9.528 2.596 13.64-5.293.317-1.073 1.408-2.76 2.008-3.782 4.587-5.038 6.941-5.489 13.247-7.883"/><path fill="#dededd" d="m580.026 572.516 2.014.572c5.601-.124 29.918-.719 34.191.812-1.637 1.542-1.243 2.702-1.114 4.975-2.386.67-6.233 1.631-8.322 2.658-7.165 1.222-18.563 1.06-25.786.019l-.29-.968c-2.785-1.506-4.849-2.738-4.76-6.123 1.896-1.924 1.16-1.363 4.067-1.945"/><path fill="#f9f9fa" d="m580.026 572.516 2.014.572c1.224 2.416-.301 4.962-1.321 7.496-2.785-1.506-4.849-2.738-4.76-6.123 1.896-1.924 1.16-1.363 4.067-1.945"/><path fill="#dededd" d="M658.987 557.203c2.858 13.856-8.066 9.664-11.369 17.003-4.069 1.841-16.903 6.015-20.952 4.761 1.326-1.999 1.048-1.041.775-3.78 1.679-2.468 25.126-13.515 31.546-17.984"/><path fill="#bcbbba" d="M586.499 547.642c1.068 5.062-8.194 17.182-10.799 22.581l-2.615-.292c-1.012-8.111-.508-10.687 3.067-17.862q1.307-.224 2.609-.47c3.701-.702 5.571-.769 7.738-3.957"/><path fill="#adabab" d="M626.831 516.741c4.163-1.649 7.155-3.5 11.332-1.842 3.052 4.203-3.959 7.788-7.116 9.518-2.027-1.394-3.996-2.859-6.224-3.894.317-1.073 1.408-2.76 2.008-3.782"/><path fill="#f9f9fa" d="m616.231 573.9 7.875.461c-1.171 3.223-5.806 3.709-8.989 4.514-.129-2.273-.523-3.433 1.114-4.975"/><path fill="#dededd" d="M597.205 529.364c8.023 1.12 12.463 5.585 13.385 13.835.498 4.457.565 19.991-1.944 23.249l-1.96.042c-14.777.7-13.179-2.212-11.762-12.83 1.113-8.341-6.497-16.186 2.281-24.296"/><path fill="#adabab" d="M634.04 528.932c3.796.309 5.333 4.157 6.044 7.406 2.245 10.246 2.214 16.045-9.275 16.109q-.519-.195-1.029-.41c-10.371-4.404-6.935-13.216-3.201-20.862 3.446-.537 4.23-.849 7.461-2.243"/><path fill="#bcbbba" d="M612.937 547.172c-.716-3.892-1.229-11.835 3.072-13.985l1.483.537c1.529 1.84 1.528 4.059 1.83 6.472.47 5.056.396 9.22.346 14.298-3.026-2.752-4.363-3.875-6.731-7.322"/><path fill="#adabab" d="M619.322 540.196c.47 5.056.396 9.22.346 14.298-3.026-2.752-4.363-3.875-6.731-7.322 5.247-1.297 5.275-1.936 6.385-6.976"/><path fill="#101011" d="m228.453 279.745.355-.057.063 1.586c2.256 1.55 9.355 1.395 12.894 2.288l.162 1.279.418 2.826c-.16 4.344-1.548 18.014-1.414 20.49l.516.257.096 10.067-.958 8.832c-.483 10.492-.311 20.965-.242 31.468-2.633 4.185-3.347 5.323-7.354 8.085-17.3 8.564 13.666 28.203-26.183 25.615-3.089 27.157-1.63 55.263-4.184 82.557-2.212 1.249-6.614.793-9.494.81-.565 4.636-.747 14.264-3.291 17.116-1.359.276-1.438.363-2.862.179l-.401-.623c-5.066-7.973-6.833-37.367 1.535-42.644 2.391-.504 5.175.576 7.617 1.272-2.701-3.507-12.04-13.524-12.166-16.529l2.958-2.244c.342-1.907-2.623-7.903-3.603-10.407l.634.132c-.469-2.771-.53-2.113-2.774-4.508.806-8.728.439-14.385-.313-23.143-1.939-2.454-5.746-6.226-3.87-9.146 1.276-.507 9.454-.658 12.035-.885 2.394 1.131 3.837-.969 5.511-2.444 5.497-.338 7.979-1.578 13.369-.5 3.586 2.001 8.554 3.455 12.403 1.416 4.742-5.154 4.531-63.301 4.561-73.64-2.319-.378-4.03-.536-6.166-1.541 1.654-.688 4.2-.1 6.118.139.464-7.173 1.286-22.113 4.03-28.103"/><path fill="#605f5f" d="M240.585 327.313c-.718-2.102-.201-1.388-1.922-2.729-5.65.238-7.062 6.546-10.601 7.232-2.904-4.633-2.245-21.329 3.265-23.496l1.158.894c1.895 1.577 3.327 3.009 5.763 2.989 2.224-1.601 1.577-1.148 2.683-4.046l.516.257.096 10.067z"/><path fill="#7c7a7b" d="m240.931 308.157.516.257.096 10.067c-5.345-2.799-9.663-1.533-9.058-9.267 1.895 1.577 3.327 3.009 5.763 2.989 2.224-1.601 1.577-1.148 2.683-4.046"/><path fill="#605f5f" d="M315.118 852.42c3.675.75 7.343 1.55 11.002 2.38 2.113 1.07 4.236 2.41 6.53 2.64 8.802-4.48 26.039 8.2 32.452 13.74.194 3.96.528 8.51.479 12.43-3.063 24.35.984 56.82-2.546 83.71 1.871 2.7 4.933 6.48 5.401 9.57l-.425 1.63c-1.041.55-1.548.82-2.689 1.22l-3.725-.13c3.354-10.32-5.803-19.47-15.173-20.1l-5.997.2c-2.037-1.01-3.112-2.18-4.769-3.72l-1.016-1.79c1.683-11.32-17.796-25.11-15.859-32.81 2.024-1.5 1.392-1.07 4.305-1.1 3.185 2.64 7.933 1.81 12.209 1.62 5.827 3.14 9.726 6.13 16.505 4.02 2.628-.03 2.157-.41 4.072.84.95 2.91-1.252 7.75-2.343 10.85-.185 4.05-.221 7.46 4.006 9.17 4.928-1.52 4.853-5.22 4.973-9.71l.693-3.48c.223-.23.619-1.08.79-1.41-.062-2.34.288-1.8-.848-3.48-.572-3.56-.775-6.59-2.613-9.66-.774.43-2.933 1.56-3.539 2-2.595 1.44-4.087 1.48-7.037 1.73-3.6-2.02-8.025-3.52-11.22-6.19-7.271-6.06-28.041-17.99-23.076-29.22 19.199-6.02-.445-12.5 4.483-18.33 2.607-1.27 6.231-1.03 9.215-1.08-2.631-3.68-10.712-11.75-14.24-15.54"/><path fill="#dededd" d="M315.118 852.42c3.675.75 7.343 1.55 11.002 2.38 2.113 1.07 4.236 2.41 6.53 2.64 8.802-4.48 26.039 8.2 32.452 13.74.194 3.96.528 8.51.479 12.43-1.655 1.41-1.942 1.54-3.975 2.31-2.663.2-4.965-1.42-7.372-2.74 2.107 3.67 3.599 6.88 5.384 10.7-5.259-3.9-13.906-10.49-19.62-13.43-1.356 1.18-1.589 1.61-3.272 1.73-2.627-.11-3.231-.24-5.638.9-2.519 3.54.403 6.45 2.584 9.61-7.482-3.01-9.857-3.87-18.012-5.32 19.199-6.02-.445-12.5 4.483-18.33 2.607-1.27 6.231-1.03 9.215-1.08-2.631-3.68-10.712-11.75-14.24-15.54"/><path fill="#202225" d="M315.118 852.42c3.675.75 7.343 1.55 11.002 2.38 2.113 1.07 4.236 2.41 6.53 2.64 5.215 2.52 9.358 4.87 14.377 7.79-2.394.36-5.069.45-6.912 1.83-.018 5.23-.929 5.13-5.278 8.18.589 2.21 3.203 3.81 5.161 5.21-1.356 1.18-1.589 1.61-3.272 1.73-2.627-.11-3.231-.24-5.638.9-2.519 3.54.403 6.45 2.584 9.61-7.482-3.01-9.857-3.87-18.012-5.32 19.199-6.02-.445-12.5 4.483-18.33 2.607-1.27 6.231-1.03 9.215-1.08-2.631-3.68-10.712-11.75-14.24-15.54"/><path fill="#dededd" d="M333.672 892.69c-2.181-3.16-5.103-6.07-2.584-9.61 2.407-1.14 3.011-1.01 5.638-.9 4.764 1.55 18.653 7.43 17.303 13.63l-2.637 1.69c-.015 3.17 5.086 4.57 3.388 8.34 3.153 5.86 4.6 6.61 5.752 13.21-.774.43-2.933 1.56-3.539 2-2.595 1.44-4.087 1.48-7.037 1.73-3.6-2.02-8.025-3.52-11.22-6.19-7.271-6.06-28.041-17.99-23.076-29.22 8.155 1.45 10.53 2.31 18.012 5.32"/><path fill="#101011" d="M354.78 905.84c3.153 5.86 4.6 6.61 5.752 13.21-.774.43-2.933 1.56-3.539 2-6.027-3.74-12.66-11.96-2.213-15.21"/><path fill="#7c7a7b" d="M291.09 707.277c1.906.096 4.463.132 6.285.486 16.144 1.213 21.281 3.381 34.068 12.792 6.979-1.622 9.99-3.019 15.751-7.089 5.184 8.103 7.12 16.71 11.579 24.713 2.715 4.874 4.984.292 9.011 9.559l-.193 1.345c-2.331.112-4.515-.076-6.212 1.493-3.29 5.437 2.875 15.85 5.228 21.487l-1.472 2.626c-2.277.196-2.783-1.994-6.942-3.235l-.359-1.398-.435-.15c-.024 4.332 1.984 13.841 2.526 18.653 1.063 9.441.049 16.884-1.376 26.221-3.77-2.39-9.22-7.267-12.968-3.27-.607 2.57-.664 5.53-2.232 6.89-3.78-.72-6.742-3.84-9.26-6.48l-.319-.35-5.709-8.853c3.196 1.171 10.705 4.598 13.511 4.532l.632-1.041c-.549-3.17-2.987-6.934-4.623-9.884l.577-1.469 1.247-.244.148-.314c-13.111-6.586-14.539-4.626-15.515-19.294l-2.213-6.585c7.008 6.023 13.754 10.716 19.999 15.94 6.413-1.984 3.513-10.578 2.579-15.477l-.899-2.115-2.185-.513c-8.571-3.145-16.961-15.281-20.798-23.327-1.741-2.459-2.876-5.902-3.974-8.765-3.28-11.145-19.443-4.609-25.555-6.585l-5.221-.909c9.575-4.282 6.994-11.002 5.319-19.39"/><path fill="#dededd" d="M316.547 734.161c8.24-3.748 17.818 4.7 24.089 9.618 3.942 3.092 14.842 13.024 15.111 17.906l-.716.805c-1.476-.217-1.681-.196-2.987-.864-2.417 5.047 1.089 6.254 1.124 11.63l-.719.635c-3.777-1.656-4.407-3.569-8.046-5.01l-.899-2.115-2.185-.513c-8.571-3.145-16.961-15.281-20.798-23.327-1.741-2.459-2.876-5.902-3.974-8.765"/><path fill="#959493" d="M340.001 751.678c3.458 2.198 10.477 6.259 12.043 9.948-2.417 5.047 1.089 6.254 1.124 11.63l-.719.635c-3.777-1.656-4.407-3.569-8.046-5.01l-.899-2.115-2.185-.513c-1.46-5.656-5.002-7.833-9.422-11.466z"/><path fill="#605f5f" d="M320.521 742.926c4.164 2.583 8.203 7.955 11.376 11.861 4.42 3.633 7.962 5.81 9.422 11.466-8.571-3.145-16.961-15.281-20.798-23.327"/><path fill="#dededd" d="M323.078 722.05c2.025 2.312 3.455 3.448 3.819 6.336-4.776 4.405-33.007-14.932-33.657-20.342l4.135-.281c16.144 1.213 21.281 3.381 34.068 12.792 8.11 4.676 10.176 7.278 14.605 15.391-8.346-3.644-15.049-9.094-22.97-13.896"/><path fill="#dededd" d="m324.038 775.003-2.213-6.585c7.008 6.023 13.754 10.716 19.999 15.94l-1.315 1.539c2.944 2.624 6.492 5.052 6.904 8.952-1.676 3.963-4.952 2.412-8.297 1.248l-.958-1.242 1.247-.244.148-.314c-13.111-6.586-14.539-4.626-15.515-19.294"/><path fill="#959493" d="m324.038 775.003-2.213-6.585c7.008 6.023 13.754 10.716 19.999 15.94l-1.315 1.539c-4.735-1.995-14.148-10.969-16.471-10.894"/><path fill="#7c7a7b" d="M424.912 442.807c8.774 5.198 17.841 18.261 25.113 20.05 2.407-.439 1.494.006 3.413-2.121 5.533 1.794 18.915 8.051 24.007 11.129 3.032 1.977 6.466 4.339 9.6 6.061-.461 8.147-2.91 27.545 7.741 29.4-3.808 9.406-7.509 24.015-15.004 29.888-2.365-6-13.292-22.134-17.35-29.194-6.647-2.854-14.59-8.288-19.625-13.465-4.416 3.973-14.849 1.859-18.071-1.913a26 26 0 0 0-1.57-2.693c-7.774-11.481-14.738-14.694-27.559-17.006 5.854-3.027 5.358-3.201 6.626-9.67 3.576 1.274 7.713 3.143 11.262 4.639-.652-3.62-1.683-6.768-.333-10.112 5.493-5.249 16.43 5.692 20.997 9.701-3.162-7.738-7.144-16.748-9.247-24.694"/><path fill="#959493" d="M413.495 467.912c.106-1.372-.027-3.168.727-3.99 3.278 2.757 26.862 27.807 28.585 30.633-4.416 3.973-14.849 1.859-18.071-1.913a26 26 0 0 0-1.57-2.693c-7.774-11.481-14.738-14.694-27.559-17.006 5.854-3.027 5.358-3.201 6.626-9.67 3.576 1.274 7.713 3.143 11.262 4.639"/><path fill="#434243" d="M440.322 472.341c6.981 2.062 20.515 19.401 23.511 26.066-6.963-2.141-23.984-18.828-23.511-26.066"/><path fill="#101011" d="M309.82 519.785c6.268-8.93 20.022-19.95 30.432-23.73 2.574-.935 3.145-.39 5.12.663 18.151 20.315 8.433 20.248 4.545 40.62 2.152 5.973 5.631 12.232 8.597 17.917-.817 2.336-1.209 4.093-3.006 5.787-4.836-4.064-7.205-6.17-13.584-5.799l-.758.559c.314 2.7 4.365 3.287 3.748 8.683-.778 6.807-2.626 10.243-7.604 14.794-1.387 1.439-1.322 2.301-1.655 4.294l-.907 1.398-1.576.142c-8.203-2.761-9.681-17.136-16.758-17.439-4.193 3.812.56 5.343-.961 9.694l-2.643 1.533-4.929-2.637c-3.057-.08-5.078-.243-8.116-.628.036-1.585.065-5.345.364-6.832 1.748-8.676 10.911-9.183 17.599-12.162 3.188-1.419 5.914-3.402 8.679-5.358-5.22-6.989-9.579-10.613-17.989-12.587.47-6.664 4.654-9.818 1.402-18.912"/><path fill="#605f5f" d="M164.263 600.941c10.964 4.647 20.505 16.925 28.319 16.83a1378 1378 0 0 0-17.478 88.147l-2.529-2.019-2.32-1.189c-2.693 1.198-2.92 3.837-5.37 6.675-.195 2.69.215 2.744-1.141 4.675-2.666-.231-4.53-1.614-6.795-.15-.081-3.4-4.227-13.152-5.643-16.878.22-3.789 1.269-5.957 3.154-9.124-.41-1.655-1.388-4.315-1.962-6.02-.821-2.376-.21-4.832.398-7.152.953-3.517 1.136-7.998 2.798-11.453 2.361-4.905-.998-4.634-.033-9.661 2.103-2.617 2.286-3.508 3.289-6.762-1.139-3.979-.959-3.527 2.014-5.782-.22-3.934-2.789-5.391-2.954-11.213-.512-4.311-.864-18.791 1.975-21.794 3.66.191 4.733.16 8.102 1.47l3.234-.196c-3.116-2.788-4.882-4.875-7.058-8.404"/><path fill="#dededd" d="M152.896 674.736c6.224.05 6.163-.95 9.02-6.368 3.787 3.318 5.396 4.998 8.053 9.298.883-2.245 1.498-4.7 3.534-5.873 5.716 1.11.975 28.541-.928 32.106l-2.32-1.189c-2.693 1.198-2.92 3.837-5.37 6.675-.195 2.69.215 2.744-1.141 4.675-2.666-.231-4.53-1.614-6.795-.15-.081-3.4-4.227-13.152-5.643-16.878.22-3.789 1.269-5.957 3.154-9.124-.41-1.655-1.388-4.315-1.962-6.02-.821-2.376-.21-4.832.398-7.152"/><path fill="#7c7a7b" d="M151.306 697.032c11.135 2.708 7.77 6.234 13.579 12.353-.195 2.69.215 2.744-1.141 4.675-2.666-.231-4.53-1.614-6.795-.15-.081-3.4-4.227-13.152-5.643-16.878"/><path fill="#7c7a7b" d="M152.498 681.888c3.042 1.979 4.898 3.304 6.309 6.762l-1.002.661c-1.02-.352-2.519-.77-3.345-1.403-.41-1.655-1.388-4.315-1.962-6.02"/><path fill="#dededd" d="M159.985 608.071c3.66.191 4.733.16 8.102 1.47l3.234-.196c2.499 1.218 2.768 1.45 4.637 3.518l.48 1.846c2.465 2.655 4.221 4.502 6.344 7.473.276 5.122 1.459 15.535-4.433 17.477-2.599-.511-3.908-2.075-5.53-4.173-1.841 4.454.831 10.773 2.233 15.642-7.71-7.219-10.658-14.804-17.042-21.263-.512-4.311-.864-18.791 1.975-21.794"/><path fill="#202225" d="M159.985 608.071c3.66.191 4.733.16 8.102 1.47l3.234-.196c2.499 1.218 2.768 1.45 4.637 3.518l.48 1.846c2.465 2.655 4.221 4.502 6.344 7.473.276 5.122 1.459 15.535-4.433 17.477-2.599-.511-3.908-2.075-5.53-4.173-.586-2.918-3.636-8.461-1.637-10.633 3.453.36 3.705 2.794 6.354 2.698-.193-8.133-13.022-10.679-17.251-18.886z"/><path fill="#bcbbba" d="M171.321 609.345c2.499 1.218 2.768 1.45 4.637 3.518l.48 1.846-8.351-5.168z"/><path fill="#f9f9fa" d="m158.95 646.86 5.569 11.147c-3.177-2.124-5.033-3.618-8.858-4.385 2.103-2.617 2.286-3.508 3.289-6.762"/><path fill="#7c7a7b" d="M237.923 707.318c1.905 3.315 1.106 4.721 1.939 8.032-1.332 3.806-5.912 15.618-5.238 18.861l2.626.868c1.864 6.918 2.333 39.694 2.529 48.512a4083 4083 0 0 1 1.857 132.349c-.006 4.27-.549 35.67.442 37.65 1.453.28 2.483.48 3.899.91-2.123 2.33-5.612 5.6-5.582 8.76 1.544 2.83 5.431 2.33 8.156 1.62.5 5.07 1.208 10.93 1.421 15.96-4.384-.94-9.1-1.09-13.592-1.38l.845-.8c-.885-2.42-1.383-3.91-2.665-6.16 4.156-54.9 5.194-109.99 3.11-164.999-.41-13.108-.331-35.961-2.51-47.914-.126 5.435-.374 11.036-.673 16.464-2.575 46.829-2.606 93.729-4.612 140.569-.127 2.98-.796 7.79-2.242 10.29l-.949-.01c-5.971-12.45-.047-100.3.479-119.633.412-21.168.511-42.342.296-63.514l-6.121-3.38c8.186-8.146 10.954-10.734 13.295-22.696.711-3.627 1.613-7.045 3.29-10.359"/><path fill="#605f5f" d="M664.473 616.39c3.622 1.597 4.955 1.911 6.845 5.478 1.644 22.405.313 46.274 1.337 68.912.29 6.418 2.97 34.142 1.447 37.263l-2.187 1.163c-3.135-3.064-4.433-7.074-4.23-11.377-4.821-1.184-5.478-1.459-8.563-5.282-2.855-4.082-8.521-8.75-7.828-13.871 1.062-.839 1.812-1.254 3.078-1.73-1.2-3.371-5.804-3.852-7.104-7.944.634-2 .286-1.31 2.375-2.737l.059-.328c-4.543-1.233-7.377-2.624-11.634-4.562 11.708-4.653 9.719-3.556 20.79.001l.55-3.306c-1.214-1.283-6.981-8.507-7.901-10.099-3.056-5.284-1.176-7.614.258-12.194-.311-.831-.779-3.35-.992-4.35 4.871-8.414-.535-12.676-.718-21.248-.034-1.584.376-.802-.154-3.237-1.605-3.06-2.265-4.28-.251-7.204 2.393-1.521 4.007-1.528 6.82-1.882 2.649 1.249 3.423 2.029 3.978 4.923.472-.918 1.361-2.147 1.966-3.041z"/><path fill="#dededd" d="M649.901 626.942c2.623-.744 3.675-1.299 6.152.276 16.945 10.768 14.479 42.724 11.921 57.79-2.163-2.018-6-5.85-8.566-6.938-1.214-1.283-6.981-8.507-7.901-10.099-3.056-5.284-1.176-7.614.258-12.194-.311-.831-.779-3.35-.992-4.35 4.871-8.414-.535-12.676-.718-21.248-.034-1.584.376-.802-.154-3.237"/><path fill="#101011" d="M650.773 651.427c3.906.275 6.809.537 10.724 1.153 1.247 3.509 4.73 9.87.171 11.554-3.998-.783-7.714-5.091-9.903-8.357-.311-.831-.779-3.35-.992-4.35"/><path fill="#adabab" d="M649.702 685.937c6.179 1.012 10.168 4.408 14.524 8.758-4.95-2.076-10.008-5.513-14.583-8.43z"/><path fill="#f9f9fa" d="M662.414 619.738c1.299 1.784 2.44 2.898 2.234 5.106l-.839 1.434-1.27.265c-1.573-1.056-1.969-1.623-2.091-3.764.472-.918 1.361-2.147 1.966-3.041"/><path fill="#7c7a7b" d="M435.555 190.109c-4.307-4.028-14.006-13.064-9.779-19.431 4.505-.372 5.341 4.048 9.16 6.329-.815 6.029 2.723 8.946 3.204 15.005.247 3.096-.531 3.931.916 5.941 3.718-.977 4.562-2.315 8.057-1.934l-3.735.978c1.075 1.792 11.143 9.989 13.755 12.327l-.35 6.892c-2.562 2.432-7.998 6.735-8.012 10.356 2.717 1.415 6.447-.955 8.973-2.391l-.503 3.613c-7.322 6.551-14.211 12.559-23.395 16.463-3.886-.321-7.403 1.445-10.884 2.994-2.301-1.445-5.095-3.097-7.196-4.732-3.807-4.759-3.974-5.002-6.971-10.377l6.46-6.162c-4.058-4.038-6.623-7.477-9.581-12.295 7.385-.615 7.741-.169 13.903-4.4-2.329-2.405-9.961-7.922-7.994-11.413 5.887-.415 10.381 6.895 19.142 7.584l.685.05c-3.449-5.055-7.518-5.531-8.875-12.611 4.982-3.066 7.203-2.636 13.02-2.786"/><path fill="#202225" d="M422.535 192.895c4.714 1.224 13.056 5.875 14.378 10.842l-.548 1.396c-1.63.699-3.219.977-4.955.373-3.449-5.055-7.518-5.531-8.875-12.611"/><path fill="#434243" d="M289.596 96.706c.936-2.283.319-1.73 2.164-2.684 2.131.176 3.478 1.473 5.095 2.876-.883 9.291-1.742 17.903-2.084 27.232-.312 8.529.442 19.53-.406 27.717-1.475.824-2.2 1.22-3.531 2.245l-.576 2.973c-2.246-.426-4.908-.58-7.225-.778.702 7.058-.05 21.922 3.785 27.163l.993.066c3.573-4.594 3.188-19.247 2.556-25.214 2.191.174 2.279.133 4.11 2.207 2.632 37.086-9.244 48.622 29.663 71.51-.917 1.341-2.379 3.636-3.434 4.745a64 64 0 0 1-4.114-2.752c-19.035-13.618-31.551-27.224-35.399-50.88-1.402-8.616-4.044-59.272-1.58-66.05 1.684-4.636 6.568-7.461 9.395-11.452l.428-.613c.185-2.628.139-5.642.16-8.311"/><path fill="#dededd" d="M283.033 156.287c-.531-7.42-2.238-39.668 4.279-42.726 2.602-.002 4.941 1.592 5.175 4.247 1.033 11.705-.699 24.558-1.653 36.284l-.576 2.973c-2.246-.426-4.908-.58-7.225-.778"/><path fill="#959493" d="M379.454 151.844c7.387 1.552 43.833-.576 53.326-.675 5.768 5.478 18.034 23.859 18.521 32.189l-.717 1.836c-2.696.941-3.892-.265-6.193-1.801 1.43 3.001 4.993 9.527 2.722 12.626-3.495-.381-4.339.957-8.057 1.934-1.447-2.01-.669-2.845-.916-5.941-.481-6.059-4.019-8.976-3.204-15.005-1.466-8.815-4.264-13.838-11.04-19.459-15.049-.715-28.56-1.258-43.629.156l-.308 15.773c-.89-4.455-.118-9.542-1.192-14.924l-83.416-.22c-.8.977-.736.912-.874 2.176-1.831-2.074-1.919-2.033-4.11-2.207l-.109-1.237.576-2.973c1.331-1.025 2.056-1.421 3.531-2.245 7.99 1.369 77.912 1.943 84.308.016z"/><path fill="#434243" d="M320.473 843.75c-2.982-1.6-6.096-2.32-6.102-5.81 3.818-3.74 11.045 1.16 15.819-.28 1.048-4.84-19.341-18.83-17.731-24.33 4.623-1.16 11.799 4.99 14.09 8.93.032-5.19-.325-5 4.351-7.78 1.614 1.22 4.998 6.31 6.451 8.28l-.257.42c16.856 14.49 19.332 16.37 23.441 39.15.525 2.91 1.966 2.37 4.621 2.22l-.054 6.63c-6.413-5.54-23.65-18.22-32.452-13.74-2.294-.23-4.417-1.57-6.53-2.64l.254-.6c-2.231-2.8-11.665-3.53-13.465-7.5l.452-1.05c1.981-1.66 4.482-1.61 7.112-1.9"/><path fill="#dededd" d="M330.9 814.48c1.614 1.22 4.998 6.31 6.451 8.28l-.257.42c-1.86 2.83.123 5.66-2.69 8.06-4.172-.58-7.296-4.6-8.515-8.41l.66-.57c.032-5.19-.325-5 4.351-7.78"/><path fill="#959493" d="M377.619 47.044c.493-1.415.076-.859 1.286-1.73 3.881 3.53 43.206 2.593 57.705 17.726-1.679 2.239-1.579 3.133-1.819 5.914-12.677-8.339-29.671-13.951-44.752-15.669-2.598-.296-9.034-.773-10.925.762l-1.613.498c-5.174-2.181-22.768 4.089-27.95 6.044-13.472 5.081-42.813 26.157-52.696 36.309-1.617-1.403-2.964-2.7-5.095-2.876-1.845.954-1.228.401-2.164 2.684a158 158 0 0 1-.221-3.642c-.26-5.379-.522-16.927 3.101-20.929l1.182.005c2.863 3.718 2.499 12.273 2.625 17.015 2.195-1.858 4.441-3.7 6.742-5.46 18.422-14.089 37.356-30.905 61.067-34.648a846 846 0 0 1 13.527-2.003"/><defs><linearGradient id="e" x1="333.992" x2="366.585" y1="1007.207" y2="1009.35" gradientUnits="userSpaceOnUse"><stop offset="0" stop-color="#dcdcdb" stop-opacity=".843"/><stop offset="1" stop-color="#e0dfdf"/></linearGradient></defs><path fill="url(#e)" d="M358.549 1005.78c1.425-9.337 2.439-16.78 1.376-26.221-.542-4.812-2.55-14.321-2.526-18.653l.435.15.359 1.398c4.159 1.241 4.665 3.431 6.942 3.235l1.472-2.626c.799 1.511 3.31 6.074 3.335 7.459.181 10.304-3.929 23.711-4.39 33.638-.779 16.8-.482 34.55-.396 51.39-2.655.15-4.096.69-4.621-2.22-4.109-22.78-6.585-24.66-23.441-39.15l.257-.42c-1.453-1.97-4.837-7.06-6.451-8.28 1.551-.73 1.838-1.45 2.87-2.91l.319.35c2.518 2.64 5.48 5.76 9.26 6.48 1.568-1.36 1.625-4.32 2.232-6.89 3.748-3.997 9.198.88 12.968 3.27" transform="translate(0 -191)"/><path fill="#605f5f" d="M232.989 366.866c4.007-2.762 4.721-3.9 7.354-8.085.98 11.82 2.05 33.866 4.369 44.478 8.721 39.901 29.424 81.122 54.448 112.949.601 6.122 8.737 9.625 5.347 16.122-5.557-8.013-12.747-15.699-18.303-23.915-20.897-30.896-38.223-64.192-46.724-100.736-3.257-13.997-3.726-27.144-6.491-40.813"/><path fill="#959493" d="M239.893 260.101c1.357-2.738 3.076-8.124 6.458-7.746 2.595 3.541.66 14.74.065 19.231 30.064.362 56.486-2.938 85.911-3.853l-.981 5.202c-12.247-1.922-75.14.297-82.767 5.659-2.386 1.677-4.797 3.991-6.652 6.247l-.162-1.279c2.32-5.977 2.778-16.382-4.633-18.931-7.498-.179-7.747 9.77-8.324 15.057l-.355.057c-.091-4.385-.469-10.114-3.594-13.72-2.91-3.357-11.928-1.909-15.797-2.188-13.123-.947-77.417 10.43-87.658 17.297-.485.022-5.189-.819-5.97-.952-.086-5.738-.995-18.775 3.441-22.516l1.135.706c2.516 5.313 2.028 12.669 2.028 18.56 30.634-9.382 62.037-16.632 94.288-16.041 8.523.156 15.095 1.273 23.567-.79"/><path fill="#7c7a7b" d="m557.202 389.53-1.353-.432.158-1.043c2.097-2.256 3.52-2.945 6.188-4.518 2.37 8.089 3.882 27.059 4.736 35.896 3.452 35.719 3.941 71.963 5.918 107.66 2.067.731 3.806.503 6.013.446-.076 1.997-.229 2.942.496 4.857-2.946.398-2.911-.119-4.462 1.625l-.308 3.818c-.15-2.152-.064-2.947-1.022-4.909-1.909-1.451-5.955-.861-8.535-.736.273-18.603-2.556-129.732-7.829-142.664"/><path fill="#7c7a7b" d="M103.831 841.83c2.262.13 5.121.18 7.243.72-11.44 4.13-10.708 21.69-1.95 24.93a6.04 6.04 0 0 0 4.938-.3c6.728-3.54 7.816-17.1 8.143-23.92l4.521 1.86c-5.439 11.24-6.961 50.86-17.754 55.04-28.1 10.88-8.6-47.7-5.141-58.33m4.859 55.79c5.024-6.9 9.818-21.12 1.093-27.64-1.84-1.37-5.865-2.24-8.186-2.73-5.834 9.09-10.183 31.79 7.093 30.37"/><path fill="#605f5f" d="M658.782 554.995c2.071-1.087 2.728-1.607 5.116-1.323 1.573 2.578 2.455 3.415 4.571 5.593l1.305-.021.924 5.953c4.537.745 10.573 1.405 14.546 3.405l.158.811c-3.241 1.834-11.442 2.519-15.442 2.994.047 7.364-.261 34.595 1.452 40.555-5.08-2.069-10.461-7.593-14.495-11.413 1.875-3.219.716-2.506-.477-5.741l-.116-.321c-1.972-3.216-6.961-4.395-6.31-8.139 1.912-1.633 4.205-1.806 6.703-2.285a364 364 0 0 1-9.099-10.857c3.303-7.339 14.227-3.147 11.369-17.003z"/><path fill="#101011" d="M659.122 712.547c3.085 3.823 3.742 4.098 8.563 5.282-.203 4.303 1.095 8.313 4.23 11.377l-3.402.901c-.126 18.947 9.612 24.31 22.689 35.475l-3.812 2.934-2.803-1.064c-1.716-1.424-3.078-3.649-4.334-5.508-5.808-8.593-14.937-4.598-22.925-2.323-1.184-2.887-2.145-5.736-4.807-7.38 2.347-11.487 1.655-15.396-3.369-25.606l-.697-1.085.113-2.002.196-1.038c1.26-7.623 3.779-7.581 10.358-9.963"/><path fill="#bcbbba" d="M659.122 712.547c3.085 3.823 3.742 4.098 8.563 5.282l-.784 2.968c-3.871 2.091-13.962 3.142-18.137 1.713 1.26-7.623 3.779-7.581 10.358-9.963"/><path fill="#adabab" d="M667.685 717.829c-.203 4.303 1.095 8.313 4.23 11.377l-3.402.901c-2.224-8.116-13.037-6.499-19.945-6.559l.196-1.038c4.175 1.429 14.266.378 18.137-1.713z"/><path fill="#605f5f" d="M538.478 270.17a73 73 0 0 1-.234-4.08c-.081-3.826.466-7.501 3.184-10.308 2.436-1.212 7.814-.517 10.639-.184 30.725 3.619 62.014 3.545 92.646 7.86 1.661 1.167 1.976 1.847 2.15 4.095-11.592-1.82-72.673-8.658-81.324-4.757l-.572.905c1.657 3.98 10.46 4.998 11.365 10.161-3.8 8.065-13.559-2.245-18.527 9.191l-1.267-.208c-.481-4.368-2.481-22.11-10.347-18.602-3.147 3.857-2.335 8.065-2.293 13.157l.114.997c-1.341-.047-3.076-.259-4.448-.384.172-2.174-.649-5.584-1.086-7.843"/><path fill="#202225" d="M538.478 270.17c.975-1.516 1.107-1.818 2.435-2.994l1.234-.031c2.222 2.624 1.171 7.245 1.751 10.255l.114.997c-1.341-.047-3.076-.259-4.448-.384.172-2.174-.649-5.584-1.086-7.843"/><path fill="#434243" d="M193.128 475.848c2.88-.017 7.282.439 9.494-.81-.161 9.269.391 49.952-2.27 55.201l-8.558.119-2.371-2.555-.312-.56c-1.064-5.508-7.975-13.23-5.287-19.078l2.713-.396c2.941-5.368-6.421-8.498.438-14.626 1.424.184 1.503.097 2.862-.179 2.544-2.852 2.726-12.48 3.291-17.116"/><path fill="#bcbbba" d="M148.371 335.958c11.023 10.455 18.991 16.604 31.329 25.1 7.338 5.054 21.966 14.652 27.807 20.416-5.39-1.078-7.872.162-13.369.5-1.674 1.475-3.117 3.575-5.511 2.444l.579-.927c-.726-2.023-3.457-3.719-5.307-5.135-9.337-4.895-15.583-8.965-23.302-16.231-1.415-11.345-21.569-16.23-12.226-26.167"/><path fill="#605f5f" d="M183.899 378.356c3.801.429 6.959 1.638 10.239 3.618-1.674 1.475-3.117 3.575-5.511 2.444l.579-.927c-.726-2.023-3.457-3.719-5.307-5.135"/><path fill="#bcbbba" d="M558.861 354.425c1.492 5.156 2.172 15.097 2.475 20.731l.75-1.832.824-.299c2.175 6.391 4.27 2.929 5.905 6.001-1.619 1.923-4.377 3.247-6.62 4.511-2.668 1.573-4.091 2.262-6.188 4.518l-.158 1.043 1.353.432c-3.758.297-4.982.679-8.632 1.782-3.225 1.032-9.482 2.565-11.23 5.149-3.378-4.655-2.69-9.606-2.113-15.231 2.178-5.493 3.721-9.639 7.586-14.258 1.41-.136 3.885-.707 5.364-.998l2.835 1.645c2.534-6.072 3.43-8.332 7.849-13.194"/><path fill="#7c7a7b" d="m548.177 365.974 2.835 1.645c.389 5.314.649 10.886-1.392 15.86l-.881.438c-4.293-3.35-3.489-12.327-5.926-16.945 1.41-.136 3.885-.707 5.364-.998"/><path fill="#605f5f" d="m561.336 375.156.75-1.832.824-.299c2.175 6.391 4.27 2.929 5.905 6.001-1.619 1.923-4.377 3.247-6.62 4.511-2.668 1.573-4.091 2.262-6.188 4.518l-.158 1.043 1.353.432c-3.758.297-4.982.679-8.632 1.782 2.93-8.205 12.017-6.257 12.766-16.156"/><path fill="#434243" d="M691.202 765.582c12.364 11.301 26.152 22.363 34.794 36.882 3.036 5.101 7.223 15.806-1.74 17.466l-1.45-.44c-.543-2.77 8.265-11.71-3.602-20.306-1.618-1.172-4.072-1.866-6.066-2.532-4.326-7.751-6.34-12.589-15.179-15.076-.657-.185-3.459-5.993-3.845-6.922-1.218-2.93-4.052-4.449-6.724-6.138z"/><path fill="#7c7a7b" d="m191.794 530.358 8.558-.119c-3.02 11.402-1.581 28.547.74 40.296-4.477 1.768-7.799 3.847-11.523-.182 3.654-7.46 2.502-30.837 2.225-39.995"/><path fill="#dededd" d="m656.324 595.487.116.321c1.193 3.235 2.352 2.522.477 5.741 4.034 3.82 9.415 9.344 14.495 11.413 2.549 3.722 2.956 5.044-.094 8.906-1.89-3.567-3.223-3.881-6.845-5.478l-2.059 3.348c-.605.894-1.494 2.123-1.966 3.041-.555-2.894-1.329-3.674-3.978-4.923.079-.388.026-1.187.017-1.624-1.719-1.931-6.834-4.722-9.266-6.18-.224-1.124-.297-.592.299-1.633q1.694-.028 3.389-.074l.097-.938c-1.533-.495-1.66-.546-2.992-1.436l.061-1.849c1.334-1.516 1.487-1.112 3.864-1.492l.29-.998-1.701-2.412.92-2.318c1.973-1.524 2.004-1.079 4.876-1.415"/><path fill="#7c7a7b" d="M647.221 610.052c7.015.53 11.146 3.105 17.252 6.338l-2.059 3.348c-.605.894-1.494 2.123-1.966 3.041-.555-2.894-1.329-3.674-3.978-4.923.079-.388.026-1.187.017-1.624-1.719-1.931-6.834-4.722-9.266-6.18"/><path fill="#7c7a7b" d="m656.324 595.487.116.321c1.193 3.235 2.352 2.522.477 5.741-2.49-1.901-3.366-1.917-6.389-2.329l.92-2.318c1.973-1.524 2.004-1.079 4.876-1.415"/><path fill="#959493" d="M565.031 532.194c2.58-.125 6.626-.715 8.535.736.958 1.962.872 2.757 1.022 4.909q.687 7.126 1.564 14.23c-3.575 7.175-4.079 9.751-3.067 17.862-1.871.445-2.24.396-3.58 1.659-.968-13.045-3.758-25.877-4.474-39.396"/><defs><linearGradient id="f" x1="592.089" x2="563.817" y1="790.524" y2="776.606" gradientUnits="userSpaceOnUse"><stop offset="0" stop-color="#353235" stop-opacity=".976"/><stop offset="1" stop-color="#474748"/></linearGradient></defs><path fill="url(#f)" d="M575.7 761.223c2.028 2.261 1.122 1.61 4.326 2.293-2.907.582-2.171.021-4.067 1.945-.089 3.385 1.975 4.617 4.76 6.123l.29.968c-2.9.139-2.969-.331-4.922 1.115 1.571 9.864 9.432 33.701 12.4 44.573l-1.663.299c-6.043-21.311-8.837-29.943-20.388-48.939l3.069-7.01c1.34-1.263 1.709-1.214 3.58-1.659z" transform="translate(0 -191)"/><path fill="#959493" d="m644.713 263.458 1.401-.68c1.027-5.489-1.341-16.068 1.254-19.347 5.875 1.345 9.556 17.859 10.202 23.262-2.353 4.236-3.916 6.33-4.759 11.087-.412-2.773-.554-4.173-1.543-6.816-1.815-1.531-.934-1.233-3.29-1.122l-1.115-2.289c-.174-2.248-.489-2.928-2.15-4.095"/><path fill="#959493" d="M305.674 512.504c1.173 2.514 2.266 5.269 4.146 7.281 3.252 9.094-.932 12.248-1.402 18.912-8.195-.036-12.788-.295-20.761-2.012 5.125-1.854 11.451-3.122 16.85-4.355 3.39-6.497-4.746-10-5.347-16.122 2.13-1.251 4.322-2.593 6.514-3.704"/><path fill="#434243" d="m689.132 820.27 1.873-1.4c5.226 13.58 11.081 29.88 12.079 44.47-.13 2.18.01 5.04-1.12 6.71-1.616-8.7-2.523-10.57-8.887-16.72 4.893-11.75 4.045-12.6-3.753-22.54z"/><path fill="#bcbbba" d="M323.088 920.29c-3.515-2.65-19.103-12.65-15.567-16.97 7.409-1.59 21.612 13.68 27.776 18.59-4.276.19-9.024 1.02-12.209-1.62"/><path fill="#959493" d="M324.14 232.019c7.615 3.393 20.409 7.515 24.483 14.073-2.923 2.206-1.715 6.552-5.23 10.923-.17-2.23-.741-5.372-1.091-7.662-6.481-6.694-13.12-8.768-21.596-12.589 1.055-1.109 2.517-3.404 3.434-4.745"/><path fill="#adabab" fill-opacity=".976" d="M379.114 54.047c1.007 30.143.638 67.328.34 97.797l-.781.019c-.985-34.544-2.167-62.404-1.172-97.318z"/><path fill="#dededd" fill-opacity=".153" d="M360.532 919.05c1.838 3.07 2.041 6.1 2.613 9.66-.124 1.77-.356 3.18.058 4.89l-.693 3.48-.968-.03c-.064 1.06-.049 1.86-.376 2.88-2.034-.15-3.832-.4-5.839-.06l-1.796-2.25c1.091-3.1 3.293-7.94 2.343-10.85-1.915-1.25-1.444-.87-4.072-.84-.409-1.3-1.06-2.04-1.846-3.15 2.95-.25 4.442-.29 7.037-1.73.606-.44 2.765-1.57 3.539-2"/><path fill="#959493" d="M237.923 707.318c5.422-7.188 27.406-6.343 36.26-6.539l.046 3.989c-8.714-.867-23.019.893-31.268 3.558l-3.099 7.024c-.833-3.311-.034-4.717-1.939-8.032"/><path fill="#7c7a7b" d="m439.39 670.624.683.981c-2.1 8.094-6.25 19.64-13.715 24.2-2.194 1.34-5.489 2.227-7.644 3.611l-.79-1.787c11.258-5.077 10.84-10.807 12.937-22.15 4.946-.784 5.922-.529 8.529-4.855"/><path fill="#adabab" d="M485.06 382.099c-3.626-3.411-14.582-13.033-13.408-18.101 5.834-2.771 15.62 12.071 18.733 16.44-2.678.094-3.063.096-5.325 1.661"/><path fill="#adabab" d="M515.458 795.768c-4.447-1.865-8.026-1.888-11.709-5.729-1.866-1.946-7.17-6.721-4.54-9.521 5.151-.618 13.937 9.286 20.031 13.19-1.503-.109-2.566-.204-4.052-.444.022 1.154-.009 1.346.27 2.504"/><path fill="#959493" d="M653.728 306.043c4.983.589 15.574 1.988 19.698 4.752l-.396.744c-9.874 2.838-11.824.477-19.024 1.191-1.99-.493-2.628-1.931-2.979-3.66 1.008-2.231.437-1.425 2.701-3.027"/><path fill="#7c7a7b" fill-opacity=".953" d="M378.867 174.299c.723 4.366.648 11.082.725 15.692q-.15 21.2.243 42.396c.074 5.016-.047 15.752.586 20.398.625.502.763.769 1.437.935l-1.419.577c-.179 1.374-.339 2.469-.613 3.827-.297-2.799.148-2.87-1.346-4.726-.765-3.212-.437-18.073-.41-22.097z"/><path fill="#7c7a7b" fill-opacity=".957" d="m555.752 312.365 1.927.468c-.818 11.63 1.137 23.892 2.621 35.425.698 5.425 3.342 19.828 2.61 24.767l-.824.299-.75 1.832c-.303-5.634-.983-15.575-2.475-20.731-1.607-12.005-2.321-29.726-3.109-42.06"/><path fill="#adabab" fill-opacity=".961" d="M396.167 700.978c8.894-.621 13.071-1.222 21.757-3.349l.79 1.787c-.675 1.985-.81 3.727-2.243 4.59-10.29-.971-35.795-1.49-42.815-3.064l1.419-1.025c4.186.635 6.746 1.006 11.055 1.094 1.9.986 7.932.403 10.037-.033"/><path fill="#959493" fill-opacity=".973" d="m624.106 574.361 3.335.826c.273 2.739.551 1.781-.775 3.78-1.859.616-2.738.518-3.609 1.88.491 3.536 3.135 19.653 2.14 21.996-1.944-4.415-2.731-15.535-4.553-21.924-6.086-.373-8.274.347-13.849.614 2.089-1.027 5.936-1.988 8.322-2.658 3.183-.805 7.818-1.291 8.989-4.514"/><path fill="#959493" fill-opacity=".933" d="M367.784 747.738c4.566.542 37.784 5.066 40.027 5.996-12.769 1.65-27.731-3.503-40.22-4.651z"/><path fill="#adabab" fill-opacity=".914" d="M373.656 700.942c-6.658-1.27-11.708-3.267-16.501-8.249-1.782-1.852-5.889-6.907-5.832-9.444 4.004 1.669 5.147 12.383 23.752 16.668z"/><path fill="#adabab" fill-opacity=".745" d="M290.992 727.576c-7.692.281-12.933.298-20.759 1.271-5.859.728-14.746 2.458-20.317 2.591 5.337-2.717 29.284-5.008 35.855-4.771z"/><path fill="#959493" d="M555.752 312.365c-1.514-.945-2.051-2.144-3.013-3.675.099-2.197-.167-1.336 1.166-3.255 3.67-.643 5.18 2.588 7.454 5.197-1.07 1.413-1.521.425-3.68 2.201z"/><path fill="#bcbbba" fill-opacity=".973" d="M379.783 460.1c.165 2.962.29 6.746.793 9.673.363 2.107 2.244 1.51 5.153 3.019l-5.003 1.232-1.125 2.026c-1.216-2.133-2.838-2.184-5.093-2.8l3.515-2.591c1.142-2.7 1.427-7.494 1.76-10.559"/><path fill="#bcbbba" fill-opacity=".267" d="M415.911 957.45c-.639-4.81-.921-27.09.57-31.18.775 5.26.638 22.16.151 27.69z"/><path fill="#f9f9fa" fill-opacity=".012" d="M148.595 826.5c.818 4.38 1.961 8.96-3.41 10.13l-1.459-.94c-1.563-4.99 2.625-4.05 3.14-7.77z"/><path fill="#605f5f" fill-opacity=".988" d="M684.809 807.041c2.89 4.109 4.188 7.279 6.196 11.829l-1.873 1.4c-1.252-5.2-2.421-6.92-7.698-8.29.498-1.2 2.517-3.771 3.375-4.939"/><path fill="#dededd" fill-opacity=".843" d="m487.415 845.47 1.143.19c4.276 5.34 8.384 7.88 14.593 10.63l.844 1.96-.481.25c-6.258-2.44-12.923-6.95-16.099-13.03"/><path fill="#adabab" d="M505.365 884.66c5.66 1.31 10.209 3.39 15.311 6.02l-1.079 2.63c-4.493-2.9-9.616-5.86-14.232-8.65"/><path fill="#bcbbba" fill-opacity=".2" d="M378.767 158.553c1.074 5.382.302 10.469 1.192 14.924.449 3.475.439 13.218-.367 16.514-.077-4.61-.002-11.326-.725-15.692-.348-2.787-.205-12.656-.1-15.746"/><path fill="#adabab" fill-opacity=".925" d="M639.469 725.874c-.194-4.549-1.458-8.467-1.288-13.41.85 1.394 3.215 10.498 4.133 13.138z"/><path fill="#f9f9fa" fill-opacity=".008" d="M440.615 132.015c2.665 3.704 4.37 6.39 6.683 10.325l-8.689-7.258z"/><path fill="#bcbbba" fill-opacity=".698" d="M380.726 474.024c-.048 2.569-.521 11.965.464 13.803l-1.714.427c-.132-4.468-.231-7.714.125-12.204z"/><path fill="#605f5f" fill-opacity=".875" d="M703.084 863.34c.849 4.53.661 9.79.677 14.45-.628-2.33-1.557-5.39-1.797-7.74 1.13-1.67.99-4.53 1.12-6.71"/><path fill="#959493" fill-opacity=".89" d="M377.619 47.044c-.258-2.682-.522-6.609.561-9.072.951 1.597.708 5.291.725 7.342-1.21.871-.793.315-1.286 1.73"/><path fill="#adabab" fill-opacity=".914" d="m556.538 282.845 1.267.208c-.43 3.771-.249 6.05-.996 10.19-.367-2.401-.254-7.757-.271-10.398"/><path fill="#959493" fill-opacity=".976" d="M363.145 928.71c1.136 1.68.786 1.14.848 3.48-.171.33-.567 1.18-.79 1.41-.414-1.71-.182-3.12-.058-4.89"/><path fill="#bcbbba" fill-opacity=".678" d="M386.13 701.011c3.61-.141 6.389-.213 10.037-.033-2.105.436-8.137 1.019-10.037.033"/></g></svg>