<svg xmlns="http://www.w3.org/2000/svg" width="1536" height="1024" viewBox="0 0 1536 1024"><path fill="#202020" d="M1357.78 45.154c4.38 1.364 9.01 2.613 13.13 4.642 13.85 6.819 26.35 20.917 33.53 34.487 4.46 8.432 9.16 22.042 6.25 31.625-1.18 3.905-3.1 7.524-4.03 11.532-1.65 7.073-9.58 51.867-11.4 53.785l-2.03-.382c-1.53 9.716-4.28 50.055-3.23 59.092 1.08.756.49.665 1.75.462.43 6.61.25 19.712-.25 26.517l-2.28.78-.26-2.975-.35-.071c-1.08 4.036-.79 8.275-1.57 12.111-2.84 14.025-.2 26.62-.14 40.747-.22 5.496-.43 29.079.48 33.75.12 2.462.07 4.443.76 6.816.14 1.325.33 2.079.15 3.395-1.15 5.083-1.74 20.53-.36 25.231l.2-.895-.5-.145c.76-1.049.59-.453.72-1.716.92-1.232 1.53-4.644 1.93-6.316.16 22.497-1.62 43.487-2.66 66.021l-.92-.204c.14-3.94 1.47-22.619.36-24.905-1 4.578-3.51 56.033-2.45 58.273l2.38.324c-.67 7.271-4.61 45.221-3.64 49.95l2.06 1.048c-.81 7.459-3.04 15.388-1.2 22.389l.54.001 1.14-3.324c4.87 10.711-.32 36.996-1.27 48.835-2.28 28.66-7.11 57.651-5.95 86.461-1.65-1.506-3.38-2.341-5.32-3.441-.89-6.249-.87-11.279-.96-17.576-.75 2.517-7.11 40.456-6.97 41.841 1.84 18.519.17 31.226-1.55 49.582a297 297 0 0 0 3.28-10.502c.62 4.546 1.34 9.312 1.85 13.847.72-4.079 1.39-8.506 2.57-12.448l.98-.273c-1.34 24.709 3.19 47.03 4.6 71.624.02.339-1.86 2.355-2.19 2.688-.21 3.146.44 6.036.8 9.152 2.02 17.228 5.43 35.101 4.92 52.481l2.99-11.558c1.06 8.561 1.1 17.218.12 25.788 1.78-4.094 3.68-8.235 5.1-12.461-.06 23.236 1.56 49.18-16.27 66.027-16.66 15.735-32.14 15.938-53.09 16.116 6.98-3.041 13.87-4.469 19.81-7.07-7.14 1.398-25.57 5.658-31.4 6.301-17.85 1.972-22.24 1.675-39.97 6.421 6.43-.277 8.76-.339 15.27.619-6.71.616-15.19 1.61-21.84 1.513-20.76-.301-41.44 1.905-62.15 1.814l.02-2.117c2.48-.162 3.36-.508 5.77-1.22l-2.03-.211c-18.75-.212-37.67-2.953-56.43-3.8-4.35-.197-9.2-3.307-13.44-4.173-9.15-1.575-19.33-3.882-28.6-4.48-6.67-.431-6.89-3-10.81-3.647-26.9-4.447-56-9.922-83.25-6.529-15.079 1.879-30.82 7.726-45.837 10.568-2.035.421-25.602 2.045-26.468 1.756 5.281-2.087 16.122-3.574 22.227-4.675-2.32-.654-19.551.742-21.554 1.884-41.749 23.782-87.067 3.655-131.277 5.277-5.809.213-12.343 1.071-18.165.866-5.3-.185-20.708-4.203-25.309-1.811l.373 4.371c-6.597.538-16.427.263-23.146.03-4.877-.169-13.132-2.845-17.714-2.138-.631.543-1.283 1.118-1.988 1.561-5.961 3.746-52.916-9.971-62.384-12.194-7.5-3.366-11.871-5.269-20.134-6.876-21.789-7.713-33.308-3.688-54.905-5.857l-.697.414 2.924 2.08c-2.179.878-8.287-2.534-11.122-1.751l2.056 2.348c-5.117-.48-24.396-5.92-29.235-7.713 1.14-1.124 1.492-1.325 2.78-2.207-4.556-1.503-26.406 1.306-33.459 1.361 2.405-1.321 5.205-2.762 7.484-4.233-8.429 1.31-21.389 5.037-28.126 5.581-28.036 2.266-58.341-.131-86.409-1.844-6.901-.421-23.034-.849-28.987-1.806l-.759-.619c4.584-.096 13.364.52 17.164-.494-1.475-1.592-60.511-4.878-67.004-5.082-31.798-1.001-64.242.111-96.118-.696-15.459-.392-19.885.652-33.806 7.341-3.725 1.757-9.799-1.966-13.769-.99-16.685 2.823-33.96 7.29-50.425 10.898-16.137 3.537-42.758 13.685-58.63 11.748l-6.471-.737c-13.13-2.363-26.927-18.479-29.704-31.19-2.647-12.112-2.454-26.035-1.089-38.319l4.518 11.788c-.54-4.857-1.787-20.952-.36-25.112 1.754 1.717 1.584 2.661 2.333 5.248 1.69-18.691 4.853-37.215 6.49-55.334-2.142-7.628-1.662-12.883.436-20.647.47-4.633-.356-13.199.369-16.624 4.004-18.921 3.43-34.936.784-54.014-1.077-7.77-4.15-16.872-4.749-24.476-.87-15.355 1.627-30.373-.366-45.702-2.23-17.147-2.973-34.639-4.375-51.864-1.643-20.185-8.064-42.06-3.513-62.304.982 1.1 1.68 7.514 1.967 9.424 1.597-9.725 1.186-11.844-.048-21.427-.58-4.644-2.552-16.883-1.4-20.766l1.026.378c1.669 2.535 1.77 6.318 2.153 9.492.812-4.95-2.74-37.141-3.445-44.32-1.044-4.793-6.05-29.116-4.129-32.264l2.14 1.629.562-.356c.172-5.002.099-7.816-.344-12.801-.95-11.768-1.67-22.636-1.99-34.422-.347-12.715 1.684-32.081-1.67-43.879l-1.208.695c.104-2.464.808-5.346 1.306-7.804l1.96 2.098q-.507-5.715-.75-11.447c-.417-6.691-1.645-14.728-1.594-21.356.146-18.979.872-38.089.605-57.077-.157-11.164-2.186-21.758-2.185-33.14.597 3.415 1.506 10.181 2.874 13.04 1.411-3.428-2.437-52.524-3.578-58.429-5.748-2.574-4.903-13.985-6.403-20.424-2.798-12.011-12.296-32.576-12.332-44.378-.026-8.731 4.062-28.022 5.86-37.102-1.018.883-4.22 5.865-5.186 7.3.989-7.077 1.934-21.588 11.63-21.072l-.197 1.515c16.214-10.601 84.27-7.971 106.515-8.808 7.107-.267 28.872-2.596 34.56-2.224l1.135.71c-1.086.807-2.328 1.548-2.995 2.68 11.533 2.33 28.908-6.382 40.68-1.378 2.03.863 6.932 2.135 9.423 1.68 6.247-1.142 41.318 1.806 44.479-.152l-.663-1.356c5.543-2.405 13.673 2.68 19.089 3.034 13.271.88 26.353.858 39.678 1.07 12.759.202 24.648-5.324 37.299-5.847 28.193-1.164 56.955 5.349 85.085 7.477 5.494.416 9.796.966 15.103 2.241-3.409.004-8.349-.235-11.449.68l.488-.205c4.112 2.649 47.398 2.156 55.561 2.729 10.088.708 27.734 2.666 37.578 1.746l.47-.843c-1.275-.312-2.368-.566-3.629-.959 14.223-4.711 30.654.158 45.008-.183 11.69-.278 23.524-4.522 34.794-6.406 4.708-.787 16.387.233 21.413.603 19.131 1.41 38.397 8.458 57.691 9.28 13.611.58 27.599-3.87 41.51-3.738 15.884.151 30.765 4 46.345 5.508 15.941 1.543 33.276.82 49.201 2.033 17.145.09 39.863.393 56.808 2.549-2.481 1.746-24.708.672-29.277.569 12.336 4.738 19.68 1.625 31.158 4.344-1.124.499-44.584-.71-52.37.473l.1.494c20.147 3.288 33.886 6.16 55.008 5.692 22.685 1.34 46.076.785 68.46 2.102 34.612 2.036 66.846 3.062 101.356-1.213 13.21-1.635 27.07-1.159 40.09-5.24-16.86 1.304-34.02 1.401-50.88 1.98-7.21.247-24.59.248-30.72 1.812l-.33.006c-4.66-1.94-11.24.485-20.16-2.038l76.88-4.102c13.2-.626 30.48-.39 43.29-1.879l-.73 2.48c1.8 1.242 13.38.87 15.1-.034l-.57-1.747c-1.27-.426-1.75-.574-2.94-1.224l-.85-.474c18.31-2.37 41.48 3.253 61.2-4.183-7.26-.335-19.93-.67-26.84-2.455l.39-1.023 7.6-.56c10.25-1.095 14.75-2.385 25.28-2.13 5.76-.015 13.34-.218 18.96.125 8.3.075 27.22-.373 35.04-1.976-2.65-.75-29.92.67-36.14.4-5.31-.583-13.31-1.213-18.29-2.476 1.91-2.14 1.66-2.552 4.75-2.577 25.72-.208 51.45-3.284 77.17-4.878 16.84-1.043 37.33-.67 53.54-3.915l.16-.637-1.23-1.572c1.82-1.846 9.84-3.85 13.71-6.13 6.32 2.24 14.09 6.817 20.28 6.084l.2-1.12c-2.33-3.172-6.39-5.214-9.78-7.466M56.597 859.583c3.023-24.386 1.201-36.004.928-58.769l-.973.901c-.407 7.452-.279 14.615-1.902 21.86-1.038 9.571 1.025 25.931 1.947 36.008M855.34 80.303c-6.968-.042-14.3-.483-21.29-.802l-4.717.033c-9.487-.02-34.051-1.677-40.669.847 12.546.729 26.078.629 38.687.628 8.171-.192 21.462 2.335 27.989-.705M44.873 475.172l.249.352.43-.446c-.09-4.692-.412-13.188-1.73-17.585l-.709 1.446c.292 4.707.496 11.893 1.76 16.233m-1.546-35.156c.252-5.586.38-13.741-.291-19.16l-.502.558c-.91 5.104-.71 6.942-.373 12.188zm859.499-339.692-1.063.553c8.497 2.802 14.136 2.277 20.435 4.156-20.959-.066-42.76.108-63.728.891-7.165.268-52.494-2.349-55.758-.252l.342.752q-2.935.697-5.862 1.433l-3.951.072c-14.403-2.12-26.471-.093-40.509.325l10.175 2.641c-4.754 1.083-15.55 1.925-17.935 4.598l1.958 1.96c-1.863 2.996-11.448 2.661-15.262 2.891 6.982 1.674 12.443 1.817 19.179 3.257-22.958 1.088-38.286 1.334-61.323-2.062 7.247-.86 12.005-1.632 19.127-3.205-2.488-.462-6.511-.807-9.141-1.117-17.324-.435-31.923.153-48.617.004 5.386 1.123 11.573 1.466 15.688 2.4-5.154 1.402-17.812-1.251-24.009-1.126-9.939.2-18.216 2.065-27.688 4.812 4.968-.551 9.983-1.134 14.973-1.4 4.293-.228 8.695 1.723 12.847 2.101-32.239 7.193-63.606 12.264-96.716 12.86-3.658.448-7.533 3.033-11.231 3.044-6.443.02-11.775-4.012-18.322-3.466-5.942.495-11.961 1.617-17.83 2.55-5.466.87-6.01 1.439-10.371-1.721-3.383.007-4.686 1.671-7.472 1.518-43.407-2.385-86.569-8.986-129.509-15.398-13.618-2.033-28.643 3.767-42.294 2.382-6.926-.428-14.011-.917-20.92-.555-6.435.442-13.037 3.409-19.374 3.565l.462-1.598c-6.574-1.762-9.537 3.35-14.82 4.008-9.438 1.157-18.908 2.228-28.398 2.869-8.588.829-18.177-.883-26.636-.214-6.931.549-16.86.534-23.396 1.697-14.291 2.545-23.551-5.202-35.659-6.95-15.602-2.253-39.249-4.254-53.937 1.365l-.46.274c-1.001 4.902 8.522 56.294 9.236 66.114 1.067 14.676-.115 26.285-1.471 41.011a53 53 0 0 0-2.389.842c.088 14.318-.45 38.492 1.661 51.682l.186-.271c1.003 8.243 1.097 48.322-.557 55.147-1.011-.602-.902-1.104-1.455-2.498-1.418 6.106-2.483 21.873-3.16 28.852-1.251-5.293-1.746-7.835-4.75-12.465 1.036 5.863 2.19 12.192 2.51 17.858 1.182 20.897-3.817 41.817 4.474 61.635 1.138 2.72-.138 13.241.82 16.624 1.336 8.155 3.768 16.126 5.272 24.315l-5.572-12.28c-.478 8.419.632 16.12.512 24.29-.26 17.786.141 35.466.333 53.229.162 14.973-5.355 30.532-5.32 45.576-.176 9.546 1.275 19.188 1.352 28.711.04 4.96-.03 11.508-.577 16.477-1.916 17.419.751 36.917-3.516 53.636-2.978 11.669-.524 24.986-1.348 37.061-.621 12.312-1.66 24.528-2.472 36.388-.696 10.143 2.457 48.2-2.464 54.703l.186-.629c-2.77 5.604-1.86 17.6-.775 23.686l.471.014c.339-3.099.414-4.989.425-8.097 3.042 13.114 3.375 18.047 1.575 31.237 6.089 14.028 2.156 18.43 13.104 29.766 30.952 7.69 60.621-2.02 91.593-.598-.585 2.397-.957 2.133-.126 3.824 1.437-.201 1.544-.058 2.598-.993 8.189-.329 28.889-4.295 33.58-2.569l-.102 2.004c1.528 1.16 1.991 1.382 3.725 2.236-1.576.663-11.765.724-15.304 1.238 8.899 1.442 21.925 1.913 31.331 2.621 10.752.809 23.371 2.069 33.91 1.906l-.24.726c-7.488.37-31.165 1.992-37.364 3.298l-.099.363c7.12.288 25.674-1.66 29.669-.897a100 100 0 0 1-.057 1.901c5.341 1.434 20.605-1.395 30.375-.491l1.908.138 10.38 1.142c5.617 1.09 17.79.61 19.561 1.731l-2.418 1.816c3.09 4.343 85.668 6.752 97.936 6.409 9.356-.262 21.157 1.886 30.506.603-2.778-.067-9.419-.049-11.829-.604 1.863-1.367 66.344-7.527 72.486-8.759 5.212-1.045 4.654-.937 8.148-5.555l13.054-3.35-19.002-.024c5.306-.964 10.603-1.714 15.916-2.589 18.183-2.995 35.821 3.741 53.88 4.875l.191-.686-1.211-1.437c1.637-.748 5.72-2.587 7.24-2.599 6.592-.05 24.063 1.232 29.774 3.311 9.117 3.32 27.692 20.45 37.267 20.722l1.12-1.343c-.997-4.182-9.543-6.023-13.508-7.333 18.732-.37 30.44 2.366 48.579 5.297 8.807 1.423 20.568-2.699 29.87-2.307-2.811-1.217-6.111-2.296-8.153-4.424l.361-.839c5.943-.716 11.994.944 18.031 1.033 24.468.361 42.553 3.917 67.163.955-6.132-1.436-12.9-3.645-18.376-4.887-14.069-2.521-18.517-.866-34.569-5.288 14.429-.174 21.086.248 35.041 3.715 2.655.41 9.523 1.67 11.576.3l-1.161-1.867c3.21-.693 13.069 1.344 17.497 1.306 3.687-.032 18.498-1.287 20.989-3.776l-6.231-.508c-3.116.057-9.974-.918-12.456-3.027l.379.906-.557-.337.132-.75c6.649-3.632 19.948-3.859 27.606-3.951-6.107 2.113-9.481 2.131-14.584 3.776 1.232.958 4.869 1.085 6.757 1.327 3.961-.476 10.516-4.196 13.42-4.07 18.269.797 35.891-.512 54.102-2.5 5.637-.615 11.531-.892 17.059-1.958 3.419-.531 9.929-3.759 13.138-3.653 24.784.825 48.092-4.691 72.597-6.707 4.71-.388 9.15 2.474 13.69 2.571 16.04.34 32.23-.02 48.17 2.044 10.22 1.576 20.75 7.239 31.46 9.856l.01-.437.94-2.511c18.72 6.967 24.57 8.439 44.18 9.274 6.31.269 21.82 5.214 29.9 6.42 9.21.737 15.9.576 24.66.974 12.9-1.257 32.98-1.8 44.52-6.705l-1 .269c5.78-2.911 8.15-2.56 14.4-3.501 25.35-3.816 40.33 5.434 63.87-9.565-5.13 1.021-16.5 4.702-20.82 4.972 4.11-2.48 14.16-6.861 18.72-7.929 14.72-3.447 22.08-13.783 30.91-25.612-.63-9.688.21-14.81 1.47-24.386l1.52 3.203.84.127c1.42-5.277 1.44-19.024-.58-24.547l.09.439c-4.23-7.639-1.95-34.996-2.42-45.181-.83-17.818-2.2-35.797-3.01-53.629-.42-9.337 1.29-19.696.81-29.614l-1.06-.604.5-1.233.41.607-.31-.677-1.36 3.501c-3.16-24.394-2.93-50.588-3.22-75.187-.16-14.104 1.96-27.815-1.08-41.765-2.82-12.975-4.98-25.915-3.76-39.235-.13-3.737 1-9.009.63-12.599-1.75-17.159 1.59-36.968.09-53.655l-2.84 5.699-.73-.221c-.24-1.816 1.91-12.548 2.37-15.289.97-5.742.79-13.184 1.92-18.51.92-4.343 3.89-8.76 4.25-14.335.91-13.861-.94-27.493-1.32-41.286-.25-9.194 1.68-18.939 3.33-27.934-2.01 5.136-3.88 10.548-5.76 15.752.01-4.115-.26-24.133-2.44-26.572l-1.9 1.307c-1.92-10.816-.67-33.545-.66-45.275-.06-4.304 1.83-11.679 1.62-15.646-.6-11.227-2-16.74 1.7-27.343.62-1.788-1-12.637-.01-17.618-6.98-7.939-6.16-36.082-5.38-46.924 1.19-6.483 6.11-40.992 1.47-44.264-1.14 1.683-.41 1.244-1.96 1.806-5.54-6.511-15.27-19.694-24.73-18.257l1.99 2.807c-3.04.587-13.31-2.766-17.56-3.036-13.74-.872-27.43-.28-41.14-1.523-12.39-1.081-24.99-5.904-37.23-6.977-16.63-1.458-32.55-.737-49.27-2.437l-.25-1.29-.75.078-.6 1.013-.15-.914-.18.003c13.73-1.307 26.88 1.593 41.79-.995-3.58-.741-5.09-1.435-8.44-2.845-3.64.13-31.04-3.592-35.34-4.59-3.72-.418-16.39-1.621-19.26-2.594l.72.08.66-.291c-13.56-5.347-36.07-4.143-50.29-2.311-13.06-.974-24.18-.202-37.54-2.717-6.22-1.171-16.55-1.053-23.64-1.92q5.91-1.785 11.85-3.45c-5.27-.13-9.16-.251-14.45-.919-9.97-.221-24.29-.78-33.834.433l-2.41.105c-.606.78-1.331 1.652-1.86 2.468-15.83.453-36.999-1.34-53.156-1.815-10.375-.305-24.308-3.154-34.48-1.727l.901.394c2.585.016 3.531-.156 5.892.865l.301 1.04c-2.298 1.494-3.885 1.196-6.758.959M40.683 326.237l.484.067c.256-4.369.314-6.663-.011-11.004.046-7.11 2.05-25.197 1.046-30.421l-.345.574-.674-1.656c.308-9.453.37-12.361-1.019-21.819-.57 5.716-.743 25.139.243 30.799.002 4.682.133 10.137-.015 14.754-.867 6.626-.87 12.104.291 18.706m47.303-129.902c-.296 5.692-.135 12.607-.144 18.39-.008 4.963-1.128 16.099-.454 20.373 1.106.382.71.431 1.732.241 1.284-10.664 1.195-28.554-1.134-39.004M1203.51 911.678c-3.04-.424-10.67-.156-13.85.004l-18.47-.985c4.08 3.613 38.13 2.494 44.37.474l-.57-.527-4.56.514zm134.63-720.853c2.08-3.905 1.43-7.491 1-11.771-1.14 2.01-1.48 9.053-1.65 11.61l-1.12 5.177c.04 12.567.14 24.606 2.09 37.053.26 1.684.83 5.025.86 6.662 1.6-1.708-.69-16.892-.81-20.569-.33-9.411-.35-18.752-.37-28.162m35.95 648.802c.94-9.04-.64-28.409-2.19-37.297-.32 11.855-1.03 21.523-.96 33.704.02 9.357.34 17.579 2.17 26.82.18-7.875.3-15.375.98-23.227M725.125 101.661l.456.841c7.687.669 20.638.449 28.645.436-4.408-3.189-23.697-2.096-29.101-1.277M57.279 656.245c-.805 10.376-1.398 18.822-.666 29.217-1.39 21.775.347 42.078 3.398 63.618.61-2.136 1.645-7.925 2.676-9.353.494 1.583.996 3.629 1.916 4.929 1.147-9.064-1.245-11.982-1.764-19.259-.177-5.555 2.649-15.576 1.491-20.75-2.544-11.37-4.695-19.199-5.383-30.947-.453-6.01-.895-11.466-1.668-17.455m27.447-384.588q.267-1.684.496-3.373c.25-1.882.795-6.174-.394-7.722-1.253 2.851-1.06 7.277-1.135 10.52-.485 2.545-.944 7.559-.484 10.059l1.432.883-1.246-.123.798.918c1.032-3.005.62-7.833.533-11.162m634.198 653.346c-4.617-2.086-8.83-3.854-14.006-3.866 5.926 3.096 7.353 4.12 14.006 3.866m-488.489-19.77c-9.462-1.605-15.908-1.533-25.499-1.081 10.359 1.705 14.967 1.719 25.499 1.081M89.345 185.009c-.072 4.665.22 21.588.998 25.962l.77.474c.255-6.583.71-20.878-1.769-26.436"/><path fill="#999899" fill-opacity=".388" d="M827.351 81.009c-12.609 0-26.141.1-38.687-.627 6.618-2.525 31.182-.867 40.669-.848z"/><path fill="#bebdc1" fill-opacity=".102" d="M834.05 79.501c6.99.319 14.322.76 21.29.803-6.527 3.04-19.818.513-27.989.705l1.982-1.475z"/><path fill="#e2e1e2" fill-opacity=".114" d="M40.407 292.777c-.986-5.66-.812-25.083-.243-30.799 1.388 9.458 1.327 12.366 1.02 21.819-1.022 3.054-.412 5.796-.777 8.98"/><path fill="#bebdc1" fill-opacity=".047" d="m43.113 458.938.71-1.446c1.317 4.397 1.64 12.893 1.729 17.585l-.43.446-.249-.352c-1.264-4.34-1.468-11.526-1.76-16.233"/><path fill="#bebdc1" fill-opacity=".055" d="M42.16 433.601c-.336-5.246-.537-7.084.375-12.188l.5-.558c.671 5.419.544 13.574.292 19.16z"/><path fill="#bebdc1" fill-opacity=".212" d="M40.392 307.531c.202 2.306.382 5.571.764 7.769.325 4.341.267 6.635.011 11.004l-.484-.067c-1.16-6.602-1.158-12.08-.29-18.706"/><path fill="#151415" d="m40.846 433.603 1.315-.002 1.166 6.414c.194 3.698-1.018 17.717-.214 18.923.292 4.707.496 11.893 1.76 16.233l-2.256 2.224c-1.044-4.793-6.05-29.116-4.129-32.264l2.14 1.629.562-.356c.172-5.002.099-7.816-.344-12.801"/><path fill="#151415" d="M832.357 77.093c17.145.09 39.863.393 56.808 2.549-2.481 1.746-24.708.672-29.277.569-1.548-.163-2.983.005-4.548.093-6.968-.043-14.3-.484-21.29-.803z"/><path fill="#151415" d="M16.555 87.278c.989-7.077 1.934-21.588 11.63-21.072l-.197 1.515c.018 1.817-4.954 11.135-6.247 12.257-1.018.883-4.22 5.865-5.186 7.3"/><path fill="#151415" d="m54.214 799.598 2.338 2.117c-.407 7.452-.279 14.615-1.902 21.86l-.872-3.33c-2.142-7.628-1.662-12.883.436-20.647"/><path fill="#404040" d="m40.683 326.237.484.067c1.277 4.456.9 22.347-.145 27.024l-.838.629a72 72 0 0 1-.94-3.666q-.507-5.715-.75-11.447l.5-.056c.996-1.255 1.41-10.009 1.69-12.551"/><path fill="#151415" d="M44.283 532.611c-.58-4.644-2.552-16.883-1.4-20.766l1.026.378c1.669 2.535 1.77 6.318 2.153 9.492-.955 3.792 1.617 10.606.46 13.062l-.687.313-.368-2.053z"/><path fill="#f6f4f6" fill-opacity=".008" d="m903.391 97.459-.901-.394c10.172-1.427 24.105 1.422 34.48 1.727 16.157.474 37.326 2.268 53.156 1.815 4.629.519 18.084-.157 23.404-.36-6.38-1.17-13.15-.706-19.134-2.213 9.544-1.212 23.864-.654 33.834-.433 5.29.668 9.18.788 14.45.92q-5.94 1.665-11.85 3.449c7.09.867 17.42.749 23.64 1.92 13.36 2.515 24.48 1.743 37.54 2.717 14.22-1.832 36.73-3.036 50.29 2.311l-.66.291-.72-.08c2.87.973 15.54 2.176 19.26 2.594 4.3.998 31.7 4.72 35.34 4.59 3.35 1.41 4.86 2.104 8.44 2.845-14.91 2.588-28.06-.312-41.79.995l.18-.003.15.914.6-1.013.75-.078.25 1.29c16.72 1.7 32.64.979 49.27 2.437 12.24 1.073 24.84 5.896 37.23 6.977 13.71 1.243 27.4.651 41.14 1.523 4.25.27 14.52 3.623 17.56 3.036l-1.99-2.807c9.46-1.437 19.19 11.746 24.73 18.257 1.55-.562.82-.123 1.96-1.806 4.64 3.272-.28 37.781-1.47 44.264-.78 10.842-1.6 38.985 5.38 46.924-.99 4.981.63 15.83.01 17.618-3.7 10.603-2.3 16.116-1.7 27.343.21 3.967-1.68 11.342-1.62 15.646-.01 11.73-1.26 34.459.66 45.275l1.9-1.307c2.18 2.439 2.45 22.457 2.44 26.572 1.88-5.204 3.75-10.616 5.76-15.752-1.65 8.995-3.58 18.74-3.33 27.934.38 13.793 2.23 27.425 1.32 41.286-.36 5.575-3.33 9.992-4.25 14.335-1.13 5.326-.95 12.768-1.92 18.51-.46 2.741-2.61 13.473-2.37 15.289l.73.221 2.84-5.699c1.5 16.687-1.84 36.496-.09 53.655.37 3.59-.76 8.862-.63 12.599-1.22 13.32.94 26.26 3.76 39.235 3.04 13.95.92 27.661 1.08 41.765.29 24.599.06 50.793 3.22 75.187l1.36-3.501.31.677-.41-.607-.5 1.233 1.06.604c.48 9.918-1.23 20.277-.81 29.614.81 17.832 2.18 35.811 3.01 53.629.47 10.185-1.81 37.542 2.42 45.181l-.09-.439c2.02 5.523 2 19.27.58 24.547l-.84-.127-1.52-3.203c-1.26 9.576-2.1 14.698-1.47 24.386-8.83 11.829-16.19 22.165-30.91 25.612-4.56 1.068-14.61 5.449-18.72 7.929 4.32-.27 15.69-3.951 20.82-4.972-23.54 14.999-38.52 5.749-63.87 9.565-6.25.941-8.62.59-14.4 3.501l1-.269c-11.54 4.905-31.62 5.448-44.52 6.705-8.76-.398-15.45-.237-24.66-.974-8.08-1.206-23.59-6.151-29.9-6.42-19.61-.835-25.46-2.307-44.18-9.274-2.08-.719-6.84-2.482-8.75-2.87l-.62.784-1.5-1.144 1.28.236-1.38.081c4.49 4.06 6.73 3.187 10.03 5.424l-.01.437c-10.71-2.617-21.24-8.28-31.46-9.856-15.94-2.064-32.13-1.704-48.17-2.044-4.54-.097-8.98-2.959-13.69-2.571-24.505 2.016-47.813 7.532-72.597 6.707-3.209-.106-9.719 3.122-13.138 3.653-5.528 1.066-11.422 1.343-17.059 1.958-18.211 1.988-35.833 3.297-54.102 2.5-2.904-.126-9.459 3.594-13.42 4.07-1.888-.242-5.525-.369-6.757-1.327 5.103-1.645 8.477-1.663 14.584-3.776-7.658.092-20.957.319-27.606 3.951l-.132.75.557.337-.379-.906c2.482 2.109 9.34 3.084 12.456 3.027l6.231.508c-2.491 2.489-17.302 3.744-20.989 3.776-4.428.038-14.287-1.999-17.497-1.306l1.161 1.867c-2.053 1.37-8.921.11-11.576-.3-13.955-3.467-20.612-3.889-35.041-3.715 16.052 4.422 20.5 2.767 34.569 5.288 5.476 1.242 12.244 3.451 18.376 4.887-24.61 2.962-42.695-.594-67.163-.955-6.037-.089-12.088-1.749-18.031-1.033l-.361.839c2.042 2.128 5.342 3.207 8.153 4.424-9.302-.392-21.063 3.73-29.87 2.307-18.139-2.931-29.847-5.667-48.579-5.297 3.965 1.31 12.511 3.151 13.508 7.333l-1.12 1.343c-9.575-.272-28.15-17.402-37.267-20.722-5.711-2.079-23.182-3.361-29.774-3.311-1.52.012-5.603 1.851-7.24 2.599l1.211 1.437-.191.686c-18.059-1.134-35.697-7.87-53.88-4.875-5.313.875-10.61 1.625-15.916 2.589l19.002.024-13.054 3.35c-3.494 4.618-2.936 4.51-8.148 5.555-6.142 1.232-70.623 7.392-72.486 8.759 2.41.555 9.051.537 11.829.604-9.349 1.283-21.15-.865-30.506-.603-12.268.343-94.846-2.066-97.936-6.409l2.418-1.816c-1.771-1.121-13.944-.641-19.561-1.731l.503-2.366c4.936-2.051 10.523-3.683 15.644-5.423l.01-1.643c-2.985-5.223-8.676-4.216-14.181-4.323-5.656-.109-14.65-.458-18.33 4.747-4.385 1.133-13.523 2.22-18.218 2.828-10.539.163-23.158-1.097-33.91-1.906-9.406-.708-22.432-1.179-31.331-2.621 3.539-.514 13.728-.575 15.304-1.238-1.734-.854-2.197-1.076-3.725-2.236l.102-2.004c-4.691-1.726-25.391 2.24-33.58 2.569l-.209-.607c7.161-.729 11.399-1.655 18.23-3.483-6.407.157-13.917.905-20.493 1.259-30.972-1.422-60.641 8.288-91.593.598-10.948-11.336-7.015-15.738-13.104-29.766 1.8-13.19 1.467-18.123-1.575-31.237-.011 3.108-.086 4.998-.425 8.097l-.471-.014c-1.084-6.086-1.996-18.082.775-23.686l-.186.629c4.921-6.503 1.768-44.56 2.464-54.703.813-11.86 1.85-24.076 2.472-36.388.824-12.075-1.63-25.392 1.348-37.061 4.267-16.719 1.6-36.217 3.516-53.636.546-4.969.617-11.517.577-16.477-.077-9.523-1.528-19.165-1.353-28.711-.034-15.044 5.483-30.603 5.321-45.576-.192-17.763-.594-35.443-.333-53.229.12-8.17-.99-15.871-.512-24.29l5.572 12.28c-1.504-8.189-3.936-16.16-5.271-24.315-.96-3.383.317-13.904-.821-16.624-8.291-19.818-3.292-40.738-4.474-61.635-.32-5.666-1.474-11.995-2.51-17.858 3.004 4.63 3.499 7.172 4.75 12.465.677-6.979 1.742-22.746 3.16-28.852.553 1.394.444 1.896 1.455 2.498 1.654-6.825 1.56-46.904.557-55.147l-.186.271c-2.111-13.19-1.573-37.364-1.66-51.682a53 53 0 0 1 2.388-.842c1.356-14.726 2.538-26.335 1.47-41.011-.713-9.82-10.236-61.212-9.235-66.114l.46-.274c14.688-5.619 38.335-3.618 53.937-1.365 12.108 1.748 21.368 9.495 35.659 6.95 6.536-1.163 16.465-1.148 23.396-1.697 8.459-.669 18.048 1.043 26.636.214 9.49-.641 18.96-1.712 28.398-2.869 5.283-.658 8.246-5.77 14.82-4.008l-.462 1.598c6.337-.156 12.939-3.123 19.374-3.565 6.909-.362 13.994.127 20.92.555 13.651 1.385 28.676-4.415 42.294-2.382 42.94 6.412 86.102 13.013 129.509 15.398 2.786.153 4.089-1.511 7.472-1.518 4.361 3.16 4.905 2.591 10.371 1.721 5.869-.933 11.888-2.055 17.83-2.55 6.547-.546 11.879 3.486 18.322 3.466 3.698-.011 7.573-2.596 11.231-3.044 33.11-.596 64.477-5.667 96.716-12.86-4.152-.378-8.554-2.329-12.847-2.101-4.99.266-10.005.849-14.973 1.4 9.472-2.747 17.749-4.612 27.688-4.812 6.197-.125 18.855 2.528 24.009 1.126-4.115-.934-10.302-1.277-15.688-2.4 16.694.149 31.293-.439 48.617-.004 2.63.31 6.653.655 9.141 1.117-7.122 1.573-11.88 2.345-19.127 3.205 23.037 3.396 38.365 3.15 61.323 2.062-6.736-1.44-12.197-1.583-19.179-3.257 3.814-.23 13.399.105 15.262-2.891 4.103-3.883 33.539-2.673 40.681-3.216 9.742-.739 21.119-2.243 30.792-2.583l.365-.573c-3.011-1.494-8.651-.152-13.287-1.592l.064-.86c7.306 1.291 20.769.907 28.699.848-10.795-2.209-20.219-2.503-31.19-3.053l-.342-.752c3.264-2.097 48.593.52 55.758.252 20.968-.783 42.769-.957 63.728-.891-6.299-1.879-11.938-1.354-20.435-4.156l1.063-.553c2.873.237 4.46.535 6.758-.959l-.301-1.04c-2.361-1.02-3.307-.85-5.892-.865M89.318 396.497c.017 6.937-.507 17.454 2.338 23.524-.353 2.716-.226 4.909-.153 7.619l.966.69-.593 1.364.284-.123c1.46-5.534.904-9.821.3-15.498-.363-7.886-.714-10.14-3.142-17.576m1248.172 24.174c1.78-4.381 3.87-13.336.64-17.348-1.79 6.409-2.11 9.78-1.51 16.418z"/><path fill="#151415" d="M1034.36 115.885c12.63-1.147 31.31 2.948 45.26 4.115l.4.75c-11.66-.069-35.45-.411-45.84-3.877z"/><path fill="#151415" fill-opacity=".988" d="M91.656 420.021c-2.845-6.07-2.322-16.587-2.338-23.524 2.428 7.436 2.779 9.69 3.141 17.576-.15 1.539-.341 4.612-.803 5.948"/><path fill="#151415" fill-opacity=".988" d="M1338.13 403.323c3.23 4.012 1.14 12.967-.64 17.348l-.87-.93c-.6-6.638-.28-10.009 1.51-16.418"/><path fill="#999899" fill-opacity=".42" d="M92.46 414.073c.604 5.677 1.16 9.964-.3 15.498l-.284.123.593-1.364-.966-.69c-.073-2.71-.2-4.903.153-7.619.462-1.336.653-4.409.803-5.948"/><path fill="#e2e1e2" fill-opacity=".055" d="M291.535 899.692c3.68-5.205 12.674-4.856 18.33-4.747 5.505.107 11.196-.9 14.181 4.323l-.01 1.643c-5.121 1.74-10.708 3.372-15.644 5.423l-.503 2.366-10.38-1.142c1.983-.259 2.784-.267 4.611-1.021l-.064-1.138c-2.181-1.248-4.548-1.442-6.88-.435l.425 2.456c-9.77-.904-25.034 1.925-30.375.491q.037-.95.057-1.901c-3.995-.763-22.549 1.185-29.669.897l.099-.363c6.199-1.306 29.876-2.928 37.364-3.298 14.799-1.396 22.227.247 34.25-.363-4.562-.846-11.029-1.27-15.773-1.72 6.823-1.728 25.246-.967 33.577-1.162-12.557-3.27-20.884-1.778-33.596-.309"/><path fill="#151415" d="M1028.23 97.601c7.33-.619 18.39-1.993 25.01.587 2.47 2.7-1.17 2.476 2.45 4.294 2-.183 4.7-.349 6.62-.685 10.6-2.437 29.5-1.965 40.25-.634l-10.59 1.938.04 3.506c-13.06-.974-24.18-.202-37.54-2.717-6.22-1.171-16.55-1.053-23.64-1.92q5.91-1.785 11.85-3.45c-5.27-.13-9.16-.251-14.45-.919"/><path fill="#5b5a5b" d="M1062.31 101.797c10.6-2.437 29.5-1.965 40.25-.634l-10.59 1.938c-5.3.263-23.09-1.145-29.66-1.304"/><path fill="#79777a" fill-opacity=".796" d="m793.241 107.928 3.951-.072c1.749.095 7.047.231 8.353.772l-.064.86c4.636 1.44 10.276.098 13.287 1.592l-.365.573c-9.673.34-21.05 1.844-30.792 2.583-7.142.543-36.578-.667-40.681 3.216l-1.958-1.96c2.385-2.673 13.181-3.515 17.935-4.598 12.805 2.402 18.292 1.052 30.334-2.966"/><path fill="#151415" d="M699.51 117.216c8.026-3.351 22.157 1.831 32.158 3.127 6.982 1.674 12.443 1.817 19.179 3.257-22.958 1.088-38.286 1.334-61.323-2.062 7.247-.86 12.005-1.632 19.127-3.205-2.488-.462-6.511-.807-9.141-1.117"/><path fill="#151415" d="m1332.53 193.144 3.84 2.697c.04 12.567.14 24.606 2.09 37.053.26 1.684.83 5.025.86 6.662l-1.41.512c-6.98-7.939-6.16-36.082-5.38-46.924"/><defs><linearGradient id="a" x1="776.105" x2="775.645" y1="106.926" y2="111.377" gradientUnits="userSpaceOnUse"><stop offset="0" stop-color="#767576" stop-opacity=".694"/><stop offset="1" stop-color="#787677" stop-opacity=".749"/></linearGradient></defs><path fill="url(#a)" d="M752.732 108.253c14.038-.418 26.106-2.445 40.509-.325-12.042 4.018-17.529 5.368-30.334 2.966z"/><path fill="#151415" d="M827.617 902.598c-3.116.057-9.974-.918-12.456-3.027l.379.906-.557-.337.132-.75c6.649-3.632 19.948-3.859 27.606-3.951-6.107 2.113-9.481 2.131-14.584 3.776 1.232.958 4.869 1.085 6.757 1.327l-.052 1.356c-2.706.692-4.481.634-7.225.7"/><path fill="#151415" fill-opacity=".961" d="M291.535 899.692c12.712-1.469 21.039-2.961 33.596.309-8.331.195-26.754-.566-33.577 1.162 4.744.45 11.211.874 15.773 1.72-12.023.61-19.451-1.033-34.25.363l.24-.726c4.695-.608 13.833-1.695 18.218-2.828"/><path fill="#151415" d="M749.906 903.428c14.429-.174 21.086.248 35.041 3.715l-.472 1.573c-14.069-2.521-18.517-.866-34.569-5.288"/><path fill="#f6f4f6" fill-opacity=".024" d="m1337.49 190.664.65.161c.02 9.41.04 18.751.37 28.162.12 3.677 2.41 18.861.81 20.569-.03-1.637-.6-4.978-.86-6.662-1.95-12.447-2.05-24.486-2.09-37.053z"/><path fill="#e2e1e2" d="M1142.3 108.918c6.62-.428 19.89-1.683 25.6.263l-.1.94c-2.56 1.526-4.69 1.412-7.62 1.602-3.72-.418-16.39-1.621-19.26-2.594l.72.08z"/><path fill="#999899" fill-opacity=".043" d="M87.986 196.335c2.329 10.45 2.418 28.34 1.134 39.004-1.023.19-.626.141-1.732-.241-.674-4.274.446-15.41.454-20.373.01-5.783-.152-12.698.144-18.39"/><path fill="#151415" fill-opacity=".984" d="M803.054 106.423c10.971.55 20.395.844 31.19 3.053-7.93.059-21.393.443-28.699-.848-1.306-.541-6.604-.677-8.353-.772q2.927-.736 5.862-1.433"/><path fill="#151415" d="M1173.56 908.871c9.21.737 15.9.576 24.66.974 3.83.356 9.86-.078 12.21 1.313l-6.92.52c-3.04-.424-10.67-.156-13.85.004l-18.47-.985c.85-.968 1.29-1.12 2.37-1.826"/><path fill="#bebdc1" d="M1195.52 116.313c10.15-.309 16.92-.557 26.86 2.492-5 .119-13.72.598-18.42.353-3.58-.741-5.09-1.435-8.44-2.845"/><path fill="#999899" fill-opacity=".133" d="m1210.43 911.158 4.56-.514.57.527c-6.24 2.02-40.29 3.139-44.37-.474l18.47.985c2.5.783 11.38.88 13.85-.004z"/><path fill="#bebdc1" fill-opacity=".024" d="M1370.94 836.034c.92 1.064 2.2 2.636 3.15 3.593-.68 7.852-.8 15.352-.98 23.227-1.83-9.241-2.15-17.463-2.17-26.82"/><path fill="#404040" fill-opacity=".847" d="M725.125 101.661c5.404-.819 24.693-1.912 29.101 1.277-8.007.013-20.958.233-28.645-.436z"/><path fill="#999899" fill-opacity=".016" d="M57.28 656.245c.772 5.989 1.214 11.445 1.667 17.455-2.966 3.955-.447 8.893-2.334 11.762-.732-10.395-.139-18.841.666-29.217"/><path fill="#151415" fill-opacity=".976" d="M990.126 100.607c.529-.816 1.254-1.688 1.86-2.468l2.41-.105c5.984 1.507 12.754 1.042 19.134 2.213-5.32.203-18.775.879-23.404.36"/><path fill="#151415" fill-opacity=".98" d="M183.705 892.253c6.576-.354 14.086-1.102 20.493-1.259-6.831 1.828-11.069 2.754-18.23 3.483l.209.607c-1.054.935-1.161.792-2.598.993-.831-1.691-.459-1.427.126-3.824"/><path fill="#79777a" fill-opacity=".259" d="M89.344 185.009c2.48 5.558 2.024 19.853 1.769 26.436l-.77-.474c-.778-4.374-1.07-21.297-.999-25.962"/><path fill="#404040" fill-opacity=".882" d="M204.936 904.152c9.591-.452 16.037-.524 25.499 1.081-10.532.638-15.14.624-25.499-1.081"/><path fill="#151415" fill-opacity=".98" d="M1098.54 895.688c-3.3-2.237-5.54-1.364-10.03-5.424l1.38-.081-1.28-.236 1.5 1.144.62-.784c1.91.388 6.67 2.151 8.75 2.87z"/><path fill="#151415" d="M903.391 97.459c2.585.016 3.531-.156 5.892.865l.301 1.04c-2.298 1.494-3.885 1.196-6.758.959-.6-.397-3.781-1.157-4.673-1.384z"/><path fill="#e2e1e2" fill-opacity=".024" d="M704.918 921.137c5.176.012 9.389 1.78 14.006 3.866-6.653.254-8.08-.77-14.006-3.866"/><path fill="#404040" fill-opacity=".753" d="m83.694 271.082 1.032.575c.087 3.329.499 8.157-.533 11.162l-.798-.918 1.246.123-1.432-.883c-.46-2.5 0-7.514.484-10.059"/><path fill="#5b5a5b" fill-opacity=".435" d="M1337.49 190.664c.17-2.557.51-9.6 1.65-11.61.43 4.28 1.08 7.866-1 11.771z"/><path fill="#5b5a5b" fill-opacity=".62" d="M83.694 271.082c.074-3.243-.12-7.669 1.134-10.52 1.19 1.548.644 5.84.394 7.722a149 149 0 0 1-.496 3.373z"/><path fill="#79777a" fill-opacity=".514" d="M1189.66 911.682c3.18-.16 10.81-.428 13.85-.004-2.47.884-11.35.787-13.85.004"/><path fill="#404040" fill-opacity=".012" d="M889.165 79.642c2.438-.8 4.685-1.813 7.172-1.573 4.548 5.045-.107 7.482-4.233 9.288l-.097 1.025 1.111.75c3.326-1.696 7.977-1.825 10.481 1.196-3.638.756-6.798.295-9.815.886-21.122.468-34.861-2.404-55.008-5.692l-.1-.494c7.786-1.182 51.246.026 52.37-.473-11.478-2.72-18.822.394-31.158-4.344 4.569.103 26.796 1.177 29.277-.57"/><path fill="#151415" fill-opacity=".988" d="m1389.22 267.694 2.28-.78-.49 51.281c-.17 10.913-1.1 21.207-.36 32.141l5.56-15.337c.55 14.266 1.27 27.644-1.71 41.629-.32-8.053-.54-11.572-3.01-19.48-.63 6.81-1.03 13.64-1.21 20.478-.4 1.672-1.01 5.084-1.93 6.316l-.06-22.475c.18-1.316-.01-2.07-.15-3.395.89-4.693.8-6.977.76-11.811.2-4.521-.27-8.221-.72-12.679.4-5.011.06-16.575.07-22.188-.12-14.573.2-29.147.97-43.7"/><path fill="#151415" fill-opacity=".988" d="M30.047 320.743c3.079 5.738.813 45.123 1.256 54.417.468 9.848 2.389 27.412 2.046 36.88-4.964-16.164-7.144-73.73-3.302-91.297"/><path fill="#151415" d="M1373.35 679.054c1.94 1.1 3.67 1.935 5.32 3.441 1.71 20.714-.61 26.111-4.18 45.022-.99-1.486-1.2-4.116-1.51-5.967.7-13.363.37-28.944.37-42.496"/><path fill="#151415" fill-opacity=".984" d="M1398.92 317.682c2.25 18.899 2.92 72.808-2.38 89.664.58-9.31 1.7-22.228 1.36-31.253.12-9.494.78-31.656-.52-40.133-.02-6.658.64-11.692 1.54-18.278"/><path fill="#151415" fill-opacity=".988" d="M1166.14 75.005c-8.17-2.73-50.04-.857-60.76-1.053l.71-.628c7.96-2.034 19.76-.805 28.14-1.774 14.54-1.678 25.62-.039 39.9 1.872l-7.6.56z"/><defs><linearGradient id="b" x1="31.7" x2="35.073" y1="354.391" y2="354.533" gradientUnits="userSpaceOnUse"><stop offset="0" stop-color="#090709" stop-opacity=".925"/><stop offset="1"/></linearGradient></defs><path fill="url(#b)" d="M35.978 355.997c-.081 3.271-.2 12.319-2.536 14.297l.422 1.232.346-.692-.699.089.268.613c-1.993-3.57-2.268-30.628-.459-34.726 1.376 2.098 3.134 8.661 3.964 11.383-.498 2.458-1.202 5.34-1.306 7.804"/><path fill="#e2e1e2" fill-opacity=".039" d="M1386.9 317.506c-.06-14.127-2.7-26.722.14-40.747.78-3.836.49-8.075 1.57-12.111l.35.071.26 2.975a716 716 0 0 0-.97 43.7c-.01 5.613.33 17.177-.07 22.188-1.97-3.448.57-12.642-1.28-16.076"/><defs><linearGradient id="c" x1="646.002" x2="644.809" y1="947.839" y2="952.152" gradientUnits="userSpaceOnUse"><stop offset="0" stop-color="#f1eff1" stop-opacity="0"/><stop offset="1" stop-color="#f0ecf2" stop-opacity=".055"/></linearGradient></defs><path fill="url(#c)" d="m635.152 947.698.238-.828c-1.982-.29-3.924-.565-5.897-.932l1.91-1.394c2.904.566 4.799.684 7.701.878 8.263 1.607 12.634 3.51 20.134 6.876.385 4.942 1.906.839 1.193 4.416-2.359-.236-2.831-.505-5.084-1.372l.327-.653c-5.699-3.644-13.918-5.166-20.522-6.991"/><path fill="#151415" fill-opacity=".988" d="M1387.62 443.647c1.53 2.63 2.66 3.447 2.71 6.648.14 8.912-1.7 18.104-3.34 26.84l-2.38-.324c2.27-8.782 2.09-24.029 2.09-33.368z"/><path fill="#404040" d="M1009.06 92.235c-11.016.35-19.044-.076-30.053-1.112l.143-.478c5.094-.693 9.889-.005 15.01-1.309 2.134-.543 5.192-.648 7.44-.713 8.92 2.523 15.5.099 20.16 2.038-4.83.143-8.03.023-12.7 1.574"/><path fill="#bebdc1" fill-opacity=".176" d="M1384.61 476.811c-1.06-2.24 1.45-53.695 2.45-58.273 1.11 2.286-.22 20.965-.36 24.905 0 9.339.18 24.586-2.09 33.368"/><path fill="#151415" d="M1022.09 90.655c10.93.067 22.28-1.402 32.68.688-15.71 2.264-29.92 1.364-45.71.892 4.67-1.55 7.87-1.43 12.7-1.574z"/><path fill="#5b5a5b" fill-opacity=".945" d="m71.59 953.164 6.472.737c1.42 1.394 3.266 1.44 5.039 2.164 10.861 4.432 20.676-.838 30.972-.998l.639.674c-9.241 2.778-39.873 4.938-47.841-1.609 1.078-.973 3.139-.861 4.719-.968"/><path fill="#404040" d="m620.934 946.252 14.218 1.446c6.604 1.825 14.823 3.347 20.522 6.991l-.327.653c-9.097-1.645-26.113-5.714-34.413-9.09"/><path fill="#151415" fill-opacity=".984" d="M1385.57 690.651c3.04 8.669-.6 19.757-3.08 28.218l-.58-.151c1.25-9.283 1.72-18.911 3.66-28.067"/><path fill="#bebdc1" fill-opacity=".012" d="M1198.98 67.365c4.98 1.263 12.98 1.893 18.29 2.475l1.1 1.577c-5.62-.343-13.2-.14-18.96-.125-2.51-.876-1.71-.236-3.31-2.248l.62-1.301z"/><path fill="#151415" fill-opacity=".98" d="M1199.25 972.98c-8.45-.325-16.79-1.654-25.2-2.48-4.06-.399-8.03.061-11.98-.667 4.61-1.695 15.94-.186 21.29.253 5 .846 10.79.718 15.91.777z"/><path fill="#151415" fill-opacity=".98" d="M1121.77 82.642c3.43-.466 6.57-.726 10.01-.999l.85.474c1.19.65 1.67.798 2.94 1.224l.57 1.747c-1.72.904-13.3 1.276-15.1.034z"/><path fill="#404040" fill-opacity=".969" d="M50.453 741.702c2.724 8.044 3.104 27.972 1.617 36.73l-.618-.565c-.212-11.044-1.119-25.851-.999-36.165"/><path fill="#151415" fill-opacity=".988" d="M44.195 689.867c2.113 5.281 2.46 20.366 2.16 26.275-2.084-8.849-4.417-17.22-2.16-26.275"/><path fill="#999899" fill-opacity=".227" d="M1217.27 69.84c6.22.272 33.49-1.148 36.14-.4-7.82 1.604-26.74 2.052-35.04 1.977z"/><path fill="#151415" fill-opacity=".98" d="M1383.35 527.085c.49-4.721.7-9.563 2.58-13.895l.74-.454c.75 4.711-.5 10.648-1.26 15.397z"/><path fill="#999899" fill-opacity=".306" d="M1386.9 317.506c1.85 3.434-.69 12.628 1.28 16.076.45 4.458.92 8.158.72 12.679-.21-1.059-.62-4.163-1.25-4.63-.08 3.093-.09 6.572-.27 9.625-.91-4.671-.7-28.254-.48-33.75"/><path fill="#79777a" fill-opacity=".471" d="M1397.38 335.96c1.3 8.477.64 30.639.52 40.133-1.42-5.494-.75-33.569-.52-40.133"/><path fill="#79777a" fill-opacity=".455" d="M1376.94 763.299c2.01 3.441 1.05 16.191.01 20.223-1.71-3.195-.31-16.076-.01-20.223"/><path fill="#404040" fill-opacity=".937" d="M1372.98 721.55c.31 1.851.52 4.481 1.51 5.967-.62 5.34-1.26 10.676-1.94 16.008l-.98.273z"/><path fill="#bebdc1" fill-opacity=".722" d="m156.007 946.249 3.075-.063.239.449c-4.018 1.288-13.543 2.378-18.162 3.016-1.594.214-1.59.318-3.114-.103 2.721-1.037 13.973-2.502 17.962-3.299"/><path fill="#404040" fill-opacity=".984" d="M764.097 960.668c3.124 1.699 10.728 2.2 14.712 2.67-4.712.464-9.704.846-14.339 1.701z"/><path fill="#404040" fill-opacity=".761" d="m1388.29 361.467.06 22.475c-.13 1.263.04.667-.72 1.716l.5.145-.2.895c-1.38-4.701-.79-20.148.36-25.231"/><path fill="#bebdc1" fill-opacity=".035" d="M1387.38 351.256c.18-3.053.19-6.532.27-9.625.63.467 1.04 3.571 1.25 4.63.04 4.834.13 7.118-.76 11.811-.69-2.373-.64-4.354-.76-6.816"/><path fill="#bebdc1" fill-opacity=".271" d="M1379.14 737.125c1.38 3.473.5 10.306.24 14.274-2.11-2.806-1-10.877-.24-14.274"/><path fill="#999899" fill-opacity=".502" d="m1203.01 969.432 2.03.211c-2.41.712-3.29 1.058-5.77 1.22-5.12-.059-10.91.069-15.91-.777 7.03-.013 12.67-.074 19.65-.654"/><path fill="#bebdc1" fill-opacity=".357" d="M1388.34 600.591c1.43 3.729.66 8.819-.11 12.655-1.65-2.77-.37-9.284.11-12.655"/></svg>